{
.appVersion = "1131";
DisplayStrings = (
"/boBaimai-thai/maiEk-thai/boBaimai-thai/maiTho-thai/boBaimai-thai/maiTri-thai/boBaimai-thai/maiChattawa-thai/boBaimai-thai/thanthakhat-thai/boBaimai-thai/maitaikhu-thai/poPla-thai/maiEk-thai/poPla-thai/maiTho-thai/poPla-thai/maiTri-thai/poPla-thai/maiChattawa-thai/poPla-thai/thanthakhat-thai/poPla-thai/maitaikhu-thai \012\012/boBaimai-thai/saraIi-thai/maiEk-thai/boBaimai-thai/saraIi-thai/maiTho-thai/boBaimai-thai/saraIi-thai/maiTri-thai/boBaimai-thai/saraIi-thai/maiChattawa-thai/boBaimai-thai/saraI-thai/thanthakhat-thai/poPla-thai/saraIi-thai/maiEk-thai/poPla-thai/saraIi-thai/maiTho-thai/poPla-thai/saraIi-thai/maiTri-thai/poPla-thai/saraIi-thai/maiChattawa-thai/poPla-thai/saraI-thai/thanthakhat-thai \012\012/boBaimai-thai/maiHanaKat-thai/maiEk-thai/boBaimai-thai/maiHanaKat-thai/maiTho-thai/boBaimai-thai/maiHanaKat-thai/maiTri-thai/boBaimai-thai/maiHanaKat-thai/maiChattawa-thai  /poPla-thai/maiHanaKat-thai/maiEk-thai/poPla-thai/maiHanaKat-thai/maiTho-thai/poPla-thai/maiHanaKat-thai/maiTri-thai/poPla-thai/maiHanaKat-thai/maiChattawa-thai",
"ABCDEFGHIJKLMN\012OPQRSTUVWXYZ\012abcdefghijklmnop\012qrstuvwxyz",
H,
Q
);
copyright = "Copyright © 2018 by Cadson Demak Co.,Ltd.. All rights reserved.";
customParameters = (
{
name = vendorID;
value = CDK;
},
{
name = description;
value = "Copyright (c) 2018, Cadson Demak (info@cadsondemak.com)";
},
{
name = license;

glyphs = (
{
color = 4;
glyphname = A;
lastChange = "2018-05-16 09:35:42 +0000";
layers = (
{
anchors = (
{
name = bottom;
position = "{284, 0}";
},
{
name = ogonek;
position = "{503, 10}";
},
{
name = top;
position = "{284, 700}";
}
);
background = {
paths = (
{
closed = 1;
nodes = (
"303 710 LINE",
"245 710 LINE",
"-20 0 LINE",
"43 0 LINE",
"123 225 LINE",
"424 225 LINE",
"505 0 LINE",
"568 0 LINE"
);
},
{
closed = 1;
nodes = (
"140 273 LINE",
"274 647 LINE",
"406 273 LINE"
);
}
);
};
layerId = "0B1DFD06-3317-40CA-B510-4969A0718C16";
paths = (
{
closed = 1;
nodes = (
"83 0 LINE",
"298 680 LINE",
"270 680 LINE",
"485 0 LINE",
"548 0 LINE",
"313 700 LINE",
"255 700 LINE",
"20 0 LINE"
);
},
{
closed = 1;
nodes = (
"447 175 LINE",
"429 223 LINE",
"137 223 LINE",
"120 175 LINE"
);
}
);
width = 568;
},
{
anchors = (
{
name = bottom;
position = "{326, 0}";
},
{
name = ogonek;
position = "{585, 10}";
},
{
name = top;
position = "{326, 700}";
}
);
layerId = "ECFE7DEB-F40D-44C7-B7CF-D3B40F3B51F8";
paths = (
{
closed = 1;
nodes = (
"180 0 LINE",
"360 597 LINE",
"292 597 LINE",
"472 0 LINE",
"640 0 LINE",
"396 700 LINE",
"256 700 LINE",
"12 0 LINE"
);
},
{
closed = 1;
nodes = (
"547 104 LINE",
"503 232 LINE",
"146 232 LINE",
"105 104 LINE"
);
}
);
width = 652;
}
);
note = A;
unicode = 0041;
},
{
color = 4;
glyphname = B;
lastChange = "2018-05-16 09:43:07 +0000";
layers = (
{
anchors = (
{
name = bottom;
position = "{290, 0}";
},
{
name = top;
position = "{290, 700}";
}
);
background = {
paths = (
{
closed = 1;
nodes = (
"510 291 OFFCURVE",
"436 356 OFFCURVE",
"366 373 CURVE",
"436 398 OFFCURVE",
"482 462 OFFCURVE",
"482 532 CURVE SMOOTH",
"482 650 OFFCURVE",
"396 709 OFFCURVE",
"227 709 CURVE SMOOTH",
"179 709 OFFCURVE",
"129 703 OFFCURVE",
"80 689 CURVE",
"80 6 LINE",
"126 -4 OFFCURVE",
"172 -9 OFFCURVE",
"214 -9 CURVE SMOOTH",
"411 -9 OFFCURVE",
"510 59 OFFCURVE",
"510 196 CURVE SMOOTH"
);
},
{
closed = 1;
nodes = (
"424 492 OFFCURVE",
"410 460 OFFCURVE",
"382 435 CURVE SMOOTH",
"351 407 OFFCURVE",
"308 394 OFFCURVE",
"257 394 CURVE SMOOTH",
"138 394 LINE",
"138 650 LINE",
"167 657 OFFCURVE",
"197 660 OFFCURVE",
"227 660 CURVE SMOOTH",
"358 660 OFFCURVE",
"424 617 OFFCURVE",
"424 531 CURVE SMOOTH"
);
},
{
closed = 1;
nodes = (
"454 140 OFFCURVE",
"429 100 OFFCURVE",
"380 72 CURVE SMOOTH",
"341 50 OFFCURVE",
"289 38 OFFCURVE",
"226 38 CURVE SMOOTH",
"194 38 OFFCURVE",
"164 41 OFFCURVE",
"138 47 CURVE",
"138 347 LINE",
"239 347 LINE SMOOTH",
"363 347 OFFCURVE",
"454 298 OFFCURVE",
"454 194 CURVE SMOOTH"
);
}
);
};
layerId = "0B1DFD06-3317-40CA-B510-4969A0718C16";
paths = (
{
closed = 1;
nodes = (
"284 0 LINE",
"446 0 OFFCURVE",
"520 62 OFFCURVE",
"520 196 CURVE SMOOTH",
"520 297 OFFCURVE",
"475 352 OFFCURVE",
"376 371 CURVE",
"376 375 LINE",
"456 399 OFFCURVE",
"492 453 OFFCURVE",
"492 536 CURVE SMOOTH",
"492 651 OFFCURVE",
"415 700 OFFCURVE",
"247 700 CURVE SMOOTH",
"90 700 LINE",
"90 0 LINE"
);
},
{
closed = 1;
nodes = (
"148 347 LINE",
"249 347 LINE SMOOTH",
"396 347 OFFCURVE",
"464 299 OFFCURVE",
"464 194 CURVE SMOOTH",
"464 95 OFFCURVE",
"411 50 OFFCURVE",
"296 50 CURVE SMOOTH",
"148 50 LINE"
);
},
{
closed = 1;
nodes = (
"148 650 LINE",
"257 650 LINE SMOOTH",
"378 650 OFFCURVE",
"434 617 OFFCURVE",
"434 535 CURVE SMOOTH",
"434 441 OFFCURVE",
"385 394 OFFCURVE",
"277 394 CURVE SMOOTH",
"148 394 LINE"
);
}
);
width = 580;
},
{
anchors = (
{
name = bottom;
position = "{309, 0}";
},
{
name = top;
position = "{309, 700}";
}
);
background = {
paths = (
{
closed = 1;
nodes = (
"512 291 OFFCURVE",
"438 356 OFFCURVE",
"368 373 CURVE",
"438 398 OFFCURVE",
"484 462 OFFCURVE",
"484 532 CURVE SMOOTH",
"484 650 OFFCURVE",
"398 709 OFFCURVE",
"229 709 CURVE SMOOTH",
"181 709 OFFCURVE",
"131 703 OFFCURVE",
"82 689 CURVE",
"82 6 LINE",
"128 -4 OFFCURVE",
"174 -9 OFFCURVE",
"216 -9 CURVE SMOOTH",
"413 -9 OFFCURVE",
"512 59 OFFCURVE",
"512 196 CURVE SMOOTH"
);
},
{
closed = 1;
nodes = (
"426 492 OFFCURVE",
"412 460 OFFCURVE",
"384 435 CURVE SMOOTH",
"353 407 OFFCURVE",
"310 394 OFFCURVE",
"259 394 CURVE SMOOTH",
"140 394 LINE",
"140 650 LINE",
"169 657 OFFCURVE",
"199 660 OFFCURVE",
"229 660 CURVE SMOOTH",
"360 660 OFFCURVE",
"426 617 OFFCURVE",
"426 531 CURVE SMOOTH"
);
},
{
closed = 1;
nodes = (
"456 140 OFFCURVE",
"431 100 OFFCURVE",
"382 72 CURVE SMOOTH",
"343 50 OFFCURVE",
"291 38 OFFCURVE",
"228 38 CURVE SMOOTH",
"196 38 OFFCURVE",
"166 41 OFFCURVE",
"140 47 CURVE",
"140 347 LINE",
"241 347 LINE SMOOTH",
"365 347 OFFCURVE",
"456 298 OFFCURVE",
"456 194 CURVE SMOOTH"
);
}
);
};
layerId = "ECFE7DEB-F40D-44C7-B7CF-D3B40F3B51F8";
paths = (
{
closed = 1;
nodes = (
"348 0 LINE SMOOTH",
"496 0 OFFCURVE",
"576 77 OFFCURVE",
"576 208 CURVE SMOOTH",
"576 290 OFFCURVE",
"543 340 OFFCURVE",
"459 376 CURVE",
"459 378 LINE",
"519 413 OFFCURVE",
"550 457 OFFCURVE",
"550 523 CURVE SMOOTH",
"550 634 OFFCURVE",
"466 700 OFFCURVE",
"303 700 CURVE SMOOTH",
"62 700 LINE",
"62 0 LINE"
);
},
{
closed = 1;
nodes = (
"223 310 LINE",
"302 310 LINE SMOOTH",
"369 310 OFFCURVE",
"417 294 OFFCURVE",
"417 219 CURVE SMOOTH",
"417 160 OFFCURVE",
"385 123 OFFCURVE",
"333 123 CURVE SMOOTH",
"223 123 LINE"
);
},
{
closed = 1;
nodes = (
"223 577 LINE",
"293 577 LINE SMOOTH",
"347 577 OFFCURVE",
"388 561 OFFCURVE",
"388 505 CURVE SMOOTH",
"388 461 OFFCURVE",
"362 426 OFFCURVE",
"312 426 CURVE SMOOTH",
"223 426 LINE"
);
}
);
width = 608;
}
);
note = B;
unicode = 0042;
},
{
color = 4;
glyphname = C;
lastChange = "2018-05-16 09:35:42 +0000";
layers = (
{
anchors = (
{
name = bottom;
position = "{339, 0}";
},
{
name = top;
position = "{328, 700}";
}
);
background = {
paths = (
{
closed = 1;
nodes = (
"483 51 OFFCURVE",
"425 40 OFFCURVE",
"365 40 CURVE SMOOTH",
"290 40 OFFCURVE",
"225 68 OFFCURVE",
"172 123 CURVE SMOOTH",
"117 182 OFFCURVE",
"89 257 OFFCURVE",
"89 350 CURVE SMOOTH",
"89 442 OFFCURVE",
"117 517 OFFCURVE",
"172 576 CURVE SMOOTH",
"225 632 OFFCURVE",
"290 660 OFFCURVE",
"365 660 CURVE SMOOTH",
"425 660 OFFCURVE",
"483 648 OFFCURVE",
"535 626 CURVE",
"553 673 LINE",
"502 698 OFFCURVE",
"437 710 OFFCURVE",
"362 710 CURVE SMOOTH",
"266 710 OFFCURVE",
"187 676 OFFCURVE",
"124 609 CURVE SMOOTH",
"61 542 OFFCURVE",
"30 456 OFFCURVE",
"30 351 CURVE SMOOTH",
"30 247 OFFCURVE",
"61 160 OFFCURVE",
"124 91 CURVE SMOOTH",
"187 24 OFFCURVE",
"266 -10 OFFCURVE",
"362 -10 CURVE SMOOTH",
"437 -10 OFFCURVE",
"502 1 OFFCURVE",
"553 26 CURVE",
"535 74 LINE"
);
}
);
};
layerId = "0B1DFD06-3317-40CA-B510-4969A0718C16";
paths = (
{
closed = 1;
nodes = (
"448 -10 OFFCURVE",
"509 43 OFFCURVE",
"537 89 CURVE",
"506 127 LINE",
"477 81 OFFCURVE",
"432 40 OFFCURVE",
"328 40 CURVE SMOOTH",
"182 40 OFFCURVE",
"99 164 OFFCURVE",
"99 350 CURVE SMOOTH",
"99 536 OFFCURVE",
"182 660 OFFCURVE",
"334 660 CURVE SMOOTH",
"434 660 OFFCURVE",
"478 614 OFFCURVE",
"506 573 CURVE",
"537 611 LINE",
"512 651 OFFCURVE",
"450 710 OFFCURVE",
"334 710 CURVE SMOOTH",
"147 710 OFFCURVE",
"40 565 OFFCURVE",
"40 350 CURVE SMOOTH",
"40 135 OFFCURVE",
"147 -10 OFFCURVE",
"328 -10 CURVE SMOOTH"
);
}
);
width = 577;
},
{
anchors = (
{
name = bottom;
position = "{353, 0}";
},
{
name = top;
position = "{353, 700}";
}
);
background = {
paths = (
{
closed = 1;
nodes = (
"491 51 OFFCURVE",
"433 40 OFFCURVE",
"373 40 CURVE SMOOTH",
"298 40 OFFCURVE",
"233 68 OFFCURVE",
"180 123 CURVE SMOOTH",
"125 182 OFFCURVE",
"97 257 OFFCURVE",
"97 350 CURVE SMOOTH",
"97 442 OFFCURVE",
"125 517 OFFCURVE",
"180 576 CURVE SMOOTH",
"233 632 OFFCURVE",
"298 660 OFFCURVE",
"373 660 CURVE SMOOTH",
"433 660 OFFCURVE",
"491 648 OFFCURVE",
"543 626 CURVE",
"561 673 LINE",
"510 698 OFFCURVE",
"445 710 OFFCURVE",
"370 710 CURVE SMOOTH",
"274 710 OFFCURVE",
"195 676 OFFCURVE",
"132 609 CURVE SMOOTH",
"69 542 OFFCURVE",
"38 456 OFFCURVE",
"38 351 CURVE SMOOTH",
"38 247 OFFCURVE",
"69 160 OFFCURVE",
"132 91 CURVE SMOOTH",
"195 24 OFFCURVE",
"274 -10 OFFCURVE",
"370 -10 CURVE SMOOTH",
"445 -10 OFFCURVE",
"510 1 OFFCURVE",
"561 26 CURVE",
"543 74 LINE"
);
}
);
};
layerId = "ECFE7DEB-F40D-44C7-B7CF-D3B40F3B51F8";
paths = (
{
closed = 1;
nodes = (
"471 -10 OFFCURVE",
"559 37 OFFCURVE",
"599 118 CURVE",
"507 197 LINE",
"474 145 OFFCURVE",
"422 118 OFFCURVE",
"352 118 CURVE SMOOTH",
"241 118 OFFCURVE",
"183 198 OFFCURVE",
"183 350 CURVE SMOOTH",
"183 503 OFFCURVE",
"242 582 OFFCURVE",
"355 582 CURVE SMOOTH",
"423 582 OFFCURVE",
"474 554 OFFCURVE",
"507 503 CURVE",
"599 582 LINE",
"559 663 OFFCURVE",
"471 710 OFFCURVE",
"353 710 CURVE SMOOTH",
"151 710 OFFCURVE",
"22 570 OFFCURVE",
"22 350 CURVE SMOOTH",
"22 130 OFFCURVE",
"151 -10 OFFCURVE",
"353 -10 CURVE SMOOTH"
);
}
);
width = 621;
}
);
note = C;
unicode = 0043;
},
{
color = 4;
glyphname = D;
lastChange = "2018-05-16 09:43:07 +0000";
layers = (
{
anchors = (
{
name = bottom;
position = "{290, 0}";
},
{
name = center;
position = "{311, 350}";
},
{
name = top;
position = "{307, 700}";
}
);
background = {
paths = (
{
closed = 1;
nodes = (
"592 470 OFFCURVE",
"564 554 OFFCURVE",
"507 617 CURVE SMOOTH",
"451 678 OFFCURVE",
"379 707 OFFCURVE",
"289 707 CURVE SMOOTH",
"241 707 OFFCURVE",
"170 701 OFFCURVE",
"80 689 CURVE",
"80 7 LINE",
"170 -1 OFFCURVE",
"230 -6 OFFCURVE",
"260 -6 CURVE SMOOTH",
"482 -6 OFFCURVE",
"592 118 OFFCURVE",
"592 365 CURVE SMOOTH"
);
},
{
closed = 1;
nodes = (
"535 163 OFFCURVE",
"436 44 OFFCURVE",
"277 44 CURVE SMOOTH",
"233 44 OFFCURVE",
"186 47 OFFCURVE",
"138 53 CURVE",
"138 645 LINE",
"205 653 OFFCURVE",
"254 657 OFFCURVE",
"285 657 CURVE SMOOTH",
"357 657 OFFCURVE",
"416 632 OFFCURVE",
"461 584 CURVE SMOOTH",
"510 531 OFFCURVE",
"535 457 OFFCURVE",
"535 365 CURVE SMOOTH"
);
}
);
};
layerId = "0B1DFD06-3317-40CA-B510-4969A0718C16";
paths = (
{
closed = 1;
nodes = (
"280 0 LINE SMOOTH",
"502 0 OFFCURVE",
"572 118 OFFCURVE",
"572 365 CURVE SMOOTH",
"572 567 OFFCURVE",
"500 700 OFFCURVE",
"309 700 CURVE SMOOTH",
"90 700 LINE",
"90 0 LINE"
);
},
{
closed = 1;
nodes = (
"148 650 LINE",
"305 650 LINE SMOOTH",
"459 650 OFFCURVE",
"515 539 OFFCURVE",
"515 365 CURVE SMOOTH",
"515 163 OFFCURVE",
"456 50 OFFCURVE",
"297 50 CURVE SMOOTH",
"148 50 LINE"
);
}
);
width = 622;
},
{
anchors = (
{
name = bottom;
position = "{321, 0}";
},
{
name = center;
position = "{322, 350}";
},
{
name = top;
position = "{322, 700}";
}
);
background = {
paths = (
{
closed = 1;
nodes = (
"591 470 OFFCURVE",
"563 554 OFFCURVE",
"506 617 CURVE SMOOTH",
"450 678 OFFCURVE",
"378 707 OFFCURVE",
"288 707 CURVE SMOOTH",
"240 707 OFFCURVE",
"169 701 OFFCURVE",
"79 689 CURVE",
"79 7 LINE",
"169 -1 OFFCURVE",
"229 -6 OFFCURVE",
"259 -6 CURVE SMOOTH",
"481 -6 OFFCURVE",
"591 118 OFFCURVE",
"591 365 CURVE SMOOTH"
);
},
{
closed = 1;
nodes = (
"534 163 OFFCURVE",
"435 44 OFFCURVE",
"276 44 CURVE SMOOTH",
"232 44 OFFCURVE",
"185 47 OFFCURVE",
"137 53 CURVE",
"137 645 LINE",
"204 653 OFFCURVE",
"253 657 OFFCURVE",
"284 657 CURVE SMOOTH",
"356 657 OFFCURVE",
"415 632 OFFCURVE",
"460 584 CURVE SMOOTH",
"509 531 OFFCURVE",
"534 457 OFFCURVE",
"534 365 CURVE SMOOTH"
);
}
);
};
layerId = "ECFE7DEB-F40D-44C7-B7CF-D3B40F3B51F8";
paths = (
{
closed = 1;
nodes = (
"294 0 LINE SMOOTH",
"503 0 OFFCURVE",
"622 85 OFFCURVE",
"622 363 CURVE SMOOTH",
"622 584 OFFCURVE",
"519 700 OFFCURVE",
"321 700 CURVE SMOOTH",
"62 700 LINE",
"62 0 LINE"
);
},
{
closed = 1;
nodes = (
"223 572 LINE",
"318 572 LINE SMOOTH",
"400 572 OFFCURVE",
"462 535 OFFCURVE",
"462 363 CURVE SMOOTH",
"462 167 OFFCURVE",
"398 128 OFFCURVE",
"309 128 CURVE SMOOTH",
"223 128 LINE"
);
}
);
width = 654;
}
);
note = D;
unicode = 0044;
},
{
color = 4;
glyphname = E;
lastChange = "2018-05-16 09:43:07 +0000";
layers = (
{
anchors = (
{
name = bottom;
position = "{291, 0}";
},
{
name = ogonek;
position = "{449, 10}";
},
{
name = top;
position = "{291, 700}";
},
{
name = topleft;
position = "{30, 700}";
}
);
background = {
paths = (
{
closed = 1;
nodes = (
"461 49 LINE",
"138 49 LINE",
"138 345 LINE",
"426 345 LINE",
"426 394 LINE",
"138 394 LINE",
"138 651 LINE",
"461 651 LINE",
"461 700 LINE",
"80 700 LINE",
"80 0 LINE",
"461 0 LINE"
);
}
);
};
layerId = "0B1DFD06-3317-40CA-B510-4969A0718C16";
paths = (
{
closed = 1;
nodes = (
"481 0 LINE",
"481 50 LINE",
"148 50 LINE",
"148 344 LINE",
"446 344 LINE",
"446 394 LINE",
"148 394 LINE",
"148 650 LINE",
"481 650 LINE",
"481 700 LINE",
"90 700 LINE",
"90 0 LINE"
);
}
);
width = 541;
},
{
anchors = (
{
name = bottom;
position = "{294, 0}";
},
{
name = ogonek;
position = "{516, 10}";
},
{
name = top;
position = "{294, 700}";
},
{
name = topleft;
position = "{29, 700}";
}
);
background = {
paths = (
{
closed = 1;
nodes = (
"465 49 LINE",
"142 49 LINE",
"142 345 LINE",
"430 345 LINE",
"430 394 LINE",
"142 394 LINE",
"142 651 LINE",
"465 651 LINE",
"465 700 LINE",
"84 700 LINE",
"84 0 LINE",
"465 0 LINE"
);
}
);
};
layerId = "ECFE7DEB-F40D-44C7-B7CF-D3B40F3B51F8";
paths = (
{
closed = 1;
nodes = (
"541 0 LINE",
"541 128 LINE",
"223 128 LINE",
"223 303 LINE",
"507 303 LINE",
"507 431 LINE",
"223 431 LINE",
"223 572 LINE",
"541 572 LINE",
"541 700 LINE",
"62 700 LINE",
"62 0 LINE"
);
}
);
width = 573;
}
);
note = E;
unicode = 0045;
},
{
color = 4;
glyphname = F;
lastChange = "2018-05-16 09:43:07 +0000";
layers = (
{
anchors = (
{
name = bottom;
position = "{119, 0}";
},
{
name = top;
position = "{291, 700}";
}
);
background = {
paths = (
{
closed = 1;
nodes = (
"454 385 LINE",
"138 385 LINE",
"138 651 LINE",
"476 651 LINE",
"476 700 LINE",
"80 700 LINE",
"80 0 LINE",
"138 0 LINE",
"138 337 LINE",
"454 337 LINE"
);
}
);
};
layerId = "0B1DFD06-3317-40CA-B510-4969A0718C16";
paths = (
{
closed = 1;
nodes = (
"148 0 LINE",
"148 315 LINE",
"464 315 LINE",
"464 365 LINE",
"148 365 LINE",
"148 650 LINE",
"486 650 LINE",
"486 700 LINE",
"90 700 LINE",
"90 0 LINE"
);
}
);
width = 536;
},
{
anchors = (
{
name = bottom;
position = "{146, 0}";
},
{
name = top;
position = "{314, 700}";
}
);
background = {
paths = (
{
closed = 1;
nodes = (
"458 385 LINE",
"142 385 LINE",
"142 651 LINE",
"480 651 LINE",
"480 700 LINE",
"84 700 LINE",
"84 0 LINE",
"142 0 LINE",
"142 337 LINE",
"458 337 LINE"
);
}
);
};
layerId = "ECFE7DEB-F40D-44C7-B7CF-D3B40F3B51F8";
paths = (
{
closed = 1;
nodes = (
"223 0 LINE",
"223 277 LINE",
"525 277 LINE",
"525 405 LINE",
"223 405 LINE",
"223 572 LINE",
"546 572 LINE",
"546 700 LINE",
"62 700 LINE",
"62 0 LINE"
);
}
);
width = 578;
}
);
note = F;
unicode = 0046;
},
{
color = 4;
glyphname = G;
lastChange = "2018-05-16 09:36:26 +0000";
layers = (
{
anchors = (
{
name = bottom;
position = "{337, 0}";
},
{
name = top;
position = "{337, 700}";
}
);
background = {
paths = (
{
closed = 1;
nodes = (
"325 350 LINE",
"325 303 LINE",
"503 303 LINE",
"503 76 LINE",
"452 51 OFFCURVE",
"396 40 OFFCURVE",
"334 40 CURVE SMOOTH",
"177 40 OFFCURVE",
"89 157 OFFCURVE",
"89 350 CURVE SMOOTH",
"89 440 OFFCURVE",
"114 515 OFFCURVE",
"162 572 CURVE SMOOTH",
"212 629 OFFCURVE",
"274 659 OFFCURVE",
"347 659 CURVE SMOOTH",
"405 659 OFFCURVE",
"462 647 OFFCURVE",
"521 625 CURVE",
"538 672 LINE",
"484 695 OFFCURVE",
"422 707 OFFCURVE",
"350 707 CURVE SMOOTH",
"250 707 OFFCURVE",
"171 673 OFFCURVE",
"114 604 CURVE SMOOTH",
"58 539 OFFCURVE",
"30 456 OFFCURVE",
"30 351 CURVE SMOOTH",
"30 243 OFFCURVE",
"56 156 OFFCURVE",
"111 90 CURVE SMOOTH",
"165 25 OFFCURVE",
"236 -7 OFFCURVE",
"325 -7 CURVE SMOOTH",
"344 -7 OFFCURVE",
"384 -3 OFFCURVE",
"441 7 CURVE SMOOTH",
"499 18 OFFCURVE",
"528 24 OFFCURVE",
"528 24 CURVE",
"541 24 OFFCURVE",
"552 21 OFFCURVE",
"559 15 CURVE",
"559 350 LINE"
);
}
);
};
layerId = "0B1DFD06-3317-40CA-B510-4969A0718C16";
paths = (
{
closed = 1;
nodes = (
"451 -10 OFFCURVE",
"519 43 OFFCURVE",
"547 89 CURVE",
"516 127 LINE",
"487 81 OFFCURVE",
"435 40 OFFCURVE",
"331 40 CURVE SMOOTH",
"185 40 OFFCURVE",
"99 164 OFFCURVE",
"99 350 CURVE SMOOTH",
"99 536 OFFCURVE",
"185 660 OFFCURVE",
"331 660 CURVE SMOOTH",
"435 660 OFFCURVE",
"487 619 OFFCURVE",
"516 573 CURVE",
"547 611 LINE",
"519 657 OFFCURVE",
"451 710 OFFCURVE",
"331 710 CURVE SMOOTH",
"150 710 OFFCURVE",
"40 565 OFFCURVE",
"40 350 CURVE SMOOTH",
"40 135 OFFCURVE",
"150 -10 OFFCURVE",
"331 -10 CURVE SMOOTH"
);
},
{
closed = 1;
nodes = (
"559 0 LINE",
"559 350 LINE",
"325 350 LINE",
"325 304 LINE",
"503 304 LINE",
"503 76 LINE",
"528 0 LINE"
);
}
);
width = 629;
},
{
anchors = (
{
name = bottom;
position = "{335, 0}";
},
{
name = top;
position = "{335, 700}";
}
);
background = {
paths = (
{
closed = 1;
nodes = (
"325 350 LINE",
"325 303 LINE",
"503 303 LINE",
"503 76 LINE",
"452 51 OFFCURVE",
"396 40 OFFCURVE",
"334 40 CURVE SMOOTH",
"177 40 OFFCURVE",
"89 157 OFFCURVE",
"89 350 CURVE SMOOTH",
"89 440 OFFCURVE",
"114 515 OFFCURVE",
"162 572 CURVE SMOOTH",
"212 629 OFFCURVE",
"274 659 OFFCURVE",
"347 659 CURVE SMOOTH",
"405 659 OFFCURVE",
"462 647 OFFCURVE",
"521 625 CURVE",
"538 672 LINE",
"484 695 OFFCURVE",
"422 707 OFFCURVE",
"350 707 CURVE SMOOTH",
"250 707 OFFCURVE",
"171 673 OFFCURVE",
"114 604 CURVE SMOOTH",
"58 539 OFFCURVE",
"30 456 OFFCURVE",
"30 351 CURVE SMOOTH",
"30 243 OFFCURVE",
"56 156 OFFCURVE",
"111 90 CURVE SMOOTH",
"165 25 OFFCURVE",
"236 -7 OFFCURVE",
"325 -7 CURVE SMOOTH",
"344 -7 OFFCURVE",
"384 -3 OFFCURVE",
"441 7 CURVE SMOOTH",
"499 18 OFFCURVE",
"528 24 OFFCURVE",
"528 24 CURVE",
"541 24 OFFCURVE",
"552 21 OFFCURVE",
"559 15 CURVE",
"559 350 LINE"
);
}
);
};
layerId = "ECFE7DEB-F40D-44C7-B7CF-D3B40F3B51F8";
paths = (
{
closed = 1;
nodes = (
"411 -10 OFFCURVE",
"505 39 OFFCURVE",
"546 138 CURVE",
"498 182 LINE",
"470 138 OFFCURVE",
"404 107 OFFCURVE",
"336 107 CURVE SMOOTH",
"234 107 OFFCURVE",
"181 188 OFFCURVE",
"181 350 CURVE SMOOTH",
"181 503 OFFCURVE",
"240 582 OFFCURVE",
"352 582 CURVE SMOOTH",
"418 582 OFFCURVE",
"472 554 OFFCURVE",
"504 503 CURVE",
"596 582 LINE",
"558 661 OFFCURVE",
"471 710 OFFCURVE",
"350 710 CURVE SMOOTH",
"149 710 OFFCURVE",
"20 570 OFFCURVE",
"20 350 CURVE SMOOTH",
"20 121 OFFCURVE",
"127 -10 OFFCURVE",
"313 -10 CURVE SMOOTH"
);
},
{
closed = 1;
nodes = (
"603 0 LINE",
"603 386 LINE",
"298 386 LINE",
"298 273 LINE",
"444 273 LINE",
"444 101 LINE",
"479 0 LINE"
);
}
);
width = 647;
}
);
note = G;
unicode = 0047;
},
{
color = 4;
glyphname = H;
lastChange = "2018-05-16 09:36:32 +0000";
layers = (
{
anchors = (
{
name = bottom;
position = "{335, 0}";
},
{
name = center;
position = "{335, 350}";
},
{
name = top;
position = "{335, 700}";
},
{
name = topleft;
position = "{119, 500}";
}
);
background = {
paths = (
{
closed = 1;
nodes = (
"570 700 LINE",
"513 700 LINE",
"513 397 LINE",
"138 397 LINE",
"138 700 LINE",
"80 700 LINE",
"80 0 LINE",
"138 0 LINE",
"138 348 LINE",
"513 348 LINE",
"513 0 LINE",
"570 0 LINE"
);
}
);
};
layerId = "0B1DFD06-3317-40CA-B510-4969A0718C16";
paths = (
{
closed = 1;
nodes = (
"148 0 LINE",
"148 327 LINE",
"523 327 LINE",
"523 0 LINE",
"581 0 LINE",
"581 700 LINE",
"523 700 LINE",
"523 377 LINE",
"148 377 LINE",
"148 700 LINE",
"90 700 LINE",
"90 0 LINE"
);
}
);
width = 671;
},
{
anchors = (
{
name = bottom;
position = "{347, 0}";
},
{
name = center;
position = "{347, 350}";
},
{
name = top;
position = "{347, 700}";
},
{
name = topleft;
position = "{141, 500}";
}
);
background = {
paths = (
{
closed = 1;
nodes = (
"569 700 LINE",
"512 700 LINE",
"512 397 LINE",
"137 397 LINE",
"137 700 LINE",
"79 700 LINE",
"79 0 LINE",
"137 0 LINE",
"137 348 LINE",
"512 348 LINE",
"512 0 LINE",
"569 0 LINE"
);
}
);
};
layerId = "ECFE7DEB-F40D-44C7-B7CF-D3B40F3B51F8";
paths = (
{
closed = 1;
nodes = (
"223 0 LINE",
"223 293 LINE",
"470 293 LINE",
"470 0 LINE",
"631 0 LINE",
"631 700 LINE",
"470 700 LINE",
"470 421 LINE",
"223 421 LINE",
"223 700 LINE",
"62 700 LINE",
"62 0 LINE"
);
}
);
width = 693;
}
);
note = H;
unicode = 0048;
},
{
color = 4;
glyphname = I;
lastChange = "2018-05-16 09:37:21 +0000";
layers = (
{
anchors = (
{
name = bottom;
position = "{139, 0}";
},
{
name = ogonek;
position = "{139, 10}";
},
{
name = top;
position = "{139, 700}";
},
{
name = topleft;
position = "{30, 700}";
}
);
background = {
paths = (
{
closed = 1;
nodes = (
"158 700 LINE",
"100 700 LINE",
"100 0 LINE",
"158 0 LINE"
);
}
);
};
layerId = "0B1DFD06-3317-40CA-B510-4969A0718C16";
paths = (
{
closed = 1;
nodes = (
"168 0 LINE",
"168 700 LINE",
"110 700 LINE",
"110 0 LINE"
);
}
);
width = 278;
},
{
anchors = (
{
name = bottom;
position = "{165, 0}";
},
{
name = ogonek;
position = "{165, 10}";
},
{
name = top;
position = "{165, 700}";
},
{
name = topleft;
position = "{22, 700}";
}
);
background = {
paths = (
{
closed = 1;
nodes = (
"172 700 LINE",
"114 700 LINE",
"114 0 LINE",
"172 0 LINE"
);
}
);
};
layerId = "ECFE7DEB-F40D-44C7-B7CF-D3B40F3B51F8";
paths = (
{
closed = 1;
nodes = (
"247 0 LINE",
"247 700 LINE",
"82 700 LINE",
"82 0 LINE"
);
}
);
width = 329;
}
);
note = I;
unicode = 0049;
},
{
color = 4;
glyphname = J;
lastChange = "2018-05-16 09:37:39 +0000";
layers = (
{
anchors = (
{
name = bottom;
position = "{134, 0}";
},
{
name = top;
position = "{204, 700}";
}
);
background = {
paths = (
{
closed = 1;
nodes = (
"309 700 LINE",
"251 700 LINE",
"251 244 LINE SMOOTH",
"251 87 OFFCURVE",
"204 37 OFFCURVE",
"103 37 CURVE SMOOTH",
"66 37 OFFCURVE",
"35 43 OFFCURVE",
"13 54 CURVE",
"-1 9 LINE",
"29 -6 OFFCURVE",
"65 -13 OFFCURVE",
"103 -13 CURVE SMOOTH",
"240 -13 OFFCURVE",
"309 68 OFFCURVE",
"309 229 CURVE SMOOTH"
);
}
);
};
layerId = "0B1DFD06-3317-40CA-B510-4969A0718C16";
paths = (
{
closed = 1;
nodes = (
"266 -10 OFFCURVE",
"319 59 OFFCURVE",
"319 222 CURVE SMOOTH",
"319 700 LINE",
"261 700 LINE",
"261 237 LINE SMOOTH",
"261 99 OFFCURVE",
"225 40 OFFCURVE",
"134 40 CURVE SMOOTH",
"97 40 OFFCURVE",
"52 54 OFFCURVE",
"30 74 CURVE",
"9 29 LINE",
"39 4 OFFCURVE",
"96 -10 OFFCURVE",
"134 -10 CURVE SMOOTH"
);
}
);
width = 409;
},
{
anchors = (
{
name = bottom;
position = "{209, 0}";
},
{
name = top;
position = "{278, 700}";
}
);
background = {
paths = (
{
closed = 1;
nodes = (
"377 700 LINE",
"319 700 LINE",
"319 244 LINE SMOOTH",
"319 87 OFFCURVE",
"272 37 OFFCURVE",
"171 37 CURVE SMOOTH",
"134 37 OFFCURVE",
"103 43 OFFCURVE",
"81 54 CURVE",
"67 9 LINE",
"97 -6 OFFCURVE",
"133 -13 OFFCURVE",
"171 -13 CURVE SMOOTH",
"308 -13 OFFCURVE",
"377 68 OFFCURVE",
"377 229 CURVE SMOOTH"
);
}
);
};
layerId = "ECFE7DEB-F40D-44C7-B7CF-D3B40F3B51F8";
paths = (
{
closed = 1;
nodes = (
"363 -10 OFFCURVE",
"445 64 OFFCURVE",
"445 225 CURVE SMOOTH",
"445 700 LINE",
"283 700 LINE",
"283 242 LINE SMOOTH",
"283 159 OFFCURVE",
"262 118 OFFCURVE",
"199 118 CURVE SMOOTH",
"153 118 OFFCURVE",
"107 138 OFFCURVE",
"67 176 CURVE",
"2 68 LINE",
"52 19 OFFCURVE",
"124 -10 OFFCURVE",
"208 -10 CURVE SMOOTH"
);
}
);
width = 505;
}
);
note = J;
unicode = 004A;
},
{
color = 4;
glyphname = K;
lastChange = "2018-05-16 09:43:07 +0000";
layers = (
{
anchors = (
{
name = bottom;
position = "{288, 0}";
},
{
name = top;
position = "{288, 700}";
}
);
background = {
paths = (
{
closed = 1;
nodes = (
"252 401 LINE",
"543 692 LINE",
"486 709 LINE",
"138 363 LINE",
"138 700 LINE",
"80 700 LINE",
"80 0 LINE",
"138 0 LINE",
"138 290 LINE",
"213 365 LINE",
"523 -7 LINE",
"574 13 LINE"
);
}
);
};
layerId = "0B1DFD06-3317-40CA-B510-4969A0718C16";
paths = (
{
closed = 1;
nodes = (
"148 0 LINE",
"148 250 LINE",
"535 700 LINE",
"469 700 LINE",
"148 323 LINE",
"148 700 LINE",
"90 700 LINE",
"90 0 LINE"
);
},
{
closed = 1;
nodes = (
"564 0 LINE",
"287 427 LINE",
"248 386 LINE",
"504 0 LINE"
);
}
);
width = 574;
},
{
anchors = (
{
name = bottom;
position = "{339, 0}";
},
{
name = top;
position = "{339, 700}";
}
);
background = {
paths = (
{
closed = 1;
nodes = (
"248 401 LINE",
"539 692 LINE",
"482 709 LINE",
"134 363 LINE",
"134 700 LINE",
"76 700 LINE",
"76 0 LINE",
"134 0 LINE",
"134 290 LINE",
"209 365 LINE",
"519 -7 LINE",
"570 13 LINE"
);
}
);
};
layerId = "ECFE7DEB-F40D-44C7-B7CF-D3B40F3B51F8";
paths = (
{
closed = 1;
nodes = (
"223 0 LINE",
"223 187 LINE",
"626 700 LINE",
"437 700 LINE",
"223 414 LINE",
"223 700 LINE",
"62 700 LINE",
"62 0 LINE"
);
},
{
closed = 1;
nodes = (
"659 0 LINE",
"404 447 LINE",
"300 313 LINE",
"480 0 LINE"
);
}
);
width = 669;
}
);
note = K;
unicode = 004B;
},
{
color = 4;
glyphname = L;
lastChange = "2018-05-16 09:43:07 +0000";
layers = (
{
anchors = (
{
name = bottom;
position = "{271, 0}";
},
{
name = center;
position = "{317, 350}";
},
{
name = top;
position = "{119, 700}";
},
{
name = topright;
position = "{510, 700}";
}
);
background = {
paths = (
{
closed = 1;
nodes = (
"482 49 LINE",
"138 49 LINE",
"138 700 LINE",
"80 700 LINE",
"80 0 LINE",
"482 0 LINE"
);
}
);
};
layerId = "0B1DFD06-3317-40CA-B510-4969A0718C16";
paths = (
{
closed = 1;
nodes = (
"492 0 LINE",
"492 50 LINE",
"148 50 LINE",
"148 700 LINE",
"90 700 LINE",
"90 0 LINE"
);
}
);
width = 540;
},
{
anchors = (
{
name = bottom;
position = "{299, 0}";
},
{
name = center;
position = "{287, 350}";
},
{
name = top;
position = "{144, 700}";
},
{
name = topright;
position = "{546, 700}";
}
);
background = {
paths = (
{
closed = 1;
nodes = (
"484 49 LINE",
"140 49 LINE",
"140 700 LINE",
"82 700 LINE",
"82 0 LINE",
"484 0 LINE"
);
}
);
};
layerId = "ECFE7DEB-F40D-44C7-B7CF-D3B40F3B51F8";
paths = (
{
closed = 1;
nodes = (
"550 0 LINE",
"550 128 LINE",
"223 128 LINE",
"223 700 LINE",
"62 700 LINE",
"62 0 LINE"
);
}
);
width = 566;
}
);
note = L;
unicode = 004C;
},
{
color = 4;
glyphname = M;
lastChange = "2018-05-16 09:36:51 +0000";
layers = (
{
anchors = (
{
name = bottom;
position = "{394, 0}";
},
{
name = top;
position = "{394, 700}";
}
);
background = {
paths = (
{
closed = 1;
nodes = (
"723 700 LINE",
"656 700 LINE",
"428 72 LINE",
"200 700 LINE",
"132 700 LINE",
"84 0 LINE",
"138 0 LINE",
"182 617 LINE",
"409 0 LINE",
"447 0 LINE",
"673 617 LINE",
"717 0 LINE",
"772 0 LINE"
);
}
);
};
layerId = "0B1DFD06-3317-40CA-B510-4969A0718C16";
paths = (
{
closed = 1;
nodes = (
"146 0 LINE",
"146 659 LINE",
"130 659 LINE",
"375 0 LINE",
"413 0 LINE",
"658 659 LINE",
"642 659 LINE",
"642 0 LINE",
"698 0 LINE",
"698 700 LINE",
"622 700 LINE",
"394 77 LINE",
"166 700 LINE",
"90 700 LINE",
"90 0 LINE"
);
}
);
width = 788;
},
{
anchors = (
{
name = bottom;
position = "{409, 0}";
},
{
name = top;
position = "{409, 700}";
}
);
background = {
paths = (
{
closed = 1;
nodes = (
"716 700 LINE",
"649 700 LINE",
"421 72 LINE",
"193 700 LINE",
"125 700 LINE",
"77 0 LINE",
"131 0 LINE",
"175 617 LINE",
"402 0 LINE",
"440 0 LINE",
"666 617 LINE",
"710 0 LINE",
"765 0 LINE"
);
}
);
};
layerId = "ECFE7DEB-F40D-44C7-B7CF-D3B40F3B51F8";
paths = (
{
closed = 1;
nodes = (
"221 0 LINE",
"221 590 LINE",
"127 590 LINE",
"350 0 LINE",
"468 0 LINE",
"691 590 LINE",
"597 590 LINE",
"597 0 LINE",
"756 0 LINE",
"756 700 LINE",
"590 700 LINE",
"409 225 LINE",
"228 700 LINE",
"62 700 LINE",
"62 0 LINE"
);
}
);
width = 818;
}
);
note = M;
unicode = 004D;
},
{
color = 4;
glyphname = N;
lastChange = "2018-05-16 09:36:55 +0000";
layers = (
{
anchors = (
{
name = bottom;
position = "{335, 0}";
},
{
name = top;
position = "{335, 700}";
}
);
background = {
paths = (
{
closed = 1;
nodes = (
"570 700 LINE",
"514 700 LINE",
"514 90 LINE",
"147 700 LINE",
"80 700 LINE",
"80 0 LINE",
"139 0 LINE",
"139 619 LINE",
"510 0 LINE",
"570 0 LINE"
);
}
);
};
layerId = "0B1DFD06-3317-40CA-B510-4969A0718C16";
paths = (
{
closed = 1;
nodes = (
"146 0 LINE",
"146 658 LINE",
"123 658 LINE",
"520 0 LINE",
"580 0 LINE",
"580 700 LINE",
"524 700 LINE",
"524 51 LINE",
"547 51 LINE",
"157 700 LINE",
"90 700 LINE",
"90 0 LINE"
);
}
);
width = 670;
},
{
anchors = (
{
name = bottom;
position = "{349, 0}";
},
{
name = top;
position = "{349, 700}";
}
);
background = {
paths = (
{
closed = 1;
nodes = (
"569 700 LINE",
"513 700 LINE",
"513 90 LINE",
"146 700 LINE",
"79 700 LINE",
"79 0 LINE",
"138 0 LINE",
"138 619 LINE",
"509 0 LINE",
"569 0 LINE"
);
}
);
};
layerId = "ECFE7DEB-F40D-44C7-B7CF-D3B40F3B51F8";
paths = (
{
closed = 1;
nodes = (
"221 0 LINE",
"221 572 LINE",
"131 573 LINE",
"491 0 LINE",
"636 0 LINE",
"636 700 LINE",
"477 700 LINE",
"477 135 LINE",
"567 135 LINE",
"214 700 LINE",
"62 700 LINE",
"62 0 LINE"
);
}
);
width = 698;
}
);
note = N;
unicode = 004E;
},
{
color = 4;
glyphname = O;
lastChange = "2018-05-16 09:35:42 +0000";
layers = (
{
anchors = (
{
name = bottom;
position = "{325, 0}";
},
{
name = center;
position = "{325, 350}";
},
{
name = ogonek;
position = "{328, 10}";
},
{
name = top;
position = "{325, 700}";
},
{
name = topleft;
position = "{30, 700}";
},
{
name = topright;
position = "{561, 505}";
}
);
background = {
paths = (
{
closed = 1;
nodes = (
"650 548 OFFCURVE",
"528 711 OFFCURVE",
"325 711 CURVE SMOOTH",
"123 711 OFFCURVE",
"0 552 OFFCURVE",
"0 348 CURVE SMOOTH",
"0 147 OFFCURVE",
"123 -15 OFFCURVE",
"325 -15 CURVE SMOOTH",
"525 -15 OFFCURVE",
"650 147 OFFCURVE",
"650 348 CURVE SMOOTH"
);
},
{
closed = 1;
nodes = (
"593 183 OFFCURVE",
"491 35 OFFCURVE",
"325 35 CURVE SMOOTH",
"161 35 OFFCURVE",
"58 181 OFFCURVE",
"58 348 CURVE SMOOTH",
"58 514 OFFCURVE",
"163 662 OFFCURVE",
"325 662 CURVE SMOOTH",
"488 662 OFFCURVE",
"593 515 OFFCURVE",
"593 348 CURVE SMOOTH"
);
}
);
};
layerId = "0B1DFD06-3317-40CA-B510-4969A0718C16";
paths = (
{
closed = 1;
nodes = (
"502 -10 OFFCURVE",
"610 134 OFFCURVE",
"610 350 CURVE SMOOTH",
"610 566 OFFCURVE",
"502 710 OFFCURVE",
"325 710 CURVE SMOOTH",
"141 710 OFFCURVE",
"40 556 OFFCURVE",
"40 350 CURVE SMOOTH",
"40 134 OFFCURVE",
"148 -10 OFFCURVE",
"325 -10 CURVE SMOOTH"
);
},
{
closed = 1;
nodes = (
"183 38 OFFCURVE",
"98 163 OFFCURVE",
"98 350 CURVE SMOOTH",
"98 537 OFFCURVE",
"183 662 OFFCURVE",
"325 662 CURVE SMOOTH",
"467 662 OFFCURVE",
"552 537 OFFCURVE",
"552 350 CURVE SMOOTH",
"552 163 OFFCURVE",
"467 38 OFFCURVE",
"325 38 CURVE SMOOTH"
);
}
);
width = 650;
},
{
anchors = (
{
name = bottom;
position = "{342, 0}";
},
{
name = center;
position = "{342, 350}";
},
{
name = ogonek;
position = "{342, 10}";
},
{
name = top;
position = "{342, 700}";
},
{
name = topleft;
position = "{22, 700}";
},
{
name = topright;
position = "{602, 518}";
}
);
background = {
paths = (
{
closed = 1;
nodes = (
"655 548 OFFCURVE",
"533 711 OFFCURVE",
"330 711 CURVE SMOOTH",
"128 711 OFFCURVE",
"5 552 OFFCURVE",
"5 348 CURVE SMOOTH",
"5 147 OFFCURVE",
"128 -15 OFFCURVE",
"330 -15 CURVE SMOOTH",
"530 -15 OFFCURVE",
"655 147 OFFCURVE",
"655 348 CURVE SMOOTH"
);
},
{
closed = 1;
nodes = (
"598 183 OFFCURVE",
"496 35 OFFCURVE",
"330 35 CURVE SMOOTH",
"166 35 OFFCURVE",
"63 181 OFFCURVE",
"63 348 CURVE SMOOTH",
"63 514 OFFCURVE",
"168 662 OFFCURVE",
"330 662 CURVE SMOOTH",
"493 662 OFFCURVE",
"598 515 OFFCURVE",
"598 348 CURVE SMOOTH"
);
}
);
};
layerId = "ECFE7DEB-F40D-44C7-B7CF-D3B40F3B51F8";
paths = (
{
closed = 1;
nodes = (
"543 -10 OFFCURVE",
"662 124 OFFCURVE",
"662 350 CURVE SMOOTH",
"662 576 OFFCURVE",
"543 710 OFFCURVE",
"342 710 CURVE SMOOTH",
"141 710 OFFCURVE",
"22 576 OFFCURVE",
"22 350 CURVE SMOOTH",
"22 124 OFFCURVE",
"141 -10 OFFCURVE",
"342 -10 CURVE SMOOTH"
);
},
{
closed = 1;
nodes = (
"242 117 OFFCURVE",
"183 205 OFFCURVE",
"183 350 CURVE SMOOTH",
"183 495 OFFCURVE",
"242 583 OFFCURVE",
"342 583 CURVE SMOOTH",
"442 583 OFFCURVE",
"501 495 OFFCURVE",
"501 350 CURVE SMOOTH",
"501 205 OFFCURVE",
"442 117 OFFCURVE",
"342 117 CURVE SMOOTH"
);
}
);
width = 684;
}
);
note = O;
unicode = 004F;
},
{
color = 4;
glyphname = P;
lastChange = "2018-05-16 09:43:07 +0000";
layers = (
{
anchors = (
{
name = bottom;
position = "{282, 0}";
},
{
name = top;
position = "{282, 700}";
}
);
background = {
paths = (
{
closed = 1;
nodes = (
"508 570 OFFCURVE",
"482 622 OFFCURVE",
"427 659 CURVE SMOOTH",
"379 691 OFFCURVE",
"320 707 OFFCURVE",
"249 707 CURVE SMOOTH",
"195 707 OFFCURVE",
"139 703 OFFCURVE",
"80 692 CURVE",
"80 0 LINE",
"138 0 LINE",
"138 294 LINE",
"167 288 OFFCURVE",
"198 285 OFFCURVE",
"229 285 CURVE SMOOTH",
"305 284 OFFCURVE",
"369 301 OFFCURVE",
"420 335 CURVE SMOOTH",
"479 375 OFFCURVE",
"508 432 OFFCURVE",
"508 506 CURVE SMOOTH"
);
},
{
closed = 1;
nodes = (
"454 397 OFFCURVE",
"383 341 OFFCURVE",
"241 334 CURVE",
"198 334 OFFCURVE",
"164 337 OFFCURVE",
"138 344 CURVE",
"138 650 LINE",
"163 654 OFFCURVE",
"199 657 OFFCURVE",
"248 657 CURVE SMOOTH",
"385 657 OFFCURVE",
"454 606 OFFCURVE",
"454 501 CURVE SMOOTH"
);
}
);
};
layerId = "0B1DFD06-3317-40CA-B510-4969A0718C16";
paths = (
{
closed = 1;
nodes = (
"148 0 LINE",
"148 275 LINE",
"274 275 LINE SMOOTH",
"424 275 OFFCURVE",
"503 359 OFFCURVE",
"503 495 CURVE SMOOTH",
"503 631 OFFCURVE",
"423 700 OFFCURVE",
"279 700 CURVE SMOOTH",
"90 700 LINE",
"90 0 LINE"
);
},
{
closed = 1;
nodes = (
"148 650 LINE",
"278 650 LINE SMOOTH",
"387 650 OFFCURVE",
"449 596 OFFCURVE",
"449 490 CURVE SMOOTH",
"449 389 OFFCURVE",
"393 325 OFFCURVE",
"286 325 CURVE SMOOTH",
"148 325 LINE"
);
}
);
width = 563;
},
{
anchors = (
{
name = bottom;
position = "{301, 0}";
},
{
name = top;
position = "{301, 700}";
}
);
background = {
paths = (
{
closed = 1;
nodes = (
"510 570 OFFCURVE",
"484 622 OFFCURVE",
"429 659 CURVE SMOOTH",
"381 691 OFFCURVE",
"322 707 OFFCURVE",
"251 707 CURVE SMOOTH",
"197 707 OFFCURVE",
"141 703 OFFCURVE",
"82 692 CURVE",
"82 0 LINE",
"140 0 LINE",
"140 294 LINE",
"169 288 OFFCURVE",
"200 285 OFFCURVE",
"231 285 CURVE SMOOTH",
"307 284 OFFCURVE",
"371 301 OFFCURVE",
"422 335 CURVE SMOOTH",
"481 375 OFFCURVE",
"510 432 OFFCURVE",
"510 506 CURVE SMOOTH"
);
},
{
closed = 1;
nodes = (
"456 397 OFFCURVE",
"385 341 OFFCURVE",
"243 334 CURVE",
"200 334 OFFCURVE",
"166 337 OFFCURVE",
"140 344 CURVE",
"140 650 LINE",
"165 654 OFFCURVE",
"201 657 OFFCURVE",
"250 657 CURVE SMOOTH",
"387 657 OFFCURVE",
"456 606 OFFCURVE",
"456 501 CURVE SMOOTH"
);
}
);
};
layerId = "ECFE7DEB-F40D-44C7-B7CF-D3B40F3B51F8";
paths = (
{
closed = 1;
nodes = (
"223 0 LINE",
"223 233 LINE",
"299 233 LINE SMOOTH",
"471 233 OFFCURVE",
"561 315 OFFCURVE",
"561 473 CURVE SMOOTH",
"561 622 OFFCURVE",
"472 700 OFFCURVE",
"304 700 CURVE SMOOTH",
"62 700 LINE",
"62 0 LINE"
);
},
{
closed = 1;
nodes = (
"223 572 LINE",
"303 572 LINE SMOOTH",
"369 572 OFFCURVE",
"404 537 OFFCURVE",
"404 469 CURVE SMOOTH",
"404 397 OFFCURVE",
"371 360 OFFCURVE",
"310 360 CURVE SMOOTH",
"223 360 LINE"
);
}
);
width = 592;
}
);
note = P;
unicode = 0050;
},
{
color = 4;
glyphname = Q;
lastChange = "2018-05-16 09:43:34 +0000";
layers = (
{
anchors = (
{
name = bottom;
position = "{305, 0}";
},
{
name = top;
position = "{305, 700}";
}
);
background = {
paths = (
{
closed = 1;
nodes = (
"662 453 OFFCURVE",
"631 539 OFFCURVE",
"571 609 CURVE SMOOTH",
"511 678 OFFCURVE",
"433 711 OFFCURVE",
"337 711 CURVE SMOOTH",
"242 711 OFFCURVE",
"162 678 OFFCURVE",
"102 609 CURVE SMOOTH",
"42 539 OFFCURVE",
"12 453 OFFCURVE",
"12 348 CURVE SMOOTH",
"12 244 OFFCURVE",
"42 157 OFFCURVE",
"102 88 CURVE SMOOTH",
"162 19 OFFCURVE",
"242 -15 OFFCURVE",
"337 -15 CURVE",
"418 -49 OFFCURVE",
"506 -76 OFFCURVE",
"603 -98 CURVE",
"624 -44 LINE",
"549 -40 OFFCURVE",
"481 -26 OFFCURVE",
"424 -1 CURVE",
"499 18 OFFCURVE",
"558 60 OFFCURVE",
"600 126 CURVE SMOOTH",
"642 190 OFFCURVE",
"662 265 OFFCURVE",
"662 348 CURVE SMOOTH"
);
},
{
closed = 1;
nodes = (
"605 262 OFFCURVE",
"580 188 OFFCURVE",
"530 126 CURVE SMOOTH",
"480 66 OFFCURVE",
"415 35 OFFCURVE",
"337 35 CURVE SMOOTH",
"259 35 OFFCURVE",
"195 66 OFFCURVE",
"145 126 CURVE SMOOTH",
"95 188 OFFCURVE",
"70 262 OFFCURVE",
"70 348 CURVE SMOOTH",
"70 435 OFFCURVE",
"95 509 OFFCURVE",
"145 569 CURVE SMOOTH",
"195 631 OFFCURVE",
"259 662 OFFCURVE",
"337 662 CURVE SMOOTH",
"415 662 OFFCURVE",
"480 631 OFFCURVE",
"530 569 CURVE SMOOTH",
"580 509 OFFCURVE",
"605 435 OFFCURVE",
"605 348 CURVE SMOOTH"
);
}
);
};
components = (
{
name = O;
}
);
layerId = "0B1DFD06-3317-40CA-B510-4969A0718C16";
paths = (
{
closed = 1;
nodes = (
"580 -55 LINE",
"495 -41 OFFCURVE",
"429 -22 OFFCURVE",
"370 7 CURVE",
"290 -3 LINE",
"372 -45 OFFCURVE",
"464 -80 OFFCURVE",
"570 -98 CURVE"
);
}
);
width = 650;
},
{
anchors = (
{
name = bottom;
position = "{323, 0}";
},
{
name = top;
position = "{323, 700}";
}
);
background = {
paths = (
{
closed = 1;
nodes = (
"669 453 OFFCURVE",
"638 539 OFFCURVE",
"578 609 CURVE SMOOTH",
"518 678 OFFCURVE",
"440 711 OFFCURVE",
"344 711 CURVE SMOOTH",
"249 711 OFFCURVE",
"169 678 OFFCURVE",
"109 609 CURVE SMOOTH",
"49 539 OFFCURVE",
"19 453 OFFCURVE",
"19 348 CURVE SMOOTH",
"19 244 OFFCURVE",
"49 157 OFFCURVE",
"109 88 CURVE SMOOTH",
"169 19 OFFCURVE",
"249 -15 OFFCURVE",
"344 -15 CURVE",
"425 -49 OFFCURVE",
"513 -76 OFFCURVE",
"610 -98 CURVE",
"631 -44 LINE",
"556 -40 OFFCURVE",
"488 -26 OFFCURVE",
"431 -1 CURVE",
"506 18 OFFCURVE",
"565 60 OFFCURVE",
"607 126 CURVE SMOOTH",
"649 190 OFFCURVE",
"669 265 OFFCURVE",
"669 348 CURVE SMOOTH"
);
},
{
closed = 1;
nodes = (
"612 262 OFFCURVE",
"587 188 OFFCURVE",
"537 126 CURVE SMOOTH",
"487 66 OFFCURVE",
"422 35 OFFCURVE",
"344 35 CURVE SMOOTH",
"266 35 OFFCURVE",
"202 66 OFFCURVE",
"152 126 CURVE SMOOTH",
"102 188 OFFCURVE",
"77 262 OFFCURVE",
"77 348 CURVE SMOOTH",
"77 435 OFFCURVE",
"102 509 OFFCURVE",
"152 569 CURVE SMOOTH",
"202 631 OFFCURVE",
"266 662 OFFCURVE",
"344 662 CURVE SMOOTH",
"422 662 OFFCURVE",
"487 631 OFFCURVE",
"537 569 CURVE SMOOTH",
"587 509 OFFCURVE",
"612 435 OFFCURVE",
"612 348 CURVE SMOOTH"
);
}
);
};
components = (
{
name = O;
}
);
layerId = "ECFE7DEB-F40D-44C7-B7CF-D3B40F3B51F8";
paths = (
{
closed = 1;
nodes = (
"666 -27 LINE",
"578 -27 OFFCURVE",
"476 -16 OFFCURVE",
"404 19 CURVE",
"252 3 LINE",
"325 -64 OFFCURVE",
"499 -132 OFFCURVE",
"641 -136 CURVE"
);
}
);
width = 688;
}
);
leftMetricsKey = O;
note = Q;
rightMetricsKey = O;
unicode = 0051;
},
{
color = 4;
glyphname = R;
lastChange = "2018-05-16 09:37:01 +0000";
layers = (
{
anchors = (
{
name = bottom;
position = "{287, 0}";
},
{
name = top;
position = "{287, 700}";
}
);
background = {
paths = (
{
closed = 1;
nodes = (
"526 0 LINE",
"515 79 OFFCURVE",
"503 140 OFFCURVE",
"490 179 CURVE SMOOTH",
"463 257 OFFCURVE",
"423 310 OFFCURVE",
"372 338 CURVE",
"462 372 OFFCURVE",
"507 432 OFFCURVE",
"507 519 CURVE SMOOTH",
"507 582 OFFCURVE",
"482 629 OFFCURVE",
"431 663 CURVE SMOOTH",
"387 691 OFFCURVE",
"326 706 OFFCURVE",
"251 707 CURVE SMOOTH",
"191 707 OFFCURVE",
"134 701 OFFCURVE",
"79 691 CURVE",
"79 0 LINE",
"137 0 LINE",
"137 319 LINE",
"272 319 LINE SMOOTH",
"378 319 OFFCURVE",
"444 213 OFFCURVE",
"470 0 CURVE"
);
},
{
closed = 1;
nodes = (
"453 419 OFFCURVE",
"384 365 OFFCURVE",
"268 365 CURVE SMOOTH",
"137 365 LINE",
"137 647 LINE",
"159 654 OFFCURVE",
"197 657 OFFCURVE",
"251 657 CURVE SMOOTH",
"385 657 OFFCURVE",
"453 609 OFFCURVE",
"453 512 CURVE SMOOTH"
);
}
);
};
layerId = "0B1DFD06-3317-40CA-B510-4969A0718C16";
paths = (
{
closed = 1;
nodes = (
"148 0 LINE",
"148 322 LINE",
"242 322 LINE SMOOTH",
"317 322 OFFCURVE",
"345 300 OFFCURVE",
"371 234 CURVE SMOOTH",
"463 0 LINE",
"527 0 LINE",
"421 260 LINE SMOOTH",
"407 294 OFFCURVE",
"388 320 OFFCURVE",
"358 335 CURVE",
"358 337 LINE",
"439 354 OFFCURVE",
"503 414 OFFCURVE",
"503 519 CURVE SMOOTH",
"503 640 OFFCURVE",
"432 700 OFFCURVE",
"284 700 CURVE SMOOTH",
"90 700 LINE",
"90 0 LINE"
);
},
{
closed = 1;
nodes = (
"148 650 LINE",
"283 650 LINE SMOOTH",
"395 650 OFFCURVE",
"449 608 OFFCURVE",
"449 520 CURVE SMOOTH",
"449 421 OFFCURVE",
"396 372 OFFCURVE",
"286 372 CURVE SMOOTH",
"148 372 LINE"
);
}
);
width = 573;
},
{
anchors = (
{
name = bottom;
position = "{299, 0}";
},
{
name = top;
position = "{299, 700}";
}
);
background = {
paths = (
{
closed = 1;
nodes = (
"526 0 LINE",
"515 79 OFFCURVE",
"503 140 OFFCURVE",
"490 179 CURVE SMOOTH",
"463 257 OFFCURVE",
"423 310 OFFCURVE",
"372 338 CURVE",
"462 372 OFFCURVE",
"507 432 OFFCURVE",
"507 519 CURVE SMOOTH",
"507 582 OFFCURVE",
"482 629 OFFCURVE",
"431 663 CURVE SMOOTH",
"387 691 OFFCURVE",
"326 706 OFFCURVE",
"251 707 CURVE SMOOTH",
"191 707 OFFCURVE",
"134 701 OFFCURVE",
"79 691 CURVE",
"79 0 LINE",
"137 0 LINE",
"137 319 LINE",
"272 319 LINE SMOOTH",
"378 319 OFFCURVE",
"444 213 OFFCURVE",
"470 0 CURVE"
);
},
{
closed = 1;
nodes = (
"453 419 OFFCURVE",
"384 365 OFFCURVE",
"268 365 CURVE SMOOTH",
"137 365 LINE",
"137 647 LINE",
"159 654 OFFCURVE",
"197 657 OFFCURVE",
"251 657 CURVE SMOOTH",
"385 657 OFFCURVE",
"453 609 OFFCURVE",
"453 512 CURVE SMOOTH"
);
}
);
};
layerId = "ECFE7DEB-F40D-44C7-B7CF-D3B40F3B51F8";
paths = (
{
closed = 1;
nodes = (
"223 0 LINE",
"223 255 LINE",
"260 255 LINE SMOOTH",
"320 255 OFFCURVE",
"337 246 OFFCURVE",
"351 209 CURVE SMOOTH",
"429 0 LINE",
"599 0 LINE",
"497 259 LINE SMOOTH",
"490 276 OFFCURVE",
"479 291 OFFCURVE",
"453 310 CURVE",
"453 312 LINE",
"520 343 OFFCURVE",
"560 407 OFFCURVE",
"560 502 CURVE SMOOTH",
"560 635 OFFCURVE",
"480 700 OFFCURVE",
"319 700 CURVE SMOOTH",
"62 700 LINE",
"62 0 LINE"
);
},
{
closed = 1;
nodes = (
"223 572 LINE",
"299 572 LINE SMOOTH",
"359 572 OFFCURVE",
"403 551 OFFCURVE",
"403 481 CURVE SMOOTH",
"403 419 OFFCURVE",
"368 382 OFFCURVE",
"301 382 CURVE SMOOTH",
"223 382 LINE"
);
}
);
width = 597;
}
);
note = R;
unicode = 0052;
},
{
color = 4;
glyphname = S;
lastChange = "2018-05-16 09:35:42 +0000";
layers = (
{
anchors = (
{
name = bottom;
position = "{261, 0}";
},
{
name = top;
position = "{261, 700}";
}
);
layerId = "0B1DFD06-3317-40CA-B510-4969A0718C16";
paths = (
{
closed = 1;
nodes = (
"387 -10 OFFCURVE",
"471 64 OFFCURVE",
"471 175 CURVE SMOOTH",
"471 291 OFFCURVE",
"386 342 OFFCURVE",
"301 384 CURVE SMOOTH",
"215 427 OFFCURVE",
"128 460 OFFCURVE",
"128 544 CURVE SMOOTH",
"128 614 OFFCURVE",
"183 660 OFFCURVE",
"266 660 CURVE SMOOTH",
"327 660 OFFCURVE",
"389 627 OFFCURVE",
"421 577 CURVE",
"460 605 LINE",
"427 668 OFFCURVE",
"350 710 OFFCURVE",
"268 710 CURVE SMOOTH",
"149 710 OFFCURVE",
"70 644 OFFCURVE",
"70 540 CURVE SMOOTH",
"70 430 OFFCURVE",
"168 389 OFFCURVE",
"259 344 CURVE SMOOTH",
"339 304 OFFCURVE",
"413 262 OFFCURVE",
"413 169 CURVE SMOOTH",
"413 92 OFFCURVE",
"352 40 OFFCURVE",
"260 40 CURVE SMOOTH",
"193 40 OFFCURVE",
"125 76 OFFCURVE",
"87 128 CURVE",
"50 89 LINE",
"92 30 OFFCURVE",
"173 -10 OFFCURVE",
"257 -10 CURVE SMOOTH"
);
}
);
width = 521;
},
{
anchors = (
{
name = bottom;
position = "{273, 0}";
},
{
name = top;
position = "{273, 700}";
}
);
layerId = "ECFE7DEB-F40D-44C7-B7CF-D3B40F3B51F8";
paths = (
{
closed = 1;
nodes = (
"423 -9 OFFCURVE",
"525 73 OFFCURVE",
"525 197 CURVE SMOOTH",
"525 290 OFFCURVE",
"468 352 OFFCURVE",
"333 417 CURVE SMOOTH",
"224 469 OFFCURVE",
"203 483 OFFCURVE",
"203 520 CURVE SMOOTH",
"203 559 OFFCURVE",
"236 581 OFFCURVE",
"290 581 CURVE SMOOTH",
"335 581 OFFCURVE",
"374 562 OFFCURVE",
"407 523 CURVE",
"508 599 LINE",
"471 669 OFFCURVE",
"387 709 OFFCURVE",
"282 709 CURVE SMOOTH",
"138 709 OFFCURVE",
"42 634 OFFCURVE",
"42 522 CURVE SMOOTH",
"42 434 OFFCURVE",
"107 362 OFFCURVE",
"247 292 CURVE SMOOTH",
"346 243 OFFCURVE",
"366 229 OFFCURVE",
"366 188 CURVE SMOOTH",
"366 145 OFFCURVE",
"331 119 OFFCURVE",
"274 119 CURVE SMOOTH",
"220 119 OFFCURVE",
"152 156 OFFCURVE",
"108 208 CURVE",
"15 120 LINE",
"70 36 OFFCURVE",
"160 -9 OFFCURVE",
"269 -9 CURVE SMOOTH"
);
}
);
width = 545;
}
);
note = S;
unicode = 0053;
},
{
color = 4;
glyphname = T;
lastChange = "2018-05-16 09:35:42 +0000";
layers = (
{
anchors = (
{
name = bottom;
position = "{269, 0}";
},
{
name = center;
position = "{269, 350}";
},
{
name = top;
position = "{269, 700}";
}
);
background = {
paths = (
{
closed = 1;
nodes = (
"544 700 LINE",
"-27 700 LINE",
"-27 651 LINE",
"231 651 LINE",
"231 0 LINE",
"287 0 LINE",
"287 651 LINE",
"544 651 LINE"
);
}
);
};
layerId = "0B1DFD06-3317-40CA-B510-4969A0718C16";
paths = (
{
closed = 1;
nodes = (
"298 0 LINE",
"298 650 LINE",
"518 650 LINE",
"518 700 LINE",
"20 700 LINE",
"20 650 LINE",
"240 650 LINE",
"240 0 LINE"
);
}
);
width = 538;
},
{
anchors = (
{
name = bottom;
position = "{299, 0}";
},
{
name = center;
position = "{299, 350}";
},
{
name = top;
position = "{299, 700}";
}
);
background = {
paths = (
{
closed = 1;
nodes = (
"562 700 LINE",
"-9 700 LINE",
"-9 651 LINE",
"249 651 LINE",
"249 0 LINE",
"305 0 LINE",
"305 651 LINE",
"562 651 LINE"
);
}
);
};
layerId = "ECFE7DEB-F40D-44C7-B7CF-D3B40F3B51F8";
paths = (
{
closed = 1;
nodes = (
"380 0 LINE",
"380 583 LINE",
"586 583 LINE",
"586 700 LINE",
"12 700 LINE",
"12 583 LINE",
"218 583 LINE",
"218 0 LINE"
);
}
);
width = 598;
}
);
note = T;
unicode = 0054;
},
{
color = 4;
glyphname = U;
lastChange = "2018-05-16 09:35:42 +0000";
layers = (
{
anchors = (
{
name = bottom;
position = "{328, 0}";
},
{
name = ogonek;
position = "{355, 0}";
},
{
name = top;
position = "{328, 700}";
},
{
name = topright;
position = "{564, 505}";
}
);
background = {
paths = (
{
closed = 1;
nodes = (
"607 700 LINE",
"549 700 LINE",
"549 297 LINE SMOOTH",
"551 113 OFFCURVE",
"468 35 OFFCURVE",
"344 35 CURVE SMOOTH",
"220 35 OFFCURVE",
"138 113 OFFCURVE",
"138 297 CURVE SMOOTH",
"138 700 LINE",
"80 700 LINE",
"80 295 LINE SMOOTH",
"80 90 OFFCURVE",
"169 -13 OFFCURVE",
"344 -13 CURVE SMOOTH",
"518 -13 OFFCURVE",
"607 90 OFFCURVE",
"607 295 CURVE SMOOTH"
);
}
);
};
layerId = "0B1DFD06-3317-40CA-B510-4969A0718C16";
paths = (
{
closed = 1;
nodes = (
"488 -10 OFFCURVE",
"566 88 OFFCURVE",
"566 275 CURVE SMOOTH",
"566 700 LINE",
"508 700 LINE",
"508 277 LINE SMOOTH",
"508 121 OFFCURVE",
"450 40 OFFCURVE",
"328 40 CURVE SMOOTH",
"206 40 OFFCURVE",
"148 121 OFFCURVE",
"148 277 CURVE SMOOTH",
"148 700 LINE",
"90 700 LINE",
"90 275 LINE SMOOTH",
"90 88 OFFCURVE",
"168 -10 OFFCURVE",
"328 -10 CURVE SMOOTH"
);
}
);
width = 656;
},
{
anchors = (
{
name = bottom;
position = "{330, 0}";
},
{
name = ogonek;
position = "{338, 10}";
},
{
name = top;
position = "{330, 700}";
},
{
name = topright;
position = "{575, 529}";
}
);
background = {
paths = (
{
closed = 1;
nodes = (
"597 700 LINE",
"539 700 LINE",
"539 297 LINE SMOOTH",
"541 113 OFFCURVE",
"458 35 OFFCURVE",
"334 35 CURVE SMOOTH",
"210 35 OFFCURVE",
"128 113 OFFCURVE",
"128 297 CURVE SMOOTH",
"128 700 LINE",
"70 700 LINE",
"70 295 LINE SMOOTH",
"70 90 OFFCURVE",
"159 -13 OFFCURVE",
"334 -13 CURVE SMOOTH",
"508 -13 OFFCURVE",
"597 90 OFFCURVE",
"597 295 CURVE SMOOTH"
);
}
);
};
layerId = "ECFE7DEB-F40D-44C7-B7CF-D3B40F3B51F8";
paths = (
{
closed = 1;
nodes = (
"512 -10 OFFCURVE",
"608 87 OFFCURVE",
"608 272 CURVE SMOOTH",
"608 700 LINE",
"447 700 LINE",
"447 274 LINE SMOOTH",
"447 171 OFFCURVE",
"407 118 OFFCURVE",
"330 118 CURVE SMOOTH",
"253 118 OFFCURVE",
"213 171 OFFCURVE",
"213 274 CURVE SMOOTH",
"213 700 LINE",
"52 700 LINE",
"52 272 LINE SMOOTH",
"52 87 OFFCURVE",
"148 -10 OFFCURVE",
"330 -10 CURVE SMOOTH"
);
}
);
width = 660;
}
);
note = U;
unicode = 0055;
},
{
color = 4;
glyphname = V;
lastChange = "2018-05-16 09:35:42 +0000";
layers = (
{
anchors = (
{
name = bottom;
position = "{287, 0}";
},
{
name = top;
position = "{287, 700}";
}
);
background = {
paths = (
{
closed = 1;
nodes = (
"519 700 LINE",
"297 66 LINE",
"75 700 LINE",
"10 700 LINE",
"266 0 LINE",
"328 0 LINE",
"583 700 LINE"
);
}
);
};
layerId = "0B1DFD06-3317-40CA-B510-4969A0718C16";
paths = (
{
closed = 1;
nodes = (
"318 0 LINE",
"554 700 LINE",
"491 700 LINE",
"273 23 LINE",
"301 23 LINE",
"83 700 LINE",
"20 700 LINE",
"256 0 LINE"
);
}
);
width = 574;
},
{
anchors = (
{
name = bottom;
position = "{329, 0}";
},
{
name = top;
position = "{329, 700}";
}
);
background = {
paths = (
{
closed = 1;
nodes = (
"549 700 LINE",
"327 66 LINE",
"105 700 LINE",
"40 700 LINE",
"296 0 LINE",
"358 0 LINE",
"613 700 LINE"
);
}
);
};
layerId = "ECFE7DEB-F40D-44C7-B7CF-D3B40F3B51F8";
paths = (
{
closed = 1;
nodes = (
"401 0 LINE",
"646 700 LINE",
"478 700 LINE",
"288 106 LINE",
"370 106 LINE",
"180 700 LINE",
"12 700 LINE",
"257 0 LINE"
);
}
);
width = 658;
}
);
note = V;
unicode = 0056;
},
{
color = 4;
glyphname = W;
lastChange = "2018-05-16 09:35:42 +0000";
layers = (
{
anchors = (
{
name = bottom;
position = "{402, 0}";
},
{
name = top;
position = "{402, 700}";
}
);
background = {
paths = (
{
closed = 1;
nodes = (
"760 700 LINE",
"582 66 LINE",
"425 700 LINE",
"360 700 LINE",
"203 66 LINE",
"25 700 LINE",
"-40 700 LINE",
"172 0 LINE",
"233 0 LINE",
"392 635 LINE",
"551 0 LINE",
"613 0 LINE",
"824 700 LINE"
);
}
);
};
layerId = "0B1DFD06-3317-40CA-B510-4969A0718C16";
paths = (
{
closed = 1;
nodes = (
"235 0 LINE",
"414 671 LINE",
"390 671 LINE",
"569 0 LINE",
"630 0 LINE",
"774 700 LINE",
"711 700 LINE",
"591 29 LINE",
"610 29 LINE",
"434 700 LINE",
"370 700 LINE",
"194 29 LINE",
"213 29 LINE",
"93 700 LINE",
"30 700 LINE",
"174 0 LINE"
);
}
);
width = 804;
},
{
anchors = (
{
name = bottom;
position = "{442, 0}";
},
{
name = top;
position = "{442, 700}";
}
);
background = {
paths = (
{
closed = 1;
nodes = (
"778 700 LINE",
"600 66 LINE",
"443 700 LINE",
"378 700 LINE",
"221 66 LINE",
"43 700 LINE",
"-22 700 LINE",
"190 0 LINE",
"251 0 LINE",
"410 635 LINE",
"569 0 LINE",
"631 0 LINE",
"842 700 LINE"
);
}
);
};
layerId = "ECFE7DEB-F40D-44C7-B7CF-D3B40F3B51F8";
paths = (
{
closed = 1;
nodes = (
"322 0 LINE",
"474 590 LINE",
"410 590 LINE",
"562 0 LINE",
"714 0 LINE",
"862 700 LINE",
"691 700 LINE",
"592 110 LINE",
"667 110 LINE",
"517 700 LINE",
"367 700 LINE",
"217 110 LINE",
"292 110 LINE",
"193 700 LINE",
"22 700 LINE",
"170 0 LINE"
);
}
);
width = 884;
}
);
note = W;
unicode = 0057;
},
{
color = 4;
glyphname = X;
lastChange = "2018-05-16 09:35:42 +0000";
layers = (
{
anchors = (
{
name = bottom;
position = "{287, 0}";
},
{
name = top;
position = "{287, 700}";
}
);
background = {
paths = (
{
closed = 1;
nodes = (
"311 359 LINE",
"549 700 LINE",
"480 700 LINE",
"277 394 LINE",
"74 700 LINE",
"5 700 LINE",
"243 359 LINE",
"-5 0 LINE",
"63 0 LINE",
"277 316 LINE",
"492 0 LINE",
"559 0 LINE"
);
}
);
};
layerId = "0B1DFD06-3317-40CA-B510-4969A0718C16";
paths = (
{
closed = 1;
nodes = (
"108 0 LINE",
"287 316 LINE",
"467 0 LINE",
"534 0 LINE",
"321 359 LINE",
"524 700 LINE",
"455 700 LINE",
"287 394 LINE",
"119 700 LINE",
"50 700 LINE",
"253 359 LINE",
"40 0 LINE"
);
}
);
width = 574;
},
{
anchors = (
{
name = bottom;
position = "{334, 0}";
},
{
name = top;
position = "{334, 700}";
}
);
background = {
paths = (
{
closed = 1;
nodes = (
"346 359 LINE",
"584 700 LINE",
"515 700 LINE",
"312 394 LINE",
"109 700 LINE",
"40 700 LINE",
"278 359 LINE",
"30 0 LINE",
"98 0 LINE",
"312 316 LINE",
"527 0 LINE",
"594 0 LINE"
);
}
);
};
layerId = "ECFE7DEB-F40D-44C7-B7CF-D3B40F3B51F8";
paths = (
{
closed = 1;
nodes = (
"201 0 LINE",
"334 223 LINE",
"468 0 LINE",
"646 0 LINE",
"427 358 LINE",
"637 700 LINE",
"456 700 LINE",
"334 489 LINE",
"212 700 LINE",
"31 700 LINE",
"241 358 LINE",
"22 0 LINE"
);
}
);
width = 668;
}
);
note = X;
unicode = 0058;
},
{
color = 4;
glyphname = Y;
lastChange = "2018-05-16 09:35:42 +0000";
layers = (
{
anchors = (
{
name = bottom;
position = "{269, 0}";
},
{
name = top;
position = "{269, 700}";
},
{
name = topleft;
position = "{30, 700}";
}
);
background = {
paths = (
{
closed = 1;
nodes = (
"462 700 LINE",
"259 357 LINE",
"56 700 LINE",
"-10 700 LINE",
"231 307 LINE",
"231 0 LINE",
"287 0 LINE",
"287 309 LINE",
"528 700 LINE"
);
}
);
};
layerId = "0B1DFD06-3317-40CA-B510-4969A0718C16";
paths = (
{
closed = 1;
nodes = (
"298 0 LINE",
"298 277 LINE",
"518 700 LINE",
"452 700 LINE",
"269 327 LINE",
"86 700 LINE",
"20 700 LINE",
"240 277 LINE",
"240 0 LINE"
);
}
);
width = 538;
},
{
anchors = (
{
name = bottom;
position = "{321, 0}";
},
{
name = top;
position = "{321, 700}";
},
{
name = topleft;
position = "{62, 700}";
}
);
background = {
paths = (
{
closed = 1;
nodes = (
"502 700 LINE",
"299 357 LINE",
"96 700 LINE",
"30 700 LINE",
"271 307 LINE",
"271 0 LINE",
"327 0 LINE",
"327 309 LINE",
"568 700 LINE"
);
}
);
};
layerId = "ECFE7DEB-F40D-44C7-B7CF-D3B40F3B51F8";
paths = (
{
closed = 1;
nodes = (
"402 0 LINE",
"402 280 LINE",
"630 700 LINE",
"456 700 LINE",
"321 444 LINE",
"186 700 LINE",
"12 700 LINE",
"240 280 LINE",
"240 0 LINE"
);
}
);
width = 642;
}
);
note = Y;
unicode = 0059;
},
{
color = 4;
glyphname = Z;
lastChange = "2018-05-16 09:35:42 +0000";
layers = (
{
anchors = (
{
name = bottom;
position = "{276, 0}";
},
{
name = top;
position = "{276, 700}";
}
);
background = {
paths = (
{
closed = 1;
nodes = (
"105 49 LINE",
"579 660 LINE",
"579 700 LINE",
"69 700 LINE",
"60 651 LINE",
"505 651 LINE",
"30 38 LINE",
"30 0 LINE",
"586 0 LINE",
"598 49 LINE"
);
}
);
};
layerId = "0B1DFD06-3317-40CA-B510-4969A0718C16";
paths = (
{
closed = 1;
nodes = (
"512 0 LINE",
"512 50 LINE",
"110 50 LINE",
"499 660 LINE",
"499 700 LINE",
"70 700 LINE",
"70 650 LINE",
"430 650 LINE",
"40 38 LINE",
"40 0 LINE"
);
}
);
width = 552;
},
{
anchors = (
{
name = bottom;
position = "{298, 0}";
},
{
name = top;
position = "{298, 700}";
}
);
background = {
paths = (
{
closed = 1;
nodes = (
"115 49 LINE",
"589 660 LINE",
"589 700 LINE",
"79 700 LINE",
"70 651 LINE",
"515 651 LINE",
"40 38 LINE",
"40 0 LINE",
"596 0 LINE",
"608 49 LINE"
);
}
);
};
layerId = "ECFE7DEB-F40D-44C7-B7CF-D3B40F3B51F8";
paths = (
{
closed = 1;
nodes = (
"574 0 LINE",
"574 128 LINE",
"228 128 LINE",
"561 622 LINE",
"561 700 LINE",
"50 700 LINE",
"50 572 LINE",
"359 572 LINE",
"22 76 LINE",
"22 0 LINE"
);
}
);
width = 596;
}
);
note = Z;
unicode = 005A;
},
{
color = 4;
glyphname = a;
lastChange = "2018-05-16 09:35:42 +0000";
layers = (
{
anchors = (
{
name = bottom;
position = "{222, 0}";
},
{
name = ogonek;
position = "{413, 10}";
},
{
name = top;
position = "{251, 500}";
}
);
background = {
paths = (
{
closed = 1;
nodes = (
"447 0 LINE",
"435 40 OFFCURVE",
"429 81 OFFCURVE",
"429 122 CURVE SMOOTH",
"429 301 LINE SMOOTH",
"429 441 OFFCURVE",
"366 510 OFFCURVE",
"240 510 CURVE SMOOTH",
"181 510 OFFCURVE",
"123 501 OFFCURVE",
"69 484 CURVE",
"76 431 LINE",
"148 453 OFFCURVE",
"201 465 OFFCURVE",
"235 465 CURVE SMOOTH",
"290 465 OFFCURVE",
"328 445 OFFCURVE",
"350 406 CURVE SMOOTH",
"365 381 OFFCURVE",
"372 353 OFFCURVE",
"372 320 CURVE SMOOTH",
"372 312 LINE",
"363 312 LINE SMOOTH",
"147 312 OFFCURVE",
"38 250 OFFCURVE",
"38 125 CURVE SMOOTH",
"38 38 OFFCURVE",
"110 -13 OFFCURVE",
"197 -13 CURVE SMOOTH",
"270 -13 OFFCURVE",
"329 15 OFFCURVE",
"375 71 CURVE",
"395 -10 LINE"
);
},
{
closed = 1;
nodes = (
"372 162 LINE SMOOTH",
"372 154 OFFCURVE",
"369 144 OFFCURVE",
"365 134 CURVE SMOOTH",
"334 68 OFFCURVE",
"279 35 OFFCURVE",
"201 35 CURVE SMOOTH",
"143 35 OFFCURVE",
"98 71 OFFCURVE",
"98 135 CURVE SMOOTH",
"98 219 OFFCURVE",
"190 262 OFFCURVE",
"372 262 CURVE"
);
}
);
};
layerId = "0B1DFD06-3317-40CA-B510-4969A0718C16";
paths = (
{
closed = 1;
nodes = (
"282 -10 OFFCURVE",
"341 21 OFFCURVE",
"378 77 CURVE",
"380 77 LINE",
"383 47 OFFCURVE",
"387 18 OFFCURVE",
"393 0 CURVE",
"440 0 LINE",
"434 29 OFFCURVE",
"429 60 OFFCURVE",
"429 92 CURVE SMOOTH",
"429 335 LINE SMOOTH",
"429 441 OFFCURVE",
"366 510 OFFCURVE",
"245 510 CURVE SMOOTH",
"165 510 OFFCURVE",
"104 476 OFFCURVE",
"67 419 CURVE",
"101 382 LINE",
"131 432 OFFCURVE",
"181 462 OFFCURVE",
"241 462 CURVE SMOOTH",
"327 462 OFFCURVE",
"373 415 OFFCURVE",
"373 326 CURVE SMOOTH",
"373 296 LINE",
"253 296 LINE SMOOTH",
"121 296 OFFCURVE",
"48 238 OFFCURVE",
"48 140 CURVE SMOOTH",
"48 48 OFFCURVE",
"119 -10 OFFCURVE",
"214 -10 CURVE SMOOTH"
);
},
{
closed = 1;
nodes = (
"150 38 OFFCURVE",
"102 77 OFFCURVE",
"102 140 CURVE SMOOTH",
"102 210 OFFCURVE",
"155 252 OFFCURVE",
"250 252 CURVE SMOOTH",
"373 252 LINE",
"373 162 LINE SMOOTH",
"373 107 OFFCURVE",
"316 38 OFFCURVE",
"215 38 CURVE SMOOTH"
);
}
);
width = 506;
},
{
anchors = (
{
name = bottom;
position = "{263, 0}";
},
{
name = ogonek;
position = "{430, 10}";
},
{
name = top;
position = "{265, 500}";
}
);
background = {
paths = (
{
closed = 1;
nodes = (
"447 0 LINE",
"435 40 OFFCURVE",
"429 81 OFFCURVE",
"429 122 CURVE SMOOTH",
"429 301 LINE SMOOTH",
"429 441 OFFCURVE",
"366 510 OFFCURVE",
"240 510 CURVE SMOOTH",
"181 510 OFFCURVE",
"123 501 OFFCURVE",
"69 484 CURVE",
"76 431 LINE",
"148 453 OFFCURVE",
"201 465 OFFCURVE",
"235 465 CURVE SMOOTH",
"290 465 OFFCURVE",
"328 445 OFFCURVE",
"350 406 CURVE SMOOTH",
"365 381 OFFCURVE",
"372 353 OFFCURVE",
"372 320 CURVE SMOOTH",
"372 312 LINE",
"363 312 LINE SMOOTH",
"147 312 OFFCURVE",
"38 250 OFFCURVE",
"38 125 CURVE SMOOTH",
"38 38 OFFCURVE",
"110 -13 OFFCURVE",
"197 -13 CURVE SMOOTH",
"270 -13 OFFCURVE",
"329 15 OFFCURVE",
"375 71 CURVE",
"395 -10 LINE"
);
},
{
closed = 1;
nodes = (
"372 162 LINE SMOOTH",
"372 154 OFFCURVE",
"369 144 OFFCURVE",
"365 134 CURVE SMOOTH",
"334 68 OFFCURVE",
"279 35 OFFCURVE",
"201 35 CURVE SMOOTH",
"143 35 OFFCURVE",
"98 71 OFFCURVE",
"98 135 CURVE SMOOTH",
"98 219 OFFCURVE",
"190 262 OFFCURVE",
"372 262 CURVE"
);
}
);
};
layerId = "ECFE7DEB-F40D-44C7-B7CF-D3B40F3B51F8";
paths = (
{
closed = 1;
nodes = (
"260 -10 OFFCURVE",
"309 11 OFFCURVE",
"347 56 CURVE",
"349 56 LINE",
"352 26 OFFCURVE",
"356 16 OFFCURVE",
"363 0 CURVE",
"490 0 LINE",
"484 23 OFFCURVE",
"477 75 OFFCURVE",
"477 108 CURVE SMOOTH",
"477 326 LINE SMOOTH",
"477 447 OFFCURVE",
"401 510 OFFCURVE",
"257 510 CURVE SMOOTH",
"172 510 OFFCURVE",
"96 481 OFFCURVE",
"37 427 CURVE",
"98 346 LINE",
"136 383 OFFCURVE",
"190 402 OFFCURVE",
"253 402 CURVE SMOOTH",
"307 402 OFFCURVE",
"335 377 OFFCURVE",
"335 330 CURVE SMOOTH",
"335 310 LINE",
"265 310 LINE SMOOTH",
"110 310 OFFCURVE",
"25 254 OFFCURVE",
"25 151 CURVE SMOOTH",
"25 58 OFFCURVE",
"97 -10 OFFCURVE",
"196 -10 CURVE SMOOTH"
);
},
{
closed = 1;
nodes = (
"190 95 OFFCURVE",
"164 114 OFFCURVE",
"164 151 CURVE SMOOTH",
"164 194 OFFCURVE",
"198 217 OFFCURVE",
"261 217 CURVE SMOOTH",
"335 217 LINE",
"335 175 LINE SMOOTH",
"335 129 OFFCURVE",
"293 95 OFFCURVE",
"234 95 CURVE SMOOTH"
);
}
);
width = 530;
}
);
note = a;
unicode = 0061;
},
{
color = 4;
glyphname = b;
lastChange = "2018-05-16 09:35:42 +0000";
layers = (
{
anchors = (
{
name = bottom;
position = "{267, 0}";
},
{
name = top;
position = "{267, 500}";
}
);
background = {
paths = (
{
closed = 1;
nodes = (
"546 403 OFFCURVE",
"461 510 OFFCURVE",
"321 510 CURVE SMOOTH",
"238 510 OFFCURVE",
"174 475 OFFCURVE",
"132 404 CURVE",
"132 742 LINE",
"74 742 LINE",
"74 122 LINE SMOOTH",
"74 66 OFFCURVE",
"73 25 OFFCURVE",
"70 0 CURVE",
"123 0 LINE",
"124 25 OFFCURVE",
"126 54 OFFCURVE",
"126 88 CURVE",
"171 21 OFFCURVE",
"235 -13 OFFCURVE",
"313 -13 CURVE SMOOTH",
"455 -13 OFFCURVE",
"546 96 OFFCURVE",
"546 256 CURVE SMOOTH"
);
},
{
closed = 1;
nodes = (
"490 109 OFFCURVE",
"429 35 OFFCURVE",
"305 35 CURVE SMOOTH",
"207 35 OFFCURVE",
"132 106 OFFCURVE",
"132 200 CURVE SMOOTH",
"132 284 LINE SMOOTH",
"132 338 OFFCURVE",
"151 382 OFFCURVE",
"189 416 CURVE",
"223 448 OFFCURVE",
"264 465 OFFCURVE",
"311 465 CURVE SMOOTH",
"424 465 OFFCURVE",
"490 378 OFFCURVE",
"490 254 CURVE SMOOTH"
);
}
);
};
layerId = "0B1DFD06-3317-40CA-B510-4969A0718C16";
paths = (
{
closed = 1;
nodes = (
"415 -10 OFFCURVE",
"494 98 OFFCURVE",
"494 259 CURVE SMOOTH",
"494 410 OFFCURVE",
"415 510 OFFCURVE",
"284 510 CURVE SMOOTH",
"217 510 OFFCURVE",
"164 480 OFFCURVE",
"128 422 CURVE",
"126 422 LINE",
"126 742 LINE",
"70 742 LINE",
"70 122 LINE SMOOTH",
"70 66 OFFCURVE",
"69 25 OFFCURVE",
"67 0 CURVE",
"117 0 LINE",
"119 25 OFFCURVE",
"121 54 OFFCURVE",
"120 88 CURVE",
"122 88 LINE",
"152 29 OFFCURVE",
"220 -10 OFFCURVE",
"285 -10 CURVE SMOOTH"
);
},
{
closed = 1;
nodes = (
"183 38 OFFCURVE",
"126 103 OFFCURVE",
"126 200 CURVE SMOOTH",
"126 284 LINE SMOOTH",
"126 393 OFFCURVE",
"185 465 OFFCURVE",
"281 465 CURVE SMOOTH",
"380 465 OFFCURVE",
"438 382 OFFCURVE",
"438 257 CURVE SMOOTH",
"438 126 OFFCURVE",
"380 38 OFFCURVE",
"281 38 CURVE SMOOTH"
);
}
);
width = 534;
},
{
anchors = (
{
name = bottom;
position = "{290, 0}";
},
{
name = top;
position = "{304, 500}";
}
);
background = {
paths = (
{
closed = 1;
nodes = (
"542 403 OFFCURVE",
"457 510 OFFCURVE",
"317 510 CURVE SMOOTH",
"234 510 OFFCURVE",
"170 475 OFFCURVE",
"128 404 CURVE",
"128 742 LINE",
"70 742 LINE",
"70 122 LINE SMOOTH",
"70 66 OFFCURVE",
"69 25 OFFCURVE",
"66 0 CURVE",
"119 0 LINE",
"120 25 OFFCURVE",
"122 54 OFFCURVE",
"122 88 CURVE",
"167 21 OFFCURVE",
"231 -13 OFFCURVE",
"309 -13 CURVE SMOOTH",
"451 -13 OFFCURVE",
"542 96 OFFCURVE",
"542 256 CURVE SMOOTH"
);
},
{
closed = 1;
nodes = (
"486 109 OFFCURVE",
"425 35 OFFCURVE",
"301 35 CURVE SMOOTH",
"203 35 OFFCURVE",
"128 106 OFFCURVE",
"128 200 CURVE SMOOTH",
"128 284 LINE SMOOTH",
"128 338 OFFCURVE",
"147 382 OFFCURVE",
"185 416 CURVE",
"219 448 OFFCURVE",
"260 465 OFFCURVE",
"307 465 CURVE SMOOTH",
"420 465 OFFCURVE",
"486 378 OFFCURVE",
"486 254 CURVE SMOOTH"
);
}
);
};
layerId = "ECFE7DEB-F40D-44C7-B7CF-D3B40F3B51F8";
paths = (
{
closed = 1;
nodes = (
"457 -10 OFFCURVE",
"536 90 OFFCURVE",
"536 258 CURVE SMOOTH",
"536 416 OFFCURVE",
"460 510 OFFCURVE",
"332 510 CURVE SMOOTH",
"269 510 OFFCURVE",
"218 493 OFFCURVE",
"190 454 CURVE",
"188 454 LINE",
"188 742 LINE",
"46 742 LINE",
"46 135 LINE SMOOTH",
"46 81 OFFCURVE",
"45 20 OFFCURVE",
"43 0 CURVE",
"177 0 LINE",
"178 24 OFFCURVE",
"178 52 OFFCURVE",
"178 62 CURVE",
"180 62 LINE",
"209 20 OFFCURVE",
"266 -10 OFFCURVE",
"325 -10 CURVE SMOOTH"
);
},
{
closed = 1;
nodes = (
"235 98 OFFCURVE",
"188 135 OFFCURVE",
"188 199 CURVE SMOOTH",
"188 306 LINE SMOOTH",
"188 361 OFFCURVE",
"235 405 OFFCURVE",
"296 405 CURVE SMOOTH",
"360 405 OFFCURVE",
"395 354 OFFCURVE",
"395 256 CURVE SMOOTH",
"395 152 OFFCURVE",
"360 98 OFFCURVE",
"296 98 CURVE SMOOTH"
);
}
);
width = 557;
}
);
note = b;
unicode = 0062;
},
{
color = 4;
glyphname = c;
lastChange = "2018-05-16 09:35:42 +0000";
layers = (
{
anchors = (
{
name = bottom;
position = "{264, 0}";
},
{
name = top;
position = "{264, 500}";
}
);
background = {
paths = (
{
closed = 1;
nodes = (
"361 46 OFFCURVE",
"316 34 OFFCURVE",
"261 34 CURVE SMOOTH",
"142 34 OFFCURVE",
"56 115 OFFCURVE",
"56 248 CURVE SMOOTH",
"56 382 OFFCURVE",
"142 463 OFFCURVE",
"261 463 CURVE SMOOTH",
"316 463 OFFCURVE",
"361 451 OFFCURVE",
"398 428 CURVE",
"419 475 LINE",
"376 498 OFFCURVE",
"325 510 OFFCURVE",
"264 510 CURVE SMOOTH",
"100 510 OFFCURVE",
"0 407 OFFCURVE",
"0 248 CURVE SMOOTH",
"0 90 OFFCURVE",
"100 -13 OFFCURVE",
"264 -13 CURVE SMOOTH",
"325 -13 OFFCURVE",
"376 -1 OFFCURVE",
"419 22 CURVE",
"398 69 LINE"
);
}
);
};
layerId = "0B1DFD06-3317-40CA-B510-4969A0718C16";
paths = (
{
closed = 1;
nodes = (
"344 -10 OFFCURVE",
"405 24 OFFCURVE",
"442 81 CURVE",
"408 114 LINE",
"378 66 OFFCURVE",
"324 38 OFFCURVE",
"264 38 CURVE SMOOTH",
"159 38 OFFCURVE",
"96 116 OFFCURVE",
"96 250 CURVE SMOOTH",
"96 384 OFFCURVE",
"159 462 OFFCURVE",
"264 462 CURVE SMOOTH",
"324 462 OFFCURVE",
"378 434 OFFCURVE",
"408 386 CURVE",
"442 419 LINE",
"405 476 OFFCURVE",
"344 510 OFFCURVE",
"264 510 CURVE SMOOTH",
"114 510 OFFCURVE",
"40 409 OFFCURVE",
"40 250 CURVE SMOOTH",
"40 91 OFFCURVE",
"114 -10 OFFCURVE",
"264 -10 CURVE SMOOTH"
);
}
);
width = 462;
},
{
anchors = (
{
name = bottom;
position = "{284, 0}";
},
{
name = top;
position = "{284, 500}";
}
);
background = {
paths = (
{
closed = 1;
nodes = (
"365 46 OFFCURVE",
"320 34 OFFCURVE",
"265 34 CURVE SMOOTH",
"146 34 OFFCURVE",
"60 115 OFFCURVE",
"60 248 CURVE SMOOTH",
"60 382 OFFCURVE",
"146 463 OFFCURVE",
"265 463 CURVE SMOOTH",
"320 463 OFFCURVE",
"365 451 OFFCURVE",
"402 428 CURVE",
"423 475 LINE",
"380 498 OFFCURVE",
"329 510 OFFCURVE",
"268 510 CURVE SMOOTH",
"104 510 OFFCURVE",
"4 407 OFFCURVE",
"4 248 CURVE SMOOTH",
"4 90 OFFCURVE",
"104 -13 OFFCURVE",
"268 -13 CURVE SMOOTH",
"329 -13 OFFCURVE",
"380 -1 OFFCURVE",
"423 22 CURVE",
"402 69 LINE"
);
}
);
};
layerId = "ECFE7DEB-F40D-44C7-B7CF-D3B40F3B51F8";
paths = (
{
closed = 1;
nodes = (
"374 -10 OFFCURVE",
"448 28 OFFCURVE",
"483 92 CURVE",
"398 166 LINE",
"372 122 OFFCURVE",
"329 98 OFFCURVE",
"284 98 CURVE SMOOTH",
"209 98 OFFCURVE",
"164 155 OFFCURVE",
"164 250 CURVE SMOOTH",
"164 345 OFFCURVE",
"209 402 OFFCURVE",
"284 402 CURVE SMOOTH",
"329 402 OFFCURVE",
"372 378 OFFCURVE",
"398 334 CURVE",
"483 408 LINE",
"448 472 OFFCURVE",
"374 510 OFFCURVE",
"277 510 CURVE SMOOTH",
"120 510 OFFCURVE",
"23 413 OFFCURVE",
"23 250 CURVE SMOOTH",
"23 87 OFFCURVE",
"120 -10 OFFCURVE",
"277 -10 CURVE SMOOTH"
);
}
);
width = 494;
}
);
note = c;
unicode = 0063;
},
{
color = 4;
glyphname = d;
lastChange = "2018-05-16 09:35:42 +0000";
layers = (
{
anchors = (
{
name = bottom;
position = "{267, 0}";
},
{
name = center;
position = "{267, 250}";
},
{
name = top;
position = "{267, 500}";
},
{
name = topright;
position = "{514, 500}";
}
);
background = {
paths = (
{
closed = 1;
nodes = (
"508 0 LINE",
"506 25 OFFCURVE",
"504 66 OFFCURVE",
"504 122 CURVE SMOOTH",
"504 742 LINE",
"447 742 LINE",
"447 404 LINE",
"404 475 OFFCURVE",
"341 510 OFFCURVE",
"257 510 CURVE SMOOTH",
"117 510 OFFCURVE",
"32 403 OFFCURVE",
"32 256 CURVE SMOOTH",
"32 96 OFFCURVE",
"123 -13 OFFCURVE",
"266 -13 CURVE SMOOTH",
"344 -13 OFFCURVE",
"407 21 OFFCURVE",
"453 88 CURVE",
"453 54 OFFCURVE",
"454 25 OFFCURVE",
"456 0 CURVE"
);
},
{
closed = 1;
nodes = (
"447 200 LINE SMOOTH",
"447 106 OFFCURVE",
"372 35 OFFCURVE",
"273 35 CURVE SMOOTH",
"150 35 OFFCURVE",
"88 109 OFFCURVE",
"88 254 CURVE SMOOTH",
"88 378 OFFCURVE",
"154 465 OFFCURVE",
"267 465 CURVE SMOOTH",
"314 465 OFFCURVE",
"356 448 OFFCURVE",
"389 416 CURVE",
"428 382 OFFCURVE",
"447 338 OFFCURVE",
"447 284 CURVE SMOOTH"
);
}
);
};
layerId = "0B1DFD06-3317-40CA-B510-4969A0718C16";
paths = (
{
closed = 1;
nodes = (
"315 -10 OFFCURVE",
"382 28 OFFCURVE",
"412 88 CURVE",
"414 88 LINE",
"413 54 OFFCURVE",
"415 25 OFFCURVE",
"417 0 CURVE",
"467 0 LINE",
"465 25 OFFCURVE",
"464 66 OFFCURVE",
"464 122 CURVE SMOOTH",
"464 742 LINE",
"408 742 LINE",
"408 422 LINE",
"406 422 LINE",
"372 475 OFFCURVE",
"319 510 OFFCURVE",
"250 510 CURVE SMOOTH",
"119 510 OFFCURVE",
"40 410 OFFCURVE",
"40 259 CURVE SMOOTH",
"40 98 OFFCURVE",
"119 -10 OFFCURVE",
"249 -10 CURVE SMOOTH"
);
},
{
closed = 1;
nodes = (
"154 38 OFFCURVE",
"96 126 OFFCURVE",
"96 257 CURVE SMOOTH",
"96 382 OFFCURVE",
"154 465 OFFCURVE",
"253 465 CURVE SMOOTH",
"349 465 OFFCURVE",
"408 393 OFFCURVE",
"408 284 CURVE SMOOTH",
"408 200 LINE SMOOTH",
"408 103 OFFCURVE",
"351 38 OFFCURVE",
"253 38 CURVE SMOOTH"
);
}
);
width = 534;
},
{
anchors = (
{
name = bottom;
position = "{279, 0}";
},
{
name = center;
position = "{279, 250}";
},
{
name = top;
position = "{279, 500}";
},
{
name = topright;
position = "{538, 500}";
}
);
background = {
paths = (
{
closed = 1;
nodes = (
"508 0 LINE",
"506 25 OFFCURVE",
"504 66 OFFCURVE",
"504 122 CURVE SMOOTH",
"504 742 LINE",
"447 742 LINE",
"447 404 LINE",
"404 475 OFFCURVE",
"341 510 OFFCURVE",
"257 510 CURVE SMOOTH",
"117 510 OFFCURVE",
"32 403 OFFCURVE",
"32 256 CURVE SMOOTH",
"32 96 OFFCURVE",
"123 -13 OFFCURVE",
"266 -13 CURVE SMOOTH",
"344 -13 OFFCURVE",
"407 21 OFFCURVE",
"453 88 CURVE",
"453 54 OFFCURVE",
"454 25 OFFCURVE",
"456 0 CURVE"
);
},
{
closed = 1;
nodes = (
"447 200 LINE SMOOTH",
"447 106 OFFCURVE",
"372 35 OFFCURVE",
"273 35 CURVE SMOOTH",
"150 35 OFFCURVE",
"88 109 OFFCURVE",
"88 254 CURVE SMOOTH",
"88 378 OFFCURVE",
"154 465 OFFCURVE",
"267 465 CURVE SMOOTH",
"314 465 OFFCURVE",
"356 448 OFFCURVE",
"389 416 CURVE",
"428 382 OFFCURVE",
"447 338 OFFCURVE",
"447 284 CURVE SMOOTH"
);
}
);
};
layerId = "ECFE7DEB-F40D-44C7-B7CF-D3B40F3B51F8";
paths = (
{
closed = 1;
nodes = (
"311 -10 OFFCURVE",
"368 20 OFFCURVE",
"397 62 CURVE",
"399 62 LINE",
"399 52 OFFCURVE",
"399 24 OFFCURVE",
"400 0 CURVE",
"534 0 LINE",
"532 20 OFFCURVE",
"531 81 OFFCURVE",
"531 135 CURVE SMOOTH",
"531 742 LINE",
"389 742 LINE",
"389 454 LINE",
"387 454 LINE",
"355 491 OFFCURVE",
"315 510 OFFCURVE",
"255 510 CURVE SMOOTH",
"127 510 OFFCURVE",
"41 416 OFFCURVE",
"41 258 CURVE SMOOTH",
"41 90 OFFCURVE",
"120 -10 OFFCURVE",
"252 -10 CURVE SMOOTH"
);
},
{
closed = 1;
nodes = (
"217 98 OFFCURVE",
"182 152 OFFCURVE",
"182 256 CURVE SMOOTH",
"182 354 OFFCURVE",
"217 405 OFFCURVE",
"281 405 CURVE SMOOTH",
"342 405 OFFCURVE",
"389 361 OFFCURVE",
"389 306 CURVE SMOOTH",
"389 199 LINE SMOOTH",
"389 135 OFFCURVE",
"342 98 OFFCURVE",
"281 98 CURVE SMOOTH"
);
}
);
width = 572;
}
);
note = d;
unicode = 0064;
},
{
color = 4;
glyphname = e;
lastChange = "2018-05-16 09:35:42 +0000";
layers = (
{
anchors = (
{
name = bottom;
position = "{262, 0}";
},
{
name = ogonek;
position = "{383, 46}";
},
{
name = top;
position = "{262, 500}";
}
);
background = {
paths = (
{
closed = 1;
nodes = (
"476 71 LINE",
"419 49 OFFCURVE",
"360 37 OFFCURVE",
"301 37 CURVE SMOOTH",
"182 37 OFFCURVE",
"100 113 OFFCURVE",
"96 247 CURVE",
"504 247 LINE",
"501 422 OFFCURVE",
"429 510 OFFCURVE",
"290 510 CURVE SMOOTH",
"218 510 OFFCURVE",
"157 485 OFFCURVE",
"110 435 CURVE SMOOTH",
"63 385 OFFCURVE",
"40 319 OFFCURVE",
"40 237 CURVE SMOOTH",
"40 165 OFFCURVE",
"63 104 OFFCURVE",
"110 57 CURVE SMOOTH",
"157 10 OFFCURVE",
"219 -13 OFFCURVE",
"295 -13 CURVE SMOOTH",
"362 -13 OFFCURVE",
"423 -1 OFFCURVE",
"481 22 CURVE"
);
},
{
closed = 1;
nodes = (
"98 293 LINE",
"106 337 OFFCURVE",
"122 375 OFFCURVE",
"150 406 CURVE SMOOTH",
"184 445 OFFCURVE",
"228 465 OFFCURVE",
"282 465 CURVE SMOOTH",
"343 465 OFFCURVE",
"387 442 OFFCURVE",
"416 400 CURVE SMOOTH",
"438 369 OFFCURVE",
"448 332 OFFCURVE",
"450 293 CURVE"
);
}
);
};
layerId = "0B1DFD06-3317-40CA-B510-4969A0718C16";
paths = (
{
closed = 1;
nodes = (
"344 -10 OFFCURVE",
"405 24 OFFCURVE",
"442 81 CURVE",
"408 114 LINE",
"378 66 OFFCURVE",
"324 38 OFFCURVE",
"264 38 CURVE SMOOTH",
"159 38 OFFCURVE",
"96 115 OFFCURVE",
"96 249 CURVE SMOOTH",
"96 387 OFFCURVE",
"154 465 OFFCURVE",
"256 465 CURVE SMOOTH",
"351 465 OFFCURVE",
"409 396 OFFCURVE",
"409 284 CURVE SMOOTH",
"409 273 LINE",
"85 273 LINE",
"85 227 LINE",
"464 227 LINE",
"464 251 LINE SMOOTH",
"464 414 OFFCURVE",
"389 510 OFFCURVE",
"261 510 CURVE SMOOTH",
"123 510 OFFCURVE",
"40 413 OFFCURVE",
"40 249 CURVE SMOOTH",
"40 90 OFFCURVE",
"114 -10 OFFCURVE",
"264 -10 CURVE SMOOTH"
);
}
);
width = 504;
},
{
anchors = (
{
name = bottom;
position = "{265, 0}";
},
{
name = ogonek;
position = "{421, 52}";
},
{
name = top;
position = "{265, 500}";
}
);
background = {
paths = (
{
closed = 1;
nodes = (
"476 71 LINE",
"419 49 OFFCURVE",
"360 37 OFFCURVE",
"301 37 CURVE SMOOTH",
"182 37 OFFCURVE",
"100 113 OFFCURVE",
"96 247 CURVE",
"504 247 LINE",
"501 422 OFFCURVE",
"429 510 OFFCURVE",
"290 510 CURVE SMOOTH",
"218 510 OFFCURVE",
"157 485 OFFCURVE",
"110 435 CURVE SMOOTH",
"63 385 OFFCURVE",
"40 319 OFFCURVE",
"40 237 CURVE SMOOTH",
"40 165 OFFCURVE",
"63 104 OFFCURVE",
"110 57 CURVE SMOOTH",
"157 10 OFFCURVE",
"219 -13 OFFCURVE",
"295 -13 CURVE SMOOTH",
"362 -13 OFFCURVE",
"423 -1 OFFCURVE",
"481 22 CURVE"
);
},
{
closed = 1;
nodes = (
"98 293 LINE",
"106 337 OFFCURVE",
"122 375 OFFCURVE",
"150 406 CURVE SMOOTH",
"184 445 OFFCURVE",
"228 465 OFFCURVE",
"282 465 CURVE SMOOTH",
"343 465 OFFCURVE",
"387 442 OFFCURVE",
"416 400 CURVE SMOOTH",
"438 369 OFFCURVE",
"448 332 OFFCURVE",
"450 293 CURVE"
);
}
);
};
layerId = "ECFE7DEB-F40D-44C7-B7CF-D3B40F3B51F8";
paths = (
{
closed = 1;
nodes = (
"375 -10 OFFCURVE",
"460 39 OFFCURVE",
"495 99 CURVE",
"419 171 LINE",
"372 122 OFFCURVE",
"333 109 OFFCURVE",
"280 109 CURVE SMOOTH",
"208 109 OFFCURVE",
"160 143 OFFCURVE",
"160 251 CURVE SMOOTH",
"160 350 OFFCURVE",
"204 394 OFFCURVE",
"268 394 CURVE SMOOTH",
"330 394 OFFCURVE",
"369 354 OFFCURVE",
"369 275 CURVE",
"384 293 LINE",
"61 293 LINE",
"61 198 LINE",
"509 198 LINE",
"509 249 LINE SMOOTH",
"509 411 OFFCURVE",
"421 510 OFFCURVE",
"270 510 CURVE SMOOTH",
"116 510 OFFCURVE",
"19 412 OFFCURVE",
"19 248 CURVE SMOOTH",
"19 84 OFFCURVE",
"116 -10 OFFCURVE",
"271 -10 CURVE SMOOTH"
);
}
);
width = 528;
}
);
note = e;
unicode = 0065;
},
{
color = 4;
glyphname = f;
lastChange = "2018-05-16 09:35:42 +0000";
layers = (
{
anchors = (
{
name = bottom;
position = "{152, 0}";
},
{
name = top;
position = "{152, 500}";
}
);
background = {
paths = (
{
closed = 1;
nodes = (
"335 747 OFFCURVE",
"307 754 OFFCURVE",
"270 754 CURVE SMOOTH",
"151 754 OFFCURVE",
"93 676 OFFCURVE",
"93 519 CURVE SMOOTH",
"93 500 LINE",
"7 500 LINE",
"7 454 LINE",
"91 454 LINE",
"91 0 LINE",
"148 0 LINE",
"148 454 LINE",
"293 454 LINE",
"293 500 LINE",
"148 500 LINE",
"148 519 LINE SMOOTH",
"148 644 OFFCURVE",
"188 706 OFFCURVE",
"266 706 CURVE SMOOTH",
"293 706 OFFCURVE",
"316 700 OFFCURVE",
"338 689 CURVE",
"354 731 LINE"
);
}
);
};
layerId = "0B1DFD06-3317-40CA-B510-4969A0718C16";
paths = (
{
closed = 1;
nodes = (
"147 0 LINE",
"147 454 LINE",
"292 454 LINE",
"292 500 LINE",
"147 500 LINE",
"147 569 LINE SMOOTH",
"147 639 OFFCURVE",
"181 671 OFFCURVE",
"236 671 CURVE SMOOTH",
"260 671 OFFCURVE",
"282 666 OFFCURVE",
"302 650 CURVE",
"323 688 LINE",
"306 705 OFFCURVE",
"276 717 OFFCURVE",
"240 717 CURVE SMOOTH",
"148 717 OFFCURVE",
"91 666 OFFCURVE",
"91 565 CURVE SMOOTH",
"91 500 LINE",
"7 500 LINE",
"7 454 LINE",
"91 454 LINE",
"91 0 LINE"
);
}
);
width = 303;
},
{
anchors = (
{
name = bottom;
position = "{193, 0}";
},
{
name = top;
position = "{193, 750}";
}
);
background = {
paths = (
{
closed = 1;
nodes = (
"364 747 OFFCURVE",
"336 754 OFFCURVE",
"299 754 CURVE SMOOTH",
"180 754 OFFCURVE",
"122 676 OFFCURVE",
"122 519 CURVE SMOOTH",
"122 500 LINE",
"36 500 LINE",
"36 454 LINE",
"120 454 LINE",
"120 0 LINE",
"177 0 LINE",
"177 454 LINE",
"322 454 LINE",
"322 500 LINE",
"177 500 LINE",
"177 519 LINE SMOOTH",
"177 644 OFFCURVE",
"217 706 OFFCURVE",
"295 706 CURVE SMOOTH",
"322 706 OFFCURVE",
"345 700 OFFCURVE",
"367 689 CURVE",
"383 731 LINE"
);
}
);
};
layerId = "ECFE7DEB-F40D-44C7-B7CF-D3B40F3B51F8";
paths = (
{
closed = 1;
nodes = (
"233 0 LINE",
"233 405 LINE",
"373 405 LINE",
"373 500 LINE",
"233 500 LINE",
"233 546 LINE SMOOTH",
"233 589 OFFCURVE",
"253 611 OFFCURVE",
"289 611 CURVE SMOOTH",
"309 611 OFFCURVE",
"331 603 OFFCURVE",
"348 588 CURVE",
"397 671 LINE",
"366 701 OFFCURVE",
"321 717 OFFCURVE",
"268 717 CURVE SMOOTH",
"153 717 OFFCURVE",
"91 663 OFFCURVE",
"91 559 CURVE SMOOTH",
"91 500 LINE",
"10 500 LINE",
"10 405 LINE",
"91 405 LINE",
"91 0 LINE"
);
}
);
width = 388;
}
);
note = f;
unicode = 0066;
},
{
color = 4;
glyphname = g;
lastChange = "2018-05-16 09:35:42 +0000";
layers = (
{
anchors = (
{
name = bottom;
position = "{267, 0}";
},
{
name = top;
position = "{250, 500}";
}
);
background = {
paths = (
{
closed = 1;
nodes = (
"404 381 OFFCURVE",
"384 422 OFFCURVE",
"344 462 CURVE",
"416 454 LINE",
"416 501 LINE",
"221 501 LINE SMOOTH",
"131 501 OFFCURVE",
"53 431 OFFCURVE",
"53 325 CURVE SMOOTH",
"53 281 OFFCURVE",
"71 240 OFFCURVE",
"107 200 CURVE",
"97 171 OFFCURVE",
"93 147 OFFCURVE",
"93 129 CURVE SMOOTH",
"93 100 OFFCURVE",
"107 76 OFFCURVE",
"138 57 CURVE SMOOTH",
"156 46 OFFCURVE",
"188 32 OFFCURVE",
"235 18 CURVE SMOOTH",
"313 -7 OFFCURVE",
"351 -44 OFFCURVE",
"351 -91 CURVE SMOOTH",
"351 -144 OFFCURVE",
"298 -181 OFFCURVE",
"226 -181 CURVE SMOOTH",
"184 -181 OFFCURVE",
"143 -169 OFFCURVE",
"100 -144 CURVE",
"79 -191 LINE",
"122 -218 OFFCURVE",
"171 -231 OFFCURVE",
"222 -231 CURVE SMOOTH",
"340 -231 OFFCURVE",
"401 -171 OFFCURVE",
"401 -87 CURVE SMOOTH",
"401 -18 OFFCURVE",
"354 31 OFFCURVE",
"260 57 CURVE SMOOTH",
"181 79 OFFCURVE",
"141 104 OFFCURVE",
"141 129 CURVE SMOOTH",
"141 143 OFFCURVE",
"144 157 OFFCURVE",
"150 172 CURVE",
"172 162 OFFCURVE",
"197 156 OFFCURVE",
"228 156 CURVE SMOOTH",
"328 156 OFFCURVE",
"404 225 OFFCURVE",
"404 335 CURVE SMOOTH"
);
},
{
closed = 1;
nodes = (
"354 247 OFFCURVE",
"298 200 OFFCURVE",
"228 200 CURVE SMOOTH",
"197 200 OFFCURVE",
"169 210 OFFCURVE",
"144 232 CURVE SMOOTH",
"118 256 OFFCURVE",
"104 287 OFFCURVE",
"104 326 CURVE SMOOTH",
"104 397 OFFCURVE",
"150 457 OFFCURVE",
"228 457 CURVE SMOOTH",
"268 457 OFFCURVE",
"300 442 OFFCURVE",
"323 413 CURVE SMOOTH",
"344 388 OFFCURVE",
"354 360 OFFCURVE",
"354 328 CURVE SMOOTH"
);
}
);
};
layerId = "0B1DFD06-3317-40CA-B510-4969A0718C16";
paths = (
{
closed = 1;
nodes = (
"393 -218 OFFCURVE",
"464 -131 OFFCURVE",
"464 18 CURVE SMOOTH",
"464 500 LINE",
"418 500 LINE",
"408 422 LINE",
"406 422 LINE",
"375 477 OFFCURVE",
"320 510 OFFCURVE",
"250 510 CURVE SMOOTH",
"119 510 OFFCURVE",
"40 410 OFFCURVE",
"40 259 CURVE SMOOTH",
"40 98 OFFCURVE",
"119 -10 OFFCURVE",
"249 -10 CURVE SMOOTH",
"316 -10 OFFCURVE",
"385 27 OFFCURVE",
"414 88 CURVE",
"414 63 LINE",
"414 28 LINE SMOOTH",
"414 -86 OFFCURVE",
"370 -166 OFFCURVE",
"242 -166 CURVE SMOOTH",
"185 -166 OFFCURVE",
"142 -155 OFFCURVE",
"91 -131 CURVE",
"72 -177 LINE",
"121 -202 OFFCURVE",
"180 -218 OFFCURVE",
"244 -218 CURVE SMOOTH"
);
},
{
closed = 1;
nodes = (
"154 38 OFFCURVE",
"96 126 OFFCURVE",
"96 257 CURVE SMOOTH",
"96 382 OFFCURVE",
"154 465 OFFCURVE",
"253 465 CURVE SMOOTH",
"349 465 OFFCURVE",
"408 393 OFFCURVE",
"408 284 CURVE SMOOTH",
"408 200 LINE SMOOTH",
"408 103 OFFCURVE",
"351 38 OFFCURVE",
"253 38 CURVE SMOOTH"
);
}
);
width = 534;
},
{
anchors = (
{
name = bottom;
position = "{280, 15}";
},
{
name = top;
position = "{264, 463}";
}
);
background = {
paths = (
{
closed = 1;
nodes = (
"407 381 OFFCURVE",
"387 422 OFFCURVE",
"347 462 CURVE",
"419 454 LINE",
"419 501 LINE",
"224 501 LINE SMOOTH",
"134 501 OFFCURVE",
"56 431 OFFCURVE",
"56 325 CURVE SMOOTH",
"56 281 OFFCURVE",
"74 240 OFFCURVE",
"110 200 CURVE",
"100 171 OFFCURVE",
"96 147 OFFCURVE",
"96 129 CURVE SMOOTH",
"96 100 OFFCURVE",
"110 76 OFFCURVE",
"141 57 CURVE SMOOTH",
"159 46 OFFCURVE",
"191 32 OFFCURVE",
"238 18 CURVE SMOOTH",
"316 -7 OFFCURVE",
"354 -44 OFFCURVE",
"354 -91 CURVE SMOOTH",
"354 -144 OFFCURVE",
"301 -181 OFFCURVE",
"229 -181 CURVE SMOOTH",
"187 -181 OFFCURVE",
"146 -169 OFFCURVE",
"103 -144 CURVE",
"82 -191 LINE",
"125 -218 OFFCURVE",
"174 -231 OFFCURVE",
"225 -231 CURVE SMOOTH",
"343 -231 OFFCURVE",
"404 -171 OFFCURVE",
"404 -87 CURVE SMOOTH",
"404 -18 OFFCURVE",
"357 31 OFFCURVE",
"263 57 CURVE SMOOTH",
"184 79 OFFCURVE",
"144 104 OFFCURVE",
"144 129 CURVE SMOOTH",
"144 143 OFFCURVE",
"147 157 OFFCURVE",
"153 172 CURVE",
"175 162 OFFCURVE",
"200 156 OFFCURVE",
"231 156 CURVE SMOOTH",
"331 156 OFFCURVE",
"407 225 OFFCURVE",
"407 335 CURVE SMOOTH"
);
},
{
closed = 1;
nodes = (
"357 247 OFFCURVE",
"301 200 OFFCURVE",
"231 200 CURVE SMOOTH",
"200 200 OFFCURVE",
"172 210 OFFCURVE",
"147 232 CURVE SMOOTH",
"121 256 OFFCURVE",
"107 287 OFFCURVE",
"107 326 CURVE SMOOTH",
"107 397 OFFCURVE",
"153 457 OFFCURVE",
"231 457 CURVE SMOOTH",
"271 457 OFFCURVE",
"303 442 OFFCURVE",
"326 413 CURVE SMOOTH",
"347 388 OFFCURVE",
"357 360 OFFCURVE",
"357 328 CURVE SMOOTH"
);
}
);
};
layerId = "ECFE7DEB-F40D-44C7-B7CF-D3B40F3B51F8";
paths = (
{
closed = 1;
nodes = (
"425 -218 OFFCURVE",
"511 -129 OFFCURVE",
"511 41 CURVE SMOOTH",
"511 500 LINE",
"392 500 LINE",
"383 440 LINE",
"381 440 LINE",
"353 482 OFFCURVE",
"305 510 OFFCURVE",
"231 510 CURVE SMOOTH",
"100 510 OFFCURVE",
"21 422 OFFCURVE",
"21 256 CURVE SMOOTH",
"21 86 OFFCURVE",
"104 -1 OFFCURVE",
"242 -1 CURVE SMOOTH",
"337 -1 OFFCURVE",
"394 40 OFFCURVE",
"401 114 CURVE",
"374 114 LINE",
"374 60 LINE SMOOTH",
"374 -56 OFFCURVE",
"330 -107 OFFCURVE",
"248 -107 CURVE SMOOTH",
"207 -107 OFFCURVE",
"146 -94 OFFCURVE",
"95 -67 CURVE",
"48 -162 LINE",
"102 -199 OFFCURVE",
"176 -218 OFFCURVE",
"255 -218 CURVE SMOOTH"
);
},
{
closed = 1;
nodes = (
"197 107 OFFCURVE",
"162 157 OFFCURVE",
"162 253 CURVE SMOOTH",
"162 353 OFFCURVE",
"199 405 OFFCURVE",
"270 405 CURVE SMOOTH",
"335 405 OFFCURVE",
"369 362 OFFCURVE",
"369 280 CURVE SMOOTH",
"369 220 LINE SMOOTH",
"369 146 OFFCURVE",
"333 107 OFFCURVE",
"269 107 CURVE SMOOTH"
);
}
);
width = 554;
}
);
note = g;
unicode = 0067;
},
{
color = 4;
glyphname = h;
lastChange = "2018-05-16 09:35:42 +0000";
layers = (
{
anchors = (
{
name = bottom;
position = "{276, 0}";
},
{
name = center;
position = "{276, 250}";
},
{
name = top;
position = "{186, 742}";
}
);
background = {
paths = (
{
closed = 1;
nodes = (
"491 435 OFFCURVE",
"426 510 OFFCURVE",
"295 510 CURVE SMOOTH",
"223 510 OFFCURVE",
"167 476 OFFCURVE",
"128 410 CURVE",
"128 742 LINE",
"70 742 LINE",
"70 0 LINE",
"128 0 LINE",
"128 303 LINE SMOOTH",
"128 343 OFFCURVE",
"144 378 OFFCURVE",
"175 412 CURVE SMOOTH",
"207 445 OFFCURVE",
"244 463 OFFCURVE",
"284 463 CURVE SMOOTH",
"384 463 OFFCURVE",
"434 403 OFFCURVE",
"434 284 CURVE SMOOTH",
"434 0 LINE",
"491 0 LINE",
"491 284 LINE SMOOTH"
);
}
);
};
layerId = "0B1DFD06-3317-40CA-B510-4969A0718C16";
paths = (
{
closed = 1;
nodes = (
"126 0 LINE",
"126 274 LINE SMOOTH",
"126 386 OFFCURVE",
"204 465 OFFCURVE",
"298 465 CURVE SMOOTH",
"388 465 OFFCURVE",
"426 394 OFFCURVE",
"426 285 CURVE SMOOTH",
"426 0 LINE",
"482 0 LINE",
"482 284 LINE SMOOTH",
"482 420 OFFCURVE",
"429 510 OFFCURVE",
"301 510 CURVE SMOOTH",
"232 510 OFFCURVE",
"160 477 OFFCURVE",
"126 410 CURVE",
"126 742 LINE",
"70 742 LINE",
"70 0 LINE"
);
}
);
width = 552;
},
{
anchors = (
{
name = bottom;
position = "{282, 0}";
},
{
name = center;
position = "{282, 236}";
},
{
name = top;
position = "{243, 750}";
}
);
background = {
paths = (
{
closed = 1;
nodes = (
"485 435 OFFCURVE",
"420 510 OFFCURVE",
"289 510 CURVE SMOOTH",
"217 510 OFFCURVE",
"161 476 OFFCURVE",
"122 410 CURVE",
"122 742 LINE",
"64 742 LINE",
"64 0 LINE",
"122 0 LINE",
"122 303 LINE SMOOTH",
"122 343 OFFCURVE",
"138 378 OFFCURVE",
"169 412 CURVE SMOOTH",
"201 445 OFFCURVE",
"238 463 OFFCURVE",
"278 463 CURVE SMOOTH",
"378 463 OFFCURVE",
"428 403 OFFCURVE",
"428 284 CURVE SMOOTH",
"428 0 LINE",
"485 0 LINE",
"485 284 LINE SMOOTH"
);
}
);
};
layerId = "ECFE7DEB-F40D-44C7-B7CF-D3B40F3B51F8";
paths = (
{
closed = 1;
nodes = (
"184 0 LINE",
"184 272 LINE SMOOTH",
"184 359 OFFCURVE",
"229 405 OFFCURVE",
"294 405 CURVE SMOOTH",
"380 405 OFFCURVE",
"382 321 OFFCURVE",
"382 292 CURVE SMOOTH",
"382 0 LINE",
"524 0 LINE",
"524 290 LINE SMOOTH",
"524 329 OFFCURVE",
"521 510 OFFCURVE",
"335 510 CURVE SMOOTH",
"266 510 OFFCURVE",
"212 482 OFFCURVE",
"184 447 CURVE",
"184 742 LINE",
"42 742 LINE",
"42 0 LINE"
);
}
);
width = 566;
}
);
note = h;
unicode = 0068;
},
{
color = 4;
glyphname = i;
lastChange = "2018-05-16 09:35:42 +0000";
layers = (
{
anchors = (
{
name = bottom;
position = "{114, 0}";
}
);
background = {
paths = (
{
closed = 1;
nodes = (
"144 500 LINE",
"86 500 LINE",
"86 0 LINE",
"144 0 LINE"
);
},
{
closed = 1;
nodes = (
"160 679 OFFCURVE",
"141 698 OFFCURVE",
"113 698 CURVE SMOOTH",
"85 698 OFFCURVE",
"67 679 OFFCURVE",
"67 651 CURVE SMOOTH",
"67 623 OFFCURVE",
"85 606 OFFCURVE",
"113 606 CURVE SMOOTH",
"141 606 OFFCURVE",
"160 623 OFFCURVE",
"160 651 CURVE SMOOTH"
);
}
);
};
layerId = "0B1DFD06-3317-40CA-B510-4969A0718C16";
paths = (
{
closed = 1;
nodes = (
"142 0 LINE",
"142 500 LINE",
"86 500 LINE",
"86 0 LINE"
);
},
{
closed = 1;
nodes = (
"142 606 OFFCURVE",
"160 625 OFFCURVE",
"160 653 CURVE SMOOTH",
"160 681 OFFCURVE",
"142 700 OFFCURVE",
"114 700 CURVE SMOOTH",
"86 700 OFFCURVE",
"68 681 OFFCURVE",
"68 653 CURVE SMOOTH",
"68 625 OFFCURVE",
"86 606 OFFCURVE",
"114 606 CURVE SMOOTH"
);
}
);
width = 228;
},
{
anchors = (
{
name = bottom;
position = "{139, 0}";
}
);
background = {
paths = (
{
closed = 1;
nodes = (
"157 500 LINE",
"99 500 LINE",
"99 0 LINE",
"157 0 LINE"
);
},
{
closed = 1;
nodes = (
"173 679 OFFCURVE",
"154 698 OFFCURVE",
"126 698 CURVE SMOOTH",
"98 698 OFFCURVE",
"80 679 OFFCURVE",
"80 651 CURVE SMOOTH",
"80 623 OFFCURVE",
"98 606 OFFCURVE",
"126 606 CURVE SMOOTH",
"154 606 OFFCURVE",
"173 623 OFFCURVE",
"173 651 CURVE SMOOTH"
);
}
);
};
layerId = "ECFE7DEB-F40D-44C7-B7CF-D3B40F3B51F8";
paths = (
{
closed = 1;
nodes = (
"210 0 LINE",
"210 500 LINE",
"68 500 LINE",
"68 0 LINE"
);
},
{
closed = 1;
nodes = (
"195 548 OFFCURVE",
"228 576 OFFCURVE",
"228 624 CURVE SMOOTH",
"228 672 OFFCURVE",
"195 700 OFFCURVE",
"139 700 CURVE SMOOTH",
"83 700 OFFCURVE",
"50 672 OFFCURVE",
"50 624 CURVE SMOOTH",
"50 576 OFFCURVE",
"83 548 OFFCURVE",
"139 548 CURVE SMOOTH"
);
}
);
width = 278;
}
);
note = i;
unicode = 0069;
},
{
color = 4;
glyphname = j;
lastChange = "2018-05-16 09:35:42 +0000";
layers = (
{
background = {
paths = (
{
closed = 1;
nodes = (
"151 500 LINE",
"94 500 LINE",
"94 26 LINE SMOOTH",
"94 -31 OFFCURVE",
"87 -74 OFFCURVE",
"72 -101 CURVE SMOOTH",
"50 -143 OFFCURVE",
"6 -166 OFFCURVE",
"-62 -172 CURVE",
"-56 -218 LINE",
"81 -215 OFFCURVE",
"150 -138 OFFCURVE",
"151 10 CURVE SMOOTH"
);
},
{
closed = 1;
nodes = (
"168 679 OFFCURVE",
"148 698 OFFCURVE",
"121 698 CURVE SMOOTH",
"93 698 OFFCURVE",
"75 679 OFFCURVE",
"75 651 CURVE SMOOTH",
"75 623 OFFCURVE",
"93 606 OFFCURVE",
"121 606 CURVE SMOOTH",
"148 606 OFFCURVE",
"168 623 OFFCURVE",
"168 651 CURVE SMOOTH"
);
}
);
};
layerId = "0B1DFD06-3317-40CA-B510-4969A0718C16";
paths = (
{
closed = 1;
nodes = (
"108 -186 OFFCURVE",
"150 -116 OFFCURVE",
"150 8 CURVE SMOOTH",
"150 500 LINE",
"94 500 LINE",
"94 14 LINE SMOOTH",
"94 -89 OFFCURVE",
"71 -138 OFFCURVE",
"-11 -138 CURVE SMOOTH",
"-19 -138 OFFCURVE",
"-27 -138 OFFCURVE",
"-36 -137 CURVE",
"-36 -183 LINE",
"-21 -185 OFFCURVE",
"-7 -186 OFFCURVE",
"6 -186 CURVE SMOOTH"
);
},
{
closed = 1;
nodes = (
"148 606 OFFCURVE",
"166 625 OFFCURVE",
"166 653 CURVE SMOOTH",
"166 681 OFFCURVE",
"148 700 OFFCURVE",
"120 700 CURVE SMOOTH",
"92 700 OFFCURVE",
"74 681 OFFCURVE",
"74 653 CURVE SMOOTH",
"74 625 OFFCURVE",
"92 606 OFFCURVE",
"120 606 CURVE SMOOTH"
);
}
);
width = 228;
},
{
background = {
paths = (
{
closed = 1;
nodes = (
"181 500 LINE",
"124 500 LINE",
"124 26 LINE SMOOTH",
"124 -31 OFFCURVE",
"117 -74 OFFCURVE",
"102 -101 CURVE SMOOTH",
"80 -143 OFFCURVE",
"36 -166 OFFCURVE",
"-32 -172 CURVE",
"-26 -218 LINE",
"111 -215 OFFCURVE",
"180 -138 OFFCURVE",
"181 10 CURVE SMOOTH"
);
},
{
closed = 1;
nodes = (
"198 679 OFFCURVE",
"178 698 OFFCURVE",
"151 698 CURVE SMOOTH",
"123 698 OFFCURVE",
"105 679 OFFCURVE",
"105 651 CURVE SMOOTH",
"105 623 OFFCURVE",
"123 606 OFFCURVE",
"151 606 CURVE SMOOTH",
"178 606 OFFCURVE",
"198 623 OFFCURVE",
"198 651 CURVE SMOOTH"
);
}
);
};
layerId = "ECFE7DEB-F40D-44C7-B7CF-D3B40F3B51F8";
paths = (
{
closed = 1;
nodes = (
"174 -185 OFFCURVE",
"229 -118 OFFCURVE",
"229 -7 CURVE SMOOTH",
"229 500 LINE",
"87 500 LINE",
"87 -10 LINE SMOOTH",
"87 -54 OFFCURVE",
"61 -77 OFFCURVE",
"7 -77 CURVE SMOOTH",
"-15 -77 OFFCURVE",
"-34 -77 OFFCURVE",
"-64 -73 CURVE",
"-72 -171 LINE",
"-33 -183 OFFCURVE",
"14 -185 OFFCURVE",
"36 -185 CURVE SMOOTH"
);
},
{
closed = 1;
nodes = (
"209 548 OFFCURVE",
"245 578 OFFCURVE",
"245 624 CURVE SMOOTH",
"245 670 OFFCURVE",
"209 700 OFFCURVE",
"155 700 CURVE SMOOTH",
"101 700 OFFCURVE",
"65 670 OFFCURVE",
"65 624 CURVE SMOOTH",
"65 578 OFFCURVE",
"101 548 OFFCURVE",
"155 548 CURVE SMOOTH"
);
}
);
width = 295;
}
);
note = j;
unicode = 006A;
},
{
color = 4;
glyphname = k;
lastChange = "2018-05-16 09:35:42 +0000";
layers = (
{
anchors = (
{
name = bottom;
position = "{230, 0}";
},
{
name = top;
position = "{230, 750}";
}
);
background = {
paths = (
{
closed = 1;
nodes = (
"220 293 LINE",
"435 495 LINE",
"376 507 LINE",
"128 275 LINE",
"128 742 LINE",
"70 742 LINE",
"70 0 LINE",
"128 0 LINE",
"128 210 LINE",
"179 260 LINE",
"417 -15 LINE",
"475 1 LINE"
);
}
);
};
layerId = "0B1DFD06-3317-40CA-B510-4969A0718C16";
paths = (
{
closed = 1;
nodes = (
"126 0 LINE",
"126 180 LINE",
"439 500 LINE",
"373 500 LINE",
"126 248 LINE",
"126 742 LINE",
"70 742 LINE",
"70 0 LINE"
);
},
{
closed = 1;
nodes = (
"449 0 LINE",
"245 309 LINE",
"208 272 LINE",
"384 0 LINE"
);
}
);
width = 459;
},
{
anchors = (
{
name = bottom;
position = "{271, 0}";
},
{
name = top;
position = "{271, 750}";
}
);
background = {
paths = (
{
closed = 1;
nodes = (
"214 293 LINE",
"429 495 LINE",
"370 507 LINE",
"122 275 LINE",
"122 742 LINE",
"64 742 LINE",
"64 0 LINE",
"122 0 LINE",
"122 210 LINE",
"173 260 LINE",
"411 -15 LINE",
"469 1 LINE"
);
}
);
};
layerId = "ECFE7DEB-F40D-44C7-B7CF-D3B40F3B51F8";
paths = (
{
closed = 1;
nodes = (
"186 0 LINE",
"186 173 LINE",
"524 500 LINE",
"348 500 LINE",
"186 343 LINE",
"186 742 LINE",
"44 742 LINE",
"44 0 LINE"
);
},
{
closed = 1;
nodes = (
"544 0 LINE",
"330 342 LINE",
"231 246 LINE",
"384 0 LINE"
);
}
);
width = 544;
}
);
note = k;
unicode = 006B;
},
{
color = 4;
glyphname = l;
lastChange = "2018-05-16 09:35:42 +0000";
layers = (
{
anchors = (
{
name = bottom;
position = "{171, 0}";
},
{
name = center;
position = "{238, 311}";
},
{
name = top;
position = "{109, 742}";
},
{
name = topright;
position = "{278, 500}";
}
);
background = {
paths = (
{
closed = 1;
nodes = (
"214 41 OFFCURVE",
"176 66 OFFCURVE",
"157 118 CURVE SMOOTH",
"144 150 OFFCURVE",
"138 201 OFFCURVE",
"138 273 CURVE SMOOTH",
"138 742 LINE",
"80 742 LINE",
"80 251 LINE SMOOTH",
"80 82 OFFCURVE",
"142 -4 OFFCURVE",
"266 -10 CURVE",
"272 40 LINE"
);
}
);
};
layerId = "0B1DFD06-3317-40CA-B510-4969A0718C16";
paths = (
{
closed = 1;
nodes = (
"197 -10 OFFCURVE",
"223 -5 OFFCURVE",
"246 9 CURVE",
"236 48 LINE",
"218 41 OFFCURVE",
"204 38 OFFCURVE",
"191 38 CURVE SMOOTH",
"147 38 OFFCURVE",
"136 60 OFFCURVE",
"136 116 CURVE SMOOTH",
"136 742 LINE",
"80 742 LINE",
"80 112 LINE SMOOTH",
"80 12 OFFCURVE",
"124 -10 OFFCURVE",
"173 -10 CURVE SMOOTH"
);
}
);
width = 286;
},
{
anchors = (
{
name = bottom;
position = "{185, 0}";
},
{
name = center;
position = "{277, 375}";
},
{
name = top;
position = "{149, 750}";
},
{
name = topright;
position = "{298, 572}";
}
);
background = {
paths = (
{
closed = 1;
nodes = (
"214 41 OFFCURVE",
"176 66 OFFCURVE",
"157 118 CURVE SMOOTH",
"144 150 OFFCURVE",
"138 201 OFFCURVE",
"138 273 CURVE SMOOTH",
"138 742 LINE",
"80 742 LINE",
"80 251 LINE SMOOTH",
"80 82 OFFCURVE",
"142 -4 OFFCURVE",
"266 -10 CURVE",
"272 40 LINE"
);
}
);
};
layerId = "ECFE7DEB-F40D-44C7-B7CF-D3B40F3B51F8";
paths = (
{
closed = 1;
nodes = (
"240 -10 OFFCURVE",
"285 3 OFFCURVE",
"316 27 CURVE",
"295 101 LINE",
"276 93 OFFCURVE",
"255 87 OFFCURVE",
"236 87 CURVE SMOOTH",
"207 87 OFFCURVE",
"192 99 OFFCURVE",
"192 123 CURVE SMOOTH",
"192 742 LINE",
"50 742 LINE",
"50 126 LINE SMOOTH",
"50 37 OFFCURVE",
"100 -10 OFFCURVE",
"189 -10 CURVE SMOOTH"
);
}
);
width = 310;
}
);
note = l;
unicode = 006C;
},
{
color = 4;
glyphname = m;
lastChange = "2018-05-16 09:35:42 +0000";
layers = (
{
anchors = (
{
name = bottom;
position = "{418, 0}";
},
{
name = top;
position = "{418, 500}";
}
);
background = {
paths = (
{
closed = 1;
nodes = (
"801 278 LINE SMOOTH",
"801 420 OFFCURVE",
"735 510 OFFCURVE",
"625 510 CURVE SMOOTH",
"544 510 OFFCURVE",
"485 473 OFFCURVE",
"445 398 CURVE",
"411 473 OFFCURVE",
"362 510 OFFCURVE",
"294 510 CURVE SMOOTH",
"220 510 OFFCURVE",
"165 476 OFFCURVE",
"126 410 CURVE",
"125 450 OFFCURVE",
"122 479 OFFCURVE",
"115 500 CURVE",
"60 500 LINE",
"68 444 OFFCURVE",
"70 403 OFFCURVE",
"70 376 CURVE SMOOTH",
"70 0 LINE",
"128 0 LINE",
"128 303 LINE SMOOTH",
"128 343 OFFCURVE",
"144 378 OFFCURVE",
"175 412 CURVE SMOOTH",
"206 445 OFFCURVE",
"241 463 OFFCURVE",
"281 463 CURVE SMOOTH",
"364 463 OFFCURVE",
"407 410 OFFCURVE",
"407 303 CURVE SMOOTH",
"407 0 LINE",
"464 0 LINE",
"464 318 LINE SMOOTH",
"464 354 OFFCURVE",
"479 388 OFFCURVE",
"507 417 CURVE SMOOTH",
"536 448 OFFCURVE",
"570 463 OFFCURVE",
"608 463 CURVE SMOOTH",
"697 463 OFFCURVE",
"744 390 OFFCURVE",
"744 276 CURVE SMOOTH",
"744 0 LINE",
"801 0 LINE"
);
}
);
};
layerId = "0B1DFD06-3317-40CA-B510-4969A0718C16";
paths = (
{
closed = 1;
nodes = (
"126 0 LINE",
"126 303 LINE SMOOTH",
"126 381 OFFCURVE",
"192 465 OFFCURVE",
"271 465 CURVE SMOOTH",
"354 465 OFFCURVE",
"390 410 OFFCURVE",
"390 303 CURVE SMOOTH",
"390 0 LINE",
"446 0 LINE",
"446 306 LINE SMOOTH",
"446 394 OFFCURVE",
"502 465 OFFCURVE",
"583 465 CURVE SMOOTH",
"665 465 OFFCURVE",
"710 408 OFFCURVE",
"710 307 CURVE SMOOTH",
"710 0 LINE",
"766 0 LINE",
"766 309 LINE SMOOTH",
"766 436 OFFCURVE",
"701 510 OFFCURVE",
"593 510 CURVE SMOOTH",
"517 510 OFFCURVE",
"453 465 OFFCURVE",
"427 398 CURVE",
"406 473 OFFCURVE",
"350 510 OFFCURVE",
"282 510 CURVE SMOOTH",
"213 510 OFFCURVE",
"156 473 OFFCURVE",
"124 410 CURVE",
"120 410 LINE",
"121 444 OFFCURVE",
"119 475 OFFCURVE",
"117 500 CURVE",
"67 500 LINE",
"69 475 OFFCURVE",
"70 434 OFFCURVE",
"70 378 CURVE SMOOTH",
"70 0 LINE"
);
}
);
width = 836;
},
{
anchors = (
{
name = bottom;
position = "{419, 0}";
},
{
name = top;
position = "{419, 500}";
}
);
background = {
paths = (
{
closed = 1;
nodes = (
"780 278 LINE SMOOTH",
"780 420 OFFCURVE",
"714 510 OFFCURVE",
"604 510 CURVE SMOOTH",
"523 510 OFFCURVE",
"464 473 OFFCURVE",
"424 398 CURVE",
"390 473 OFFCURVE",
"341 510 OFFCURVE",
"273 510 CURVE SMOOTH",
"199 510 OFFCURVE",
"144 476 OFFCURVE",
"105 410 CURVE",
"104 450 OFFCURVE",
"101 479 OFFCURVE",
"94 500 CURVE",
"39 500 LINE",
"47 444 OFFCURVE",
"49 403 OFFCURVE",
"49 376 CURVE SMOOTH",
"49 0 LINE",
"107 0 LINE",
"107 303 LINE SMOOTH",
"107 343 OFFCURVE",
"123 378 OFFCURVE",
"154 412 CURVE SMOOTH",
"185 445 OFFCURVE",
"220 463 OFFCURVE",
"260 463 CURVE SMOOTH",
"343 463 OFFCURVE",
"386 410 OFFCURVE",
"386 303 CURVE SMOOTH",
"386 0 LINE",
"443 0 LINE",
"443 318 LINE SMOOTH",
"443 354 OFFCURVE",
"458 388 OFFCURVE",
"486 417 CURVE SMOOTH",
"515 448 OFFCURVE",
"549 463 OFFCURVE",
"587 463 CURVE SMOOTH",
"676 463 OFFCURVE",
"723 390 OFFCURVE",
"723 276 CURVE SMOOTH",
"723 0 LINE",
"780 0 LINE"
);
}
);
};
layerId = "ECFE7DEB-F40D-44C7-B7CF-D3B40F3B51F8";
paths = (
{
closed = 1;
nodes = (
"183 -1 LINE",
"183 288 LINE SMOOTH",
"183 354 OFFCURVE",
"219 395 OFFCURVE",
"272 395 CURVE SMOOTH",
"323 395 OFFCURVE",
"349 356 OFFCURVE",
"349 288 CURVE SMOOTH",
"349 -1 LINE",
"489 -1 LINE",
"489 291 LINE SMOOTH",
"489 357 OFFCURVE",
"522 395 OFFCURVE",
"577 395 CURVE SMOOTH",
"628 395 OFFCURVE",
"655 361 OFFCURVE",
"655 292 CURVE SMOOTH",
"655 -1 LINE",
"796 -1 LINE",
"796 309 LINE SMOOTH",
"796 436 OFFCURVE",
"728 510 OFFCURVE",
"617 510 CURVE SMOOTH",
"547 510 OFFCURVE",
"495 480 OFFCURVE",
"467 427 CURVE",
"451 478 OFFCURVE",
"396 510 OFFCURVE",
"331 510 CURVE SMOOTH",
"256 510 OFFCURVE",
"187 469 OFFCURVE",
"169 413 CURVE",
"167 413 LINE",
"168 447 OFFCURVE",
"165 468 OFFCURVE",
"162 500 CURVE",
"35 500 LINE",
"39 462 OFFCURVE",
"42 400 OFFCURVE",
"42 365 CURVE SMOOTH",
"42 -1 LINE"
);
}
);
width = 844;
}
);
note = m;
unicode = 006D;
},
{
color = 4;
glyphname = n;
lastChange = "2018-05-16 09:35:42 +0000";
layers = (
{
anchors = (
{
name = bottom;
position = "{271, 0}";
},
{
name = top;
position = "{271, 500}";
}
);
background = {
paths = (
{
closed = 1;
nodes = (
"497 284 LINE SMOOTH",
"497 435 OFFCURVE",
"432 510 OFFCURVE",
"301 510 CURVE SMOOTH",
"226 510 OFFCURVE",
"171 476 OFFCURVE",
"132 410 CURVE",
"131 450 OFFCURVE",
"128 479 OFFCURVE",
"121 500 CURVE",
"66 500 LINE",
"74 444 OFFCURVE",
"76 403 OFFCURVE",
"76 376 CURVE SMOOTH",
"76 0 LINE",
"134 0 LINE",
"134 303 LINE SMOOTH",
"134 343 OFFCURVE",
"150 378 OFFCURVE",
"181 412 CURVE SMOOTH",
"213 445 OFFCURVE",
"250 463 OFFCURVE",
"290 463 CURVE SMOOTH",
"390 463 OFFCURVE",
"440 403 OFFCURVE",
"440 284 CURVE SMOOTH",
"440 0 LINE",
"497 0 LINE"
);
}
);
};
layerId = "0B1DFD06-3317-40CA-B510-4969A0718C16";
paths = (
{
closed = 1;
nodes = (
"126 0 LINE",
"126 274 LINE SMOOTH",
"126 386 OFFCURVE",
"199 465 OFFCURVE",
"293 465 CURVE SMOOTH",
"383 465 OFFCURVE",
"416 394 OFFCURVE",
"416 285 CURVE SMOOTH",
"416 0 LINE",
"472 0 LINE",
"472 284 LINE SMOOTH",
"472 420 OFFCURVE",
"424 510 OFFCURVE",
"296 510 CURVE SMOOTH",
"227 510 OFFCURVE",
"158 477 OFFCURVE",
"124 410 CURVE",
"120 410 LINE",
"121 444 OFFCURVE",
"119 475 OFFCURVE",
"117 500 CURVE",
"67 500 LINE",
"69 475 OFFCURVE",
"70 434 OFFCURVE",
"70 378 CURVE SMOOTH",
"70 0 LINE"
);
}
);
width = 542;
},
{
anchors = (
{
name = bottom;
position = "{279, 0}";
},
{
name = top;
position = "{279, 500}";
}
);
background = {
paths = (
{
closed = 1;
nodes = (
"490 284 LINE SMOOTH",
"490 435 OFFCURVE",
"425 510 OFFCURVE",
"294 510 CURVE SMOOTH",
"219 510 OFFCURVE",
"164 476 OFFCURVE",
"125 410 CURVE",
"124 450 OFFCURVE",
"121 479 OFFCURVE",
"114 500 CURVE",
"59 500 LINE",
"67 444 OFFCURVE",
"69 403 OFFCURVE",
"69 376 CURVE SMOOTH",
"69 0 LINE",
"127 0 LINE",
"127 303 LINE SMOOTH",
"127 343 OFFCURVE",
"143 378 OFFCURVE",
"174 412 CURVE SMOOTH",
"206 445 OFFCURVE",
"243 463 OFFCURVE",
"283 463 CURVE SMOOTH",
"383 463 OFFCURVE",
"433 403 OFFCURVE",
"433 284 CURVE SMOOTH",
"433 0 LINE",
"490 0 LINE"
);
}
);
};
layerId = "ECFE7DEB-F40D-44C7-B7CF-D3B40F3B51F8";
paths = (
{
closed = 1;
nodes = (
"183 0 LINE",
"183 273 LINE SMOOTH",
"183 347 OFFCURVE",
"228 395 OFFCURVE",
"294 395 CURVE SMOOTH",
"355 395 OFFCURVE",
"374 354 OFFCURVE",
"374 281 CURVE SMOOTH",
"374 0 LINE",
"516 0 LINE",
"516 280 LINE SMOOTH",
"516 433 OFFCURVE",
"456 510 OFFCURVE",
"342 510 CURVE SMOOTH",
"260 510 OFFCURVE",
"199 466 OFFCURVE",
"178 413 CURVE",
"176 413 LINE",
"177 446 OFFCURVE",
"176 470 OFFCURVE",
"170 500 CURVE",
"35 500 LINE",
"38 468 OFFCURVE",
"41 405 OFFCURVE",
"41 366 CURVE SMOOTH",
"41 0 LINE"
);
}
);
width = 558;
}
);
note = n;
unicode = 006E;
},
{
color = 4;
glyphname = o;
lastChange = "2018-05-16 09:35:42 +0000";
layers = (
{
anchors = (
{
name = bottom;
position = "{272, 0}";
},
{
name = center;
position = "{272, 250}";
},
{
name = ogonek;
position = "{286, 10}";
},
{
name = top;
position = "{272, 500}";
},
{
name = topright;
position = "{466, 306}";
}
);
background = {
paths = (
{
closed = 1;
nodes = (
"543 322 OFFCURVE",
"519 384 OFFCURVE",
"474 434 CURVE SMOOTH",
"428 485 OFFCURVE",
"367 510 OFFCURVE",
"292 510 CURVE SMOOTH",
"217 510 OFFCURVE",
"155 485 OFFCURVE",
"109 434 CURVE SMOOTH",
"64 384 OFFCURVE",
"40 322 OFFCURVE",
"40 248 CURVE SMOOTH",
"40 175 OFFCURVE",
"64 113 OFFCURVE",
"109 62 CURVE SMOOTH",
"155 10 OFFCURVE",
"217 -15 OFFCURVE",
"292 -15 CURVE SMOOTH",
"367 -15 OFFCURVE",
"428 10 OFFCURVE",
"474 62 CURVE SMOOTH",
"519 113 OFFCURVE",
"543 175 OFFCURVE",
"543 248 CURVE SMOOTH"
);
},
{
closed = 1;
nodes = (
"487 188 OFFCURVE",
"468 137 OFFCURVE",
"431 96 CURVE SMOOTH",
"394 54 OFFCURVE",
"349 34 OFFCURVE",
"292 34 CURVE SMOOTH",
"234 34 OFFCURVE",
"187 54 OFFCURVE",
"150 96 CURVE SMOOTH",
"114 137 OFFCURVE",
"96 188 OFFCURVE",
"96 248 CURVE SMOOTH",
"96 309 OFFCURVE",
"114 360 OFFCURVE",
"150 400 CURVE SMOOTH",
"187 441 OFFCURVE",
"234 462 OFFCURVE",
"292 462 CURVE SMOOTH",
"349 462 OFFCURVE",
"394 441 OFFCURVE",
"431 400 CURVE SMOOTH",
"468 360 OFFCURVE",
"487 309 OFFCURVE",
"487 248 CURVE SMOOTH"
);
}
);
};
layerId = "0B1DFD06-3317-40CA-B510-4969A0718C16";
paths = (
{
closed = 1;
nodes = (
"417 -10 OFFCURVE",
"504 94 OFFCURVE",
"504 250 CURVE SMOOTH",
"504 406 OFFCURVE",
"417 510 OFFCURVE",
"272 510 CURVE SMOOTH",
"127 510 OFFCURVE",
"40 406 OFFCURVE",
"40 250 CURVE SMOOTH",
"40 94 OFFCURVE",
"127 -10 OFFCURVE",
"272 -10 CURVE SMOOTH"
);
},
{
closed = 1;
nodes = (
"160 35 OFFCURVE",
"96 121 OFFCURVE",
"96 250 CURVE SMOOTH",
"96 379 OFFCURVE",
"160 465 OFFCURVE",
"272 465 CURVE SMOOTH",
"384 465 OFFCURVE",
"448 379 OFFCURVE",
"448 250 CURVE SMOOTH",
"448 121 OFFCURVE",
"384 35 OFFCURVE",
"272 35 CURVE SMOOTH"
);
}
);
width = 544;
},
{
anchors = (
{
name = bottom;
position = "{291, 0}";
},
{
name = center;
position = "{291, 250}";
},
{
name = ogonek;
position = "{292, 10}";
},
{
name = top;
position = "{291, 500}";
},
{
name = topright;
position = "{504, 306}";
}
);
background = {
paths = (
{
closed = 1;
nodes = (
"550 322 OFFCURVE",
"526 384 OFFCURVE",
"481 434 CURVE SMOOTH",
"435 485 OFFCURVE",
"374 510 OFFCURVE",
"299 510 CURVE SMOOTH",
"224 510 OFFCURVE",
"162 485 OFFCURVE",
"116 434 CURVE SMOOTH",
"71 384 OFFCURVE",
"47 322 OFFCURVE",
"47 248 CURVE SMOOTH",
"47 175 OFFCURVE",
"71 113 OFFCURVE",
"116 62 CURVE SMOOTH",
"162 10 OFFCURVE",
"224 -15 OFFCURVE",
"299 -15 CURVE SMOOTH",
"374 -15 OFFCURVE",
"435 10 OFFCURVE",
"481 62 CURVE SMOOTH",
"526 113 OFFCURVE",
"550 175 OFFCURVE",
"550 248 CURVE SMOOTH"
);
},
{
closed = 1;
nodes = (
"494 188 OFFCURVE",
"475 137 OFFCURVE",
"438 96 CURVE SMOOTH",
"401 54 OFFCURVE",
"356 34 OFFCURVE",
"299 34 CURVE SMOOTH",
"241 34 OFFCURVE",
"194 54 OFFCURVE",
"157 96 CURVE SMOOTH",
"121 137 OFFCURVE",
"103 188 OFFCURVE",
"103 248 CURVE SMOOTH",
"103 309 OFFCURVE",
"121 360 OFFCURVE",
"157 400 CURVE SMOOTH",
"194 441 OFFCURVE",
"241 462 OFFCURVE",
"299 462 CURVE SMOOTH",
"356 462 OFFCURVE",
"401 441 OFFCURVE",
"438 400 CURVE SMOOTH",
"475 360 OFFCURVE",
"494 309 OFFCURVE",
"494 248 CURVE SMOOTH"
);
}
);
};
layerId = "ECFE7DEB-F40D-44C7-B7CF-D3B40F3B51F8";
paths = (
{
closed = 1;
nodes = (
"456 -10 OFFCURVE",
"554 87 OFFCURVE",
"554 250 CURVE SMOOTH",
"554 413 OFFCURVE",
"456 510 OFFCURVE",
"291 510 CURVE SMOOTH",
"126 510 OFFCURVE",
"28 413 OFFCURVE",
"28 250 CURVE SMOOTH",
"28 87 OFFCURVE",
"126 -10 OFFCURVE",
"291 -10 CURVE SMOOTH"
);
},
{
closed = 1;
nodes = (
"215 95 OFFCURVE",
"170 153 OFFCURVE",
"170 250 CURVE SMOOTH",
"170 347 OFFCURVE",
"215 405 OFFCURVE",
"291 405 CURVE SMOOTH",
"367 405 OFFCURVE",
"412 347 OFFCURVE",
"412 250 CURVE SMOOTH",
"412 153 OFFCURVE",
"367 95 OFFCURVE",
"291 95 CURVE SMOOTH"
);
}
);
width = 582;
}
);
note = o;
unicode = 006F;
},
{
color = 4;
glyphname = p;
lastChange = "2018-05-16 09:35:42 +0000";
layers = (
{
anchors = (
{
name = bottom;
position = "{267, 0}";
},
{
name = top;
position = "{267, 500}";
}
);
background = {
paths = (
{
closed = 1;
nodes = (
"548 401 OFFCURVE",
"457 510 OFFCURVE",
"315 510 CURVE SMOOTH",
"237 510 OFFCURVE",
"173 476 OFFCURVE",
"128 409 CURVE",
"128 442 OFFCURVE",
"126 472 OFFCURVE",
"125 497 CURVE",
"72 497 LINE",
"75 472 OFFCURVE",
"76 432 OFFCURVE",
"76 375 CURVE SMOOTH",
"76 -245 LINE",
"134 -245 LINE",
"134 93 LINE",
"176 22 OFFCURVE",
"240 -13 OFFCURVE",
"323 -13 CURVE SMOOTH",
"392 -13 OFFCURVE",
"448 12 OFFCURVE",
"490 62 CURVE SMOOTH",
"529 107 OFFCURVE",
"548 168 OFFCURVE",
"548 241 CURVE SMOOTH"
);
},
{
closed = 1;
nodes = (
"494 181 OFFCURVE",
"479 131 OFFCURVE",
"448 93 CURVE SMOOTH",
"415 53 OFFCURVE",
"370 32 OFFCURVE",
"313 32 CURVE SMOOTH",
"266 32 OFFCURVE",
"225 49 OFFCURVE",
"191 81 CURVE",
"153 115 OFFCURVE",
"134 159 OFFCURVE",
"134 213 CURVE SMOOTH",
"134 297 LINE SMOOTH",
"134 391 OFFCURVE",
"209 462 OFFCURVE",
"307 462 CURVE SMOOTH",
"429 462 OFFCURVE",
"494 379 OFFCURVE",
"494 243 CURVE SMOOTH"
);
}
);
};
layerId = "0B1DFD06-3317-40CA-B510-4969A0718C16";
paths = (
{
closed = 1;
nodes = (
"126 -242 LINE",
"126 78 LINE",
"128 78 LINE",
"153 22 OFFCURVE",
"214 -10 OFFCURVE",
"284 -10 CURVE SMOOTH",
"415 -10 OFFCURVE",
"494 100 OFFCURVE",
"494 251 CURVE SMOOTH",
"494 412 OFFCURVE",
"416 510 OFFCURVE",
"286 510 CURVE SMOOTH",
"220 510 OFFCURVE",
"149 472 OFFCURVE",
"122 412 CURVE",
"120 412 LINE",
"121 446 OFFCURVE",
"119 475 OFFCURVE",
"117 500 CURVE",
"67 500 LINE",
"69 475 OFFCURVE",
"70 434 OFFCURVE",
"70 378 CURVE SMOOTH",
"70 -242 LINE"
);
},
{
closed = 1;
nodes = (
"185 35 OFFCURVE",
"126 107 OFFCURVE",
"126 216 CURVE SMOOTH",
"126 300 LINE SMOOTH",
"126 397 OFFCURVE",
"193 462 OFFCURVE",
"281 462 CURVE SMOOTH",
"380 462 OFFCURVE",
"438 384 OFFCURVE",
"438 253 CURVE SMOOTH",
"438 128 OFFCURVE",
"380 35 OFFCURVE",
"281 35 CURVE SMOOTH"
);
}
);
width = 534;
},
{
anchors = (
{
name = bottom;
position = "{240, 0}";
},
{
name = top;
position = "{240, 500}";
}
);
background = {
paths = (
{
closed = 1;
nodes = (
"508 401 OFFCURVE",
"417 510 OFFCURVE",
"275 510 CURVE SMOOTH",
"197 510 OFFCURVE",
"133 476 OFFCURVE",
"88 409 CURVE",
"88 442 OFFCURVE",
"86 472 OFFCURVE",
"85 497 CURVE",
"32 497 LINE",
"35 472 OFFCURVE",
"36 432 OFFCURVE",
"36 375 CURVE SMOOTH",
"36 -245 LINE",
"94 -245 LINE",
"94 93 LINE",
"136 22 OFFCURVE",
"200 -13 OFFCURVE",
"283 -13 CURVE SMOOTH",
"352 -13 OFFCURVE",
"408 12 OFFCURVE",
"450 62 CURVE SMOOTH",
"489 107 OFFCURVE",
"508 168 OFFCURVE",
"508 241 CURVE SMOOTH"
);
},
{
closed = 1;
nodes = (
"454 181 OFFCURVE",
"439 131 OFFCURVE",
"408 93 CURVE SMOOTH",
"375 53 OFFCURVE",
"330 32 OFFCURVE",
"273 32 CURVE SMOOTH",
"226 32 OFFCURVE",
"185 49 OFFCURVE",
"151 81 CURVE",
"113 115 OFFCURVE",
"94 159 OFFCURVE",
"94 213 CURVE SMOOTH",
"94 297 LINE SMOOTH",
"94 391 OFFCURVE",
"169 462 OFFCURVE",
"267 462 CURVE SMOOTH",
"389 462 OFFCURVE",
"454 379 OFFCURVE",
"454 243 CURVE SMOOTH"
);
}
);
};
layerId = "ECFE7DEB-F40D-44C7-B7CF-D3B40F3B51F8";
paths = (
{
closed = 1;
nodes = (
"190 -242 LINE",
"190 46 LINE",
"193 46 LINE",
"215 14 OFFCURVE",
"263 -10 OFFCURVE",
"330 -10 CURVE SMOOTH",
"465 -10 OFFCURVE",
"539 91 OFFCURVE",
"539 249 CURVE SMOOTH",
"539 417 OFFCURVE",
"457 510 OFFCURVE",
"334 510 CURVE SMOOTH",
"268 510 OFFCURVE",
"216 484 OFFCURVE",
"183 438 CURVE",
"181 438 LINE",
"181 449 OFFCURVE",
"179 479 OFFCURVE",
"178 500 CURVE",
"43 500 LINE",
"45 480 OFFCURVE",
"48 416 OFFCURVE",
"48 365 CURVE SMOOTH",
"48 -242 LINE"
);
},
{
closed = 1;
nodes = (
"238 95 OFFCURVE",
"190 139 OFFCURVE",
"190 194 CURVE SMOOTH",
"190 301 LINE SMOOTH",
"190 365 OFFCURVE",
"239 402 OFFCURVE",
"299 402 CURVE SMOOTH",
"363 402 OFFCURVE",
"397 355 OFFCURVE",
"397 253 CURVE SMOOTH",
"397 153 OFFCURVE",
"364 95 OFFCURVE",
"297 95 CURVE SMOOTH"
);
}
);
width = 560;
}
);
note = p;
unicode = 0070;
},
{
color = 4;
glyphname = q;
lastChange = "2018-05-16 09:35:42 +0000";
layers = (
{
anchors = (
{
name = bottom;
position = "{267, 0}";
},
{
name = top;
position = "{267, 500}";
}
);
background = {
paths = (
{
closed = 1;
nodes = (
"517 375 LINE SMOOTH",
"517 432 OFFCURVE",
"518 472 OFFCURVE",
"521 497 CURVE",
"468 497 LINE",
"467 472 OFFCURVE",
"465 442 OFFCURVE",
"465 409 CURVE",
"420 476 OFFCURVE",
"357 510 OFFCURVE",
"279 510 CURVE SMOOTH",
"136 510 OFFCURVE",
"45 401 OFFCURVE",
"45 241 CURVE SMOOTH",
"45 168 OFFCURVE",
"64 107 OFFCURVE",
"104 62 CURVE SMOOTH",
"145 12 OFFCURVE",
"201 -13 OFFCURVE",
"270 -13 CURVE SMOOTH",
"354 -13 OFFCURVE",
"417 22 OFFCURVE",
"460 93 CURVE",
"460 -245 LINE",
"517 -245 LINE"
);
},
{
closed = 1;
nodes = (
"460 213 LINE SMOOTH",
"460 159 OFFCURVE",
"440 115 OFFCURVE",
"402 81 CURVE",
"368 49 OFFCURVE",
"327 32 OFFCURVE",
"280 32 CURVE SMOOTH",
"223 32 OFFCURVE",
"179 53 OFFCURVE",
"145 93 CURVE SMOOTH",
"114 131 OFFCURVE",
"99 181 OFFCURVE",
"99 243 CURVE SMOOTH",
"99 379 OFFCURVE",
"164 462 OFFCURVE",
"286 462 CURVE SMOOTH",
"385 462 OFFCURVE",
"460 391 OFFCURVE",
"460 297 CURVE SMOOTH"
);
}
);
};
layerId = "0B1DFD06-3317-40CA-B510-4969A0718C16";
paths = (
{
closed = 1;
nodes = (
"464 -242 LINE",
"464 378 LINE SMOOTH",
"464 434 OFFCURVE",
"465 475 OFFCURVE",
"467 500 CURVE",
"417 500 LINE",
"415 475 OFFCURVE",
"413 446 OFFCURVE",
"414 412 CURVE",
"412 412 LINE",
"386 474 OFFCURVE",
"313 510 OFFCURVE",
"248 510 CURVE SMOOTH",
"118 510 OFFCURVE",
"40 412 OFFCURVE",
"40 251 CURVE SMOOTH",
"40 100 OFFCURVE",
"119 -10 OFFCURVE",
"250 -10 CURVE SMOOTH",
"319 -10 OFFCURVE",
"378 25 OFFCURVE",
"406 78 CURVE",
"408 78 LINE",
"408 -242 LINE"
);
},
{
closed = 1;
nodes = (
"154 35 OFFCURVE",
"96 128 OFFCURVE",
"96 253 CURVE SMOOTH",
"96 384 OFFCURVE",
"154 462 OFFCURVE",
"253 462 CURVE SMOOTH",
"341 462 OFFCURVE",
"408 397 OFFCURVE",
"408 300 CURVE SMOOTH",
"408 216 LINE SMOOTH",
"408 107 OFFCURVE",
"349 35 OFFCURVE",
"253 35 CURVE SMOOTH"
);
}
);
width = 534;
},
{
anchors = (
{
name = bottom;
position = "{279, 0}";
},
{
name = top;
position = "{279, 500}";
}
);
background = {
paths = (
{
closed = 1;
nodes = (
"517 375 LINE SMOOTH",
"517 432 OFFCURVE",
"518 472 OFFCURVE",
"521 497 CURVE",
"468 497 LINE",
"467 472 OFFCURVE",
"465 442 OFFCURVE",
"465 409 CURVE",
"420 476 OFFCURVE",
"357 510 OFFCURVE",
"279 510 CURVE SMOOTH",
"136 510 OFFCURVE",
"45 401 OFFCURVE",
"45 241 CURVE SMOOTH",
"45 168 OFFCURVE",
"64 107 OFFCURVE",
"104 62 CURVE SMOOTH",
"145 12 OFFCURVE",
"201 -13 OFFCURVE",
"270 -13 CURVE SMOOTH",
"354 -13 OFFCURVE",
"417 22 OFFCURVE",
"460 93 CURVE",
"460 -245 LINE",
"517 -245 LINE"
);
},
{
closed = 1;
nodes = (
"460 213 LINE SMOOTH",
"460 159 OFFCURVE",
"440 115 OFFCURVE",
"402 81 CURVE",
"368 49 OFFCURVE",
"327 32 OFFCURVE",
"280 32 CURVE SMOOTH",
"223 32 OFFCURVE",
"179 53 OFFCURVE",
"145 93 CURVE SMOOTH",
"114 131 OFFCURVE",
"99 181 OFFCURVE",
"99 243 CURVE SMOOTH",
"99 379 OFFCURVE",
"164 462 OFFCURVE",
"286 462 CURVE SMOOTH",
"385 462 OFFCURVE",
"460 391 OFFCURVE",
"460 297 CURVE SMOOTH"
);
}
);
};
layerId = "ECFE7DEB-F40D-44C7-B7CF-D3B40F3B51F8";
paths = (
{
closed = 1;
nodes = (
"513 -242 LINE",
"513 365 LINE SMOOTH",
"513 408 OFFCURVE",
"516 476 OFFCURVE",
"518 500 CURVE",
"383 500 LINE",
"381 489 OFFCURVE",
"380 474 OFFCURVE",
"380 443 CURVE",
"378 443 LINE",
"349 485 OFFCURVE",
"297 510 OFFCURVE",
"231 510 CURVE SMOOTH",
"100 510 OFFCURVE",
"22 413 OFFCURVE",
"22 250 CURVE SMOOTH",
"22 87 OFFCURVE",
"99 -10 OFFCURVE",
"228 -10 CURVE SMOOTH",
"290 -10 OFFCURVE",
"342 13 OFFCURVE",
"368 51 CURVE",
"371 51 LINE",
"371 -242 LINE"
);
},
{
closed = 1;
nodes = (
"199 95 OFFCURVE",
"164 150 OFFCURVE",
"164 253 CURVE SMOOTH",
"164 353 OFFCURVE",
"197 402 OFFCURVE",
"262 402 CURVE SMOOTH",
"326 402 OFFCURVE",
"371 361 OFFCURVE",
"371 301 CURVE SMOOTH",
"371 194 LINE SMOOTH",
"371 139 OFFCURVE",
"323 95 OFFCURVE",
"264 95 CURVE SMOOTH"
);
}
);
width = 561;
}
);
note = q;
unicode = 0071;
},
{
color = 4;
glyphname = r;
lastChange = "2018-05-16 09:35:42 +0000";
layers = (
{
anchors = (
{
name = bottom;
position = "{104, 0}";
},
{
name = top;
position = "{187, 500}";
}
);
background = {
paths = (
{
closed = 1;
nodes = (
"306 507 LINE",
"295 509 OFFCURVE",
"287 510 OFFCURVE",
"278 510 CURVE SMOOTH",
"209 510 OFFCURVE",
"157 473 OFFCURVE",
"126 400 CURVE",
"126 445 OFFCURVE",
"121 478 OFFCURVE",
"110 500 CURVE",
"62 500 LINE",
"72 465 OFFCURVE",
"76 410 OFFCURVE",
"76 337 CURVE SMOOTH",
"76 0 LINE",
"134 0 LINE",
"134 269 LINE SMOOTH",
"134 291 OFFCURVE",
"135 309 OFFCURVE",
"138 319 CURVE SMOOTH",
"163 413 OFFCURVE",
"213 460 OFFCURVE",
"288 460 CURVE SMOOTH",
"297 460 OFFCURVE",
"303 460 OFFCURVE",
"306 459 CURVE"
);
}
);
};
layerId = "0B1DFD06-3317-40CA-B510-4969A0718C16";
paths = (
{
closed = 1;
nodes = (
"132 0 LINE",
"132 269 LINE SMOOTH",
"132 354 OFFCURVE",
"179 460 OFFCURVE",
"288 460 CURVE SMOOTH",
"297 460 OFFCURVE",
"303 460 OFFCURVE",
"306 459 CURVE",
"306 507 LINE",
"295 509 OFFCURVE",
"287 510 OFFCURVE",
"278 510 CURVE SMOOTH",
"209 510 OFFCURVE",
"156 475 OFFCURVE",
"130 402 CURVE",
"127 402 LINE",
"127 412 LINE SMOOTH",
"127 446 OFFCURVE",
"125 475 OFFCURVE",
"123 500 CURVE",
"73 500 LINE",
"75 475 OFFCURVE",
"76 434 OFFCURVE",
"76 378 CURVE SMOOTH",
"76 0 LINE"
);
}
);
width = 319;
},
{
anchors = (
{
name = bottom;
position = "{108, 0}";
},
{
name = top;
position = "{199, 500}";
}
);
background = {
paths = (
{
closed = 1;
nodes = (
"303 507 LINE",
"292 509 OFFCURVE",
"284 510 OFFCURVE",
"275 510 CURVE SMOOTH",
"206 510 OFFCURVE",
"154 473 OFFCURVE",
"123 400 CURVE",
"123 445 OFFCURVE",
"118 478 OFFCURVE",
"107 500 CURVE",
"59 500 LINE",
"69 465 OFFCURVE",
"73 410 OFFCURVE",
"73 337 CURVE SMOOTH",
"73 0 LINE",
"131 0 LINE",
"131 269 LINE SMOOTH",
"131 291 OFFCURVE",
"132 309 OFFCURVE",
"135 319 CURVE SMOOTH",
"160 413 OFFCURVE",
"210 460 OFFCURVE",
"285 460 CURVE SMOOTH",
"294 460 OFFCURVE",
"300 460 OFFCURVE",
"303 459 CURVE"
);
}
);
};
layerId = "ECFE7DEB-F40D-44C7-B7CF-D3B40F3B51F8";
paths = (
{
closed = 1;
nodes = (
"190 0 LINE",
"190 209 LINE SMOOTH",
"190 294 OFFCURVE",
"262 397 OFFCURVE",
"381 397 CURVE SMOOTH",
"391 397 OFFCURVE",
"398 397 OFFCURVE",
"401 396 CURVE",
"401 507 LINE",
"389 509 OFFCURVE",
"379 510 OFFCURVE",
"370 510 CURVE SMOOTH",
"291 510 OFFCURVE",
"215 472 OFFCURVE",
"188 402 CURVE",
"184 402 LINE",
"184 412 LINE SMOOTH",
"184 449 OFFCURVE",
"182 478 OFFCURVE",
"180 500 CURVE",
"45 500 LINE",
"47 475 OFFCURVE",
"48 433 OFFCURVE",
"48 378 CURVE SMOOTH",
"48 0 LINE"
);
}
);
width = 409;
}
);
note = r;
unicode = 0072;
},
{
color = 4;
glyphname = s;
lastChange = "2018-05-16 09:35:42 +0000";
layers = (
{
anchors = (
{
name = bottom;
position = "{201, 0}";
},
{
name = top;
position = "{201, 500}";
}
);
background = {
paths = (
{
closed = 1;
nodes = (
"352 200 OFFCURVE",
"307 248 OFFCURVE",
"218 279 CURVE SMOOTH",
"141 306 OFFCURVE",
"103 338 OFFCURVE",
"103 378 CURVE SMOOTH",
"103 426 OFFCURVE",
"140 465 OFFCURVE",
"203 465 CURVE SMOOTH",
"247 465 OFFCURVE",
"284 453 OFFCURVE",
"313 429 CURVE",
"337 476 LINE",
"306 498 OFFCURVE",
"265 510 OFFCURVE",
"213 510 CURVE SMOOTH",
"109 510 OFFCURVE",
"49 447 OFFCURVE",
"49 370 CURVE SMOOTH",
"49 307 OFFCURVE",
"93 263 OFFCURVE",
"183 235 CURVE SMOOTH",
"260 212 OFFCURVE",
"299 176 OFFCURVE",
"299 128 CURVE SMOOTH",
"299 66 OFFCURVE",
"257 35 OFFCURVE",
"175 35 CURVE SMOOTH",
"140 35 OFFCURVE",
"99 49 OFFCURVE",
"52 74 CURVE",
"30 26 LINE",
"75 0 OFFCURVE",
"122 -13 OFFCURVE",
"171 -13 CURVE SMOOTH",
"284 -13 OFFCURVE",
"352 49 OFFCURVE",
"352 132 CURVE SMOOTH"
);
}
);
};
layerId = "0B1DFD06-3317-40CA-B510-4969A0718C16";
paths = (
{
closed = 1;
nodes = (
"292 -10 OFFCURVE",
"362 46 OFFCURVE",
"362 138 CURVE SMOOTH",
"362 230 OFFCURVE",
"292 263 OFFCURVE",
"227 289 CURVE SMOOTH",
"168 312 OFFCURVE",
"105 333 OFFCURVE",
"105 390 CURVE SMOOTH",
"105 431 OFFCURVE",
"140 465 OFFCURVE",
"203 465 CURVE SMOOTH",
"247 465 OFFCURVE",
"282 446 OFFCURVE",
"306 407 CURVE",
"343 433 LINE",
"316 486 OFFCURVE",
"258 510 OFFCURVE",
"206 510 CURVE SMOOTH",
"106 510 OFFCURVE",
"49 458 OFFCURVE",
"49 387 CURVE SMOOTH",
"49 296 OFFCURVE",
"127 272 OFFCURVE",
"196 245 CURVE SMOOTH",
"250 224 OFFCURVE",
"306 202 OFFCURVE",
"306 137 CURVE SMOOTH",
"306 74 OFFCURVE",
"257 35 OFFCURVE",
"196 35 CURVE SMOOTH",
"148 35 OFFCURVE",
"104 53 OFFCURVE",
"78 93 CURVE",
"40 67 LINE",
"69 13 OFFCURVE",
"137 -10 OFFCURVE",
"193 -10 CURVE SMOOTH"
);
}
);
width = 402;
},
{
anchors = (
{
name = bottom;
position = "{224, 26}";
},
{
name = top;
position = "{224, 474}";
}
);
layerId = "ECFE7DEB-F40D-44C7-B7CF-D3B40F3B51F8";
paths = (
{
closed = 1;
nodes = (
"335 -10 OFFCURVE",
"423 57 OFFCURVE",
"423 155 CURVE SMOOTH",
"423 237 OFFCURVE",
"360 270 OFFCURVE",
"268 308 CURVE SMOOTH",
"204 334 OFFCURVE",
"175 343 OFFCURVE",
"175 371 CURVE SMOOTH",
"175 393 OFFCURVE",
"196 405 OFFCURVE",
"231 405 CURVE SMOOTH",
"266 405 OFFCURVE",
"300 393 OFFCURVE",
"324 365 CURVE",
"406 426 LINE",
"366 481 OFFCURVE",
"302 510 OFFCURVE",
"224 510 CURVE SMOOTH",
"111 510 OFFCURVE",
"34 452 OFFCURVE",
"34 369 CURVE SMOOTH",
"34 285 OFFCURVE",
"115 242 OFFCURVE",
"203 205 CURVE SMOOTH",
"254 184 OFFCURVE",
"281 176 OFFCURVE",
"281 148 CURVE SMOOTH",
"281 116 OFFCURVE",
"249 95 OFFCURVE",
"210 95 CURVE SMOOTH",
"170 95 OFFCURVE",
"132 119 OFFCURVE",
"110 149 CURVE",
"22 89 LINE",
"49 28 OFFCURVE",
"124 -10 OFFCURVE",
"214 -10 CURVE SMOOTH"
);
}
);
width = 445;
}
);
note = s;
unicode = 0073;
},
{
color = 4;
glyphname = t;
lastChange = "2018-05-16 09:35:42 +0000";
layers = (
{
anchors = (
{
name = bottom;
position = "{213, 0}";
},
{
name = center;
position = "{175, 250}";
},
{
name = top;
position = "{130, 653}";
},
{
name = topright;
position = "{274, 500}";
}
);
background = {
paths = (
{
closed = 1;
nodes = (
"294 40 OFFCURVE",
"272 37 OFFCURVE",
"241 37 CURVE SMOOTH",
"191 37 OFFCURVE",
"166 74 OFFCURVE",
"166 148 CURVE SMOOTH",
"166 454 LINE",
"326 454 LINE",
"326 500 LINE",
"166 500 LINE",
"166 675 LINE",
"109 648 LINE",
"109 500 LINE",
"9 500 LINE",
"9 454 LINE",
"109 454 LINE",
"109 147 LINE SMOOTH",
"109 103 OFFCURVE",
"119 66 OFFCURVE",
"138 37 CURVE SMOOTH",
"160 3 OFFCURVE",
"194 -13 OFFCURVE",
"237 -13 CURVE SMOOTH",
"269 -13 OFFCURVE",
"295 -9 OFFCURVE",
"315 0 CURVE",
"309 46 LINE"
);
}
);
};
layerId = "0B1DFD06-3317-40CA-B510-4969A0718C16";
paths = (
{
closed = 1;
nodes = (
"259 -10 OFFCURVE",
"285 -6 OFFCURVE",
"305 3 CURVE",
"299 49 LINE",
"284 43 OFFCURVE",
"262 40 OFFCURVE",
"231 40 CURVE SMOOTH",
"181 40 OFFCURVE",
"155 77 OFFCURVE",
"155 151 CURVE SMOOTH",
"155 454 LINE",
"296 454 LINE",
"296 500 LINE",
"155 500 LINE",
"155 653 LINE",
"151 653 LINE",
"99 636 LINE",
"99 500 LINE",
"9 500 LINE",
"9 454 LINE",
"99 454 LINE",
"99 150 LINE SMOOTH",
"99 65 OFFCURVE",
"136 -10 OFFCURVE",
"227 -10 CURVE SMOOTH"
);
}
);
width = 350;
},
{
anchors = (
{
name = bottom;
position = "{269, 0}";
},
{
name = center;
position = "{183, 250}";
},
{
name = top;
position = "{178, 663}";
},
{
name = topright;
position = "{352, 500}";
}
);
background = {
paths = (
{
closed = 1;
nodes = (
"290 40 OFFCURVE",
"268 37 OFFCURVE",
"237 37 CURVE SMOOTH",
"187 37 OFFCURVE",
"162 74 OFFCURVE",
"162 148 CURVE SMOOTH",
"162 454 LINE",
"322 454 LINE",
"322 500 LINE",
"162 500 LINE",
"162 675 LINE",
"105 648 LINE",
"105 500 LINE",
"5 500 LINE",
"5 454 LINE",
"105 454 LINE",
"105 147 LINE SMOOTH",
"105 103 OFFCURVE",
"115 66 OFFCURVE",
"134 37 CURVE SMOOTH",
"156 3 OFFCURVE",
"190 -13 OFFCURVE",
"233 -13 CURVE SMOOTH",
"265 -13 OFFCURVE",
"291 -9 OFFCURVE",
"311 0 CURVE",
"305 46 LINE"
);
}
);
};
layerId = "ECFE7DEB-F40D-44C7-B7CF-D3B40F3B51F8";
paths = (
{
closed = 1;
nodes = (
"324 -10 OFFCURVE",
"374 -2 OFFCURVE",
"406 12 CURVE",
"400 108 LINE",
"379 100 OFFCURVE",
"350 95 OFFCURVE",
"326 95 CURVE SMOOTH",
"263 95 OFFCURVE",
"244 126 OFFCURVE",
"244 172 CURVE SMOOTH",
"244 395 LINE",
"390 395 LINE",
"390 500 LINE",
"244 500 LINE",
"244 667 LINE",
"240 667 LINE",
"102 627 LINE",
"102 500 LINE",
"11 500 LINE",
"11 395 LINE",
"102 395 LINE",
"102 150 LINE SMOOTH",
"102 49 OFFCURVE",
"164 -10 OFFCURVE",
"272 -10 CURVE SMOOTH"
);
}
);
width = 430;
}
);
note = t;
unicode = 0074;
},
{
color = 4;
glyphname = u;
lastChange = "2018-05-16 09:35:42 +0000";
layers = (
{
anchors = (
{
name = bottom;
position = "{274, 0}";
},
{
name = ogonek;
position = "{456, 10}";
},
{
name = top;
position = "{274, 500}";
},
{
name = topright;
position = "{472, 305}";
}
);
background = {
paths = (
{
closed = 1;
nodes = (
"509 46 OFFCURVE",
"500 85 OFFCURVE",
"500 122 CURVE SMOOTH",
"500 500 LINE",
"443 500 LINE",
"443 197 LINE SMOOTH",
"443 148 OFFCURVE",
"423 109 OFFCURVE",
"387 78 CURVE SMOOTH",
"353 50 OFFCURVE",
"315 37 OFFCURVE",
"272 37 CURVE SMOOTH",
"182 37 OFFCURVE",
"137 101 OFFCURVE",
"137 229 CURVE SMOOTH",
"137 500 LINE",
"79 500 LINE",
"79 219 LINE SMOOTH",
"79 65 OFFCURVE",
"140 -13 OFFCURVE",
"259 -13 CURVE SMOOTH",
"341 -13 OFFCURVE",
"404 21 OFFCURVE",
"447 87 CURVE",
"451 56 OFFCURVE",
"459 24 OFFCURVE",
"470 -10 CURVE",
"525 1 LINE"
);
}
);
};
layerId = "0B1DFD06-3317-40CA-B510-4969A0718C16";
paths = (
{
closed = 1;
nodes = (
"315 -10 OFFCURVE",
"384 23 OFFCURVE",
"418 90 CURVE",
"422 90 LINE",
"424 51 OFFCURVE",
"427 27 OFFCURVE",
"433 0 CURVE",
"482 0 LINE",
"476 29 OFFCURVE",
"472 60 OFFCURVE",
"472 92 CURVE SMOOTH",
"472 500 LINE",
"416 500 LINE",
"416 226 LINE SMOOTH",
"416 114 OFFCURVE",
"343 35 OFFCURVE",
"249 35 CURVE SMOOTH",
"159 35 OFFCURVE",
"126 106 OFFCURVE",
"126 205 CURVE SMOOTH",
"126 500 LINE",
"70 500 LINE",
"70 206 LINE SMOOTH",
"70 80 OFFCURVE",
"118 -10 OFFCURVE",
"246 -10 CURVE SMOOTH"
);
}
);
width = 548;
},
{
anchors = (
{
name = bottom;
position = "{289, 0}";
},
{
name = ogonek;
position = "{480, 10}";
},
{
name = top;
position = "{289, 500}";
},
{
name = topright;
position = "{497, 305}";
}
);
background = {
paths = (
{
closed = 1;
nodes = (
"512 46 OFFCURVE",
"503 85 OFFCURVE",
"503 122 CURVE SMOOTH",
"503 500 LINE",
"446 500 LINE",
"446 197 LINE SMOOTH",
"446 148 OFFCURVE",
"426 109 OFFCURVE",
"390 78 CURVE SMOOTH",
"356 50 OFFCURVE",
"318 37 OFFCURVE",
"275 37 CURVE SMOOTH",
"185 37 OFFCURVE",
"140 101 OFFCURVE",
"140 229 CURVE SMOOTH",
"140 500 LINE",
"82 500 LINE",
"82 219 LINE SMOOTH",
"82 65 OFFCURVE",
"143 -13 OFFCURVE",
"262 -13 CURVE SMOOTH",
"344 -13 OFFCURVE",
"407 21 OFFCURVE",
"450 87 CURVE",
"454 56 OFFCURVE",
"462 24 OFFCURVE",
"473 -10 CURVE",
"528 1 LINE"
);
}
);
};
layerId = "ECFE7DEB-F40D-44C7-B7CF-D3B40F3B51F8";
paths = (
{
closed = 1;
nodes = (
"295 -10 OFFCURVE",
"357 31 OFFCURVE",
"379 87 CURVE",
"381 87 LINE",
"380 38 OFFCURVE",
"385 24 OFFCURVE",
"389 0 CURVE",
"525 0 LINE",
"522 29 OFFCURVE",
"517 96 OFFCURVE",
"517 134 CURVE SMOOTH",
"517 500 LINE",
"375 500 LINE",
"375 227 LINE SMOOTH",
"375 153 OFFCURVE",
"329 105 OFFCURVE",
"263 105 CURVE SMOOTH",
"203 105 OFFCURVE",
"184 146 OFFCURVE",
"184 219 CURVE SMOOTH",
"184 500 LINE",
"42 500 LINE",
"42 220 LINE SMOOTH",
"42 67 OFFCURVE",
"102 -10 OFFCURVE",
"216 -10 CURVE SMOOTH"
);
}
);
width = 560;
}
);
note = u;
unicode = 0075;
},
{
color = 4;
glyphname = v;
lastChange = "2018-05-16 09:35:42 +0000";
layers = (
{
anchors = (
{
name = bottom;
position = "{224, 0}";
},
{
name = top;
position = "{224, 500}";
}
);
background = {
paths = (
{
closed = 1;
nodes = (
"414 500 LINE",
"224 62 LINE",
"39 500 LINE",
"-20 500 LINE",
"197 0 LINE",
"248 0 LINE",
"473 500 LINE"
);
}
);
};
layerId = "0B1DFD06-3317-40CA-B510-4969A0718C16";
paths = (
{
closed = 1;
nodes = (
"251 0 LINE",
"438 500 LINE",
"379 500 LINE",
"209 20 LINE",
"239 20 LINE",
"69 500 LINE",
"10 500 LINE",
"197 0 LINE"
);
}
);
width = 448;
},
{
anchors = (
{
name = bottom;
position = "{270, 26}";
},
{
name = top;
position = "{270, 474}";
}
);
background = {
paths = (
{
closed = 1;
nodes = (
"448 500 LINE",
"258 62 LINE",
"73 500 LINE",
"14 500 LINE",
"231 0 LINE",
"282 0 LINE",
"507 500 LINE"
);
}
);
};
layerId = "ECFE7DEB-F40D-44C7-B7CF-D3B40F3B51F8";
paths = (
{
closed = 1;
nodes = (
"331 -1 LINE",
"528 501 LINE",
"382 501 LINE",
"254 128 LINE",
"286 128 LINE",
"158 501 LINE",
"12 501 LINE",
"209 -1 LINE"
);
}
);
width = 540;
}
);
note = v;
unicode = 0076;
},
{
color = 4;
glyphname = w;
lastChange = "2018-05-16 09:35:42 +0000";
layers = (
{
anchors = (
{
name = bottom;
position = "{322, 0}";
},
{
name = top;
position = "{322, 500}";
}
);
background = {
paths = (
{
closed = 1;
nodes = (
"694 500 LINE",
"548 68 LINE",
"407 500 LINE",
"353 500 LINE",
"203 68 LINE",
"71 500 LINE",
"10 500 LINE",
"174 0 LINE",
"227 0 LINE",
"378 441 LINE",
"522 0 LINE",
"572 0 LINE",
"751 500 LINE"
);
}
);
};
layerId = "0B1DFD06-3317-40CA-B510-4969A0718C16";
paths = (
{
closed = 1;
nodes = (
"187 0 LINE",
"335 484 LINE",
"309 484 LINE",
"457 0 LINE",
"510 0 LINE",
"634 500 LINE",
"573 500 LINE",
"472 25 LINE",
"494 25 LINE",
"349 500 LINE",
"295 500 LINE",
"150 25 LINE",
"172 25 LINE",
"71 500 LINE",
"10 500 LINE",
"134 0 LINE"
);
}
);
width = 644;
},
{
anchors = (
{
name = bottom;
position = "{358, 0}";
},
{
name = top;
position = "{358, 500}";
}
);
background = {
paths = (
{
closed = 1;
nodes = (
"714 500 LINE",
"568 68 LINE",
"427 500 LINE",
"373 500 LINE",
"223 68 LINE",
"91 500 LINE",
"30 500 LINE",
"194 0 LINE",
"247 0 LINE",
"398 441 LINE",
"542 0 LINE",
"592 0 LINE",
"771 500 LINE"
);
}
);
};
layerId = "ECFE7DEB-F40D-44C7-B7CF-D3B40F3B51F8";
paths = (
{
closed = 1;
nodes = (
"265 0 LINE",
"376 413 LINE",
"340 413 LINE",
"451 0 LINE",
"575 0 LINE",
"704 500 LINE",
"557 500 LINE",
"476 96 LINE",
"533 96 LINE",
"420 500 LINE",
"296 500 LINE",
"183 96 LINE",
"240 96 LINE",
"159 500 LINE",
"12 500 LINE",
"141 0 LINE"
);
}
);
width = 716;
}
);
note = w;
unicode = 0077;
},
{
color = 4;
glyphname = x;
lastChange = "2018-05-16 09:35:42 +0000";
layers = (
{
anchors = (
{
name = bottom;
position = "{211, 0}";
},
{
name = top;
position = "{211, 500}";
}
);
background = {
paths = (
{
closed = 1;
nodes = (
"240 256 LINE",
"431 500 LINE",
"368 500 LINE",
"211 297 LINE",
"52 500 LINE",
"-13 500 LINE",
"177 254 LINE",
"-26 0 LINE",
"40 0 LINE",
"206 216 LINE",
"374 0 LINE",
"441 0 LINE"
);
}
);
};
layerId = "0B1DFD06-3317-40CA-B510-4969A0718C16";
paths = (
{
closed = 1;
nodes = (
"76 0 LINE",
"211 225 LINE",
"346 0 LINE",
"412 0 LINE",
"240 254 LINE",
"399 500 LINE",
"334 500 LINE",
"211 289 LINE",
"88 500 LINE",
"23 500 LINE",
"182 254 LINE",
"10 0 LINE"
);
}
);
width = 422;
},
{
anchors = (
{
name = bottom;
position = "{268, 0}";
},
{
name = top;
position = "{268, 500}";
}
);
background = {
paths = (
{
closed = 1;
nodes = (
"285 256 LINE",
"476 500 LINE",
"413 500 LINE",
"256 297 LINE",
"97 500 LINE",
"32 500 LINE",
"222 254 LINE",
"19 0 LINE",
"85 0 LINE",
"251 216 LINE",
"419 0 LINE",
"486 0 LINE"
);
}
);
};
layerId = "ECFE7DEB-F40D-44C7-B7CF-D3B40F3B51F8";
paths = (
{
closed = 1;
nodes = (
"170 0 LINE",
"268 150 LINE",
"366 0 LINE",
"524 0 LINE",
"342 254 LINE",
"510 500 LINE",
"354 500 LINE",
"268 365 LINE",
"182 500 LINE",
"26 500 LINE",
"194 254 LINE",
"12 0 LINE"
);
}
);
width = 536;
}
);
note = x;
unicode = 0078;
},
{
color = 4;
glyphname = y;
lastChange = "2018-05-16 09:35:42 +0000";
layers = (
{
anchors = (
{
name = bottom;
position = "{298, 0}";
},
{
name = top;
position = "{224, 500}";
}
);
background = {
paths = (
{
closed = 1;
nodes = (
"465 500 LINE",
"402 500 LINE",
"227 76 LINE",
"40 500 LINE",
"-22 500 LINE",
"186 34 LINE",
"189 25 OFFCURVE",
"190 19 OFFCURVE",
"190 16 CURVE",
"147 -98 OFFCURVE",
"84 -165 OFFCURVE",
"0 -184 CURVE",
"14 -229 LINE",
"109 -207 OFFCURVE",
"187 -131 OFFCURVE",
"244 0 CURVE SMOOTH"
);
}
);
};
layerId = "0B1DFD06-3317-40CA-B510-4969A0718C16";
paths = (
{
closed = 1;
nodes = (
"142 -209 OFFCURVE",
"207 -124 OFFCURVE",
"250 0 CURVE SMOOTH",
"425 500 LINE",
"362 500 LINE",
"216 33 LINE",
"244 33 LINE",
"80 500 LINE",
"18 500 LINE",
"204 18 LINE",
"165 -85 OFFCURVE",
"127 -167 OFFCURVE",
"33 -167 CURVE SMOOTH",
"23 -167 OFFCURVE",
"12 -166 OFFCURVE",
"0 -164 CURVE",
"0 -205 LINE",
"14 -208 OFFCURVE",
"29 -209 OFFCURVE",
"40 -209 CURVE SMOOTH"
);
}
);
width = 435;
},
{
anchors = (
{
name = bottom;
position = "{380, 0}";
},
{
name = top;
position = "{259, 500}";
}
);
background = {
paths = (
{
closed = 1;
nodes = (
"487 500 LINE",
"424 500 LINE",
"249 76 LINE",
"62 500 LINE",
"0 500 LINE",
"208 34 LINE",
"211 25 OFFCURVE",
"212 19 OFFCURVE",
"212 16 CURVE",
"169 -98 OFFCURVE",
"106 -165 OFFCURVE",
"22 -184 CURVE",
"36 -229 LINE",
"131 -207 OFFCURVE",
"209 -131 OFFCURVE",
"266 0 CURVE SMOOTH"
);
}
);
};
layerId = "ECFE7DEB-F40D-44C7-B7CF-D3B40F3B51F8";
paths = (
{
closed = 1;
nodes = (
"196 -189 OFFCURVE",
"270 -133 OFFCURVE",
"309 -28 CURVE SMOOTH",
"503 500 LINE",
"353 500 LINE",
"230 100 LINE",
"295 101 LINE",
"158 500 LINE",
"8 500 LINE",
"194 41 LINE",
"164 -37 OFFCURVE",
"125 -74 OFFCURVE",
"70 -74 CURVE SMOOTH",
"49 -74 OFFCURVE",
"18 -69 OFFCURVE",
"2 -63 CURVE",
"2 -176 LINE",
"31 -184 OFFCURVE",
"64 -189 OFFCURVE",
"92 -189 CURVE SMOOTH"
);
}
);
width = 515;
}
);
note = y;
unicode = 0079;
},
{
color = 4;
glyphname = z;
lastChange = "2018-05-16 09:35:42 +0000";
layers = (
{
anchors = (
{
name = bottom;
position = "{218, 0}";
},
{
name = top;
position = "{218, 500}";
}
);
background = {
paths = (
{
closed = 1;
nodes = (
"462 47 LINE",
"102 47 LINE",
"453 460 LINE",
"455 500 LINE",
"57 500 LINE",
"48 453 LINE",
"383 453 LINE",
"30 35 LINE",
"30 0 LINE",
"450 0 LINE"
);
}
);
};
layerId = "0B1DFD06-3317-40CA-B510-4969A0718C16";
paths = (
{
closed = 1;
nodes = (
"406 0 LINE",
"406 46 LINE",
"98 46 LINE",
"395 460 LINE",
"397 500 LINE",
"45 500 LINE",
"45 454 LINE",
"333 454 LINE",
"30 35 LINE",
"30 0 LINE"
);
}
);
width = 436;
},
{
anchors = (
{
name = bottom;
position = "{240, 26}";
},
{
name = top;
position = "{240, 474}";
}
);
background = {
paths = (
{
closed = 1;
nodes = (
"472 47 LINE",
"112 47 LINE",
"463 460 LINE",
"465 500 LINE",
"67 500 LINE",
"58 453 LINE",
"393 453 LINE",
"40 35 LINE",
"40 0 LINE",
"460 0 LINE"
);
}
);
};
layerId = "ECFE7DEB-F40D-44C7-B7CF-D3B40F3B51F8";
paths = (
{
closed = 1;
nodes = (
"463 0 LINE",
"463 106 LINE",
"195 106 LINE",
"452 433 LINE",
"453 500 LINE",
"31 500 LINE",
"31 394 LINE",
"278 394 LINE",
"17 75 LINE",
"17 0 LINE"
);
}
);
width = 480;
}
);
note = z;
unicode = 007A;
},
{
color = 4;
glyphname = Aringacute;
lastChange = "2018-05-15 13:09:10 +0000";
layers = (
{
components = (
{
name = A;
},
{
name = ringcomb;
transform = "{1, 0, 0, 1, 274, 200}";
}
);
layerId = "0B1DFD06-3317-40CA-B510-4969A0718C16";
paths = (
{
closed = 1;
nodes = (
"291 959 LINE",
"354 1059 LINE",
"297 1059 LINE",
"250 959 LINE"
);
}
);
width = 568;
},
{
components = (
{
name = A;
},
{
name = ringcomb;
transform = "{1, 0, 0, 1, 274, 200}";
}
);
layerId = "ECFE7DEB-F40D-44C7-B7CF-D3B40F3B51F8";
paths = (
{
closed = 1;
nodes = (
"291 959 LINE",
"354 1059 LINE",
"297 1059 LINE",
"250 959 LINE"
);
}
);
width = 636;
}
);
leftKerningGroup = A;
leftMetricsKey = A;
note = Aringacute;
rightKerningGroup = A;
rightMetricsKey = A;
unicode = 01FA;
},
{
color = 4;
glyphname = AE;
lastChange = "2018-05-15 13:09:10 +0000";
layers = (
{
anchors = (
{
name = bottom;
position = "{382, 0}";
},
{
name = top;
position = "{382, 700}";
}
);
layerId = "0B1DFD06-3317-40CA-B510-4969A0718C16";
paths = (
{
closed = 1;
nodes = (
"73 0 LINE",
"403 700 LINE",
"345 700 LINE",
"10 0 LINE"
);
},
{
closed = 1;
nodes = (
"392 175 LINE",
"392 223 LINE",
"127 223 LINE",
"110 175 LINE"
);
},
{
closed = 1;
nodes = (
"713 0 LINE",
"713 49 LINE",
"420 49 LINE",
"420 345 LINE",
"678 345 LINE",
"678 394 LINE",
"420 394 LINE",
"420 651 LINE",
"713 651 LINE",
"713 700 LINE",
"362 700 LINE",
"362 0 LINE"
);
}
);
width = 773;
},
{
anchors = (
{
name = bottom;
position = "{417, 36}";
},
{
name = top;
position = "{417, 664}";
}
);
layerId = "ECFE7DEB-F40D-44C7-B7CF-D3B40F3B51F8";
paths = (
{
closed = 1;
nodes = (
"178 0 LINE",
"479 700 LINE",
"318 700 LINE",
"10 0 LINE"
);
},
{
closed = 1;
nodes = (
"480 82 LINE",
"480 202 LINE",
"162 202 LINE",
"105 82 LINE"
);
},
{
closed = 1;
nodes = (
"768 0 LINE",
"768 128 LINE",
"505 128 LINE",
"505 300 LINE",
"736 300 LINE",
"736 426 LINE",
"505 426 LINE",
"505 572 LINE",
"768 572 LINE",
"768 700 LINE",
"345 700 LINE",
"345 0 LINE"
);
}
);
width = 802;
}
);
note = AE;
rightMetricsKey = E;
unicode = 00C6;
},
{
color = 4;
glyphname = Eth;
lastChange = "2018-05-15 13:09:10 +0000";
layers = (
{
components = (
{
name = D;
}
);
layerId = "0B1DFD06-3317-40CA-B510-4969A0718C16";
paths = (
{
closed = 1;
nodes = (
"384 313 LINE",
"384 362 LINE",
"7 362 LINE",
"7 313 LINE"
);
}
);
width = 622;
},
{
components = (
{
name = D;
transform = "{1, 0, 0, 1, 7, 0}";
}
);
layerId = "ECFE7DEB-F40D-44C7-B7CF-D3B40F3B51F8";
paths = (
{
closed = 1;
nodes = (
"376 280 LINE",
"376 395 LINE",
"10 395 LINE",
"10 280 LINE"
);
}
);
width = 635;
}
);
note = Eth;
rightMetricsKey = D;
unicode = 00D0;
},
{
color = 4;
glyphname = Eacute;
lastChange = "2018-05-16 09:43:09 +0000";
layers = (
{
background = {
paths = (
{
closed = 1;
nodes = (
"554 0 LINE",
"571 179 LINE",
"544 179 LINE",
"538 124 OFFCURVE",
"520 40 OFFCURVE",
"456 40 CURVE SMOOTH",
"201 40 LINE",
"201 659 LINE",
"441 659 LINE SMOOTH",
"516 659 OFFCURVE",
"525 567 OFFCURVE",
"528 527 CURVE",
"555 527 LINE",
"555 700 LINE",
"16 700 LINE",
"16 673 LINE",
"44 673 LINE SMOOTH",
"83 673 OFFCURVE",
"103 662 OFFCURVE",
"103 637 CURVE SMOOTH",
"103 62 LINE SMOOTH",
"103 37 OFFCURVE",
"83 26 OFFCURVE",
"44 26 CURVE SMOOTH",
"16 26 LINE",
"16 0 LINE"
);
},
{
closed = 1;
nodes = (
"455 251 LINE",
"455 485 LINE",
"431 485 LINE",
"427 436 OFFCURVE",
"424 388 OFFCURVE",
"379 388 CURVE SMOOTH",
"162 388 LINE",
"162 348 LINE",
"379 348 LINE SMOOTH",
"424 348 OFFCURVE",
"427 300 OFFCURVE",
"431 251 CURVE"
);
},
{
closed = 1;
nodes = (
"398 865 LINE SMOOTH",
"420 877 OFFCURVE",
"432 890 OFFCURVE",
"432 907 CURVE SMOOTH",
"432 922 OFFCURVE",
"420 937 OFFCURVE",
"398 937 CURVE SMOOTH",
"377 937 OFFCURVE",
"362 921 OFFCURVE",
"354 914 CURVE SMOOTH",
"239 807 LINE",
"256 782 LINE"
);
}
);
};
components = (
{
name = E;
},
{
name = acutecomb;
transform = "{1, 0, 0, 1, 291, 200}";
}
);
layerId = "0B1DFD06-3317-40CA-B510-4969A0718C16";
width = 541;
},
{
background = {
paths = (
{
closed = 1;
nodes = (
"554 0 LINE",
"571 179 LINE",
"544 179 LINE",
"538 124 OFFCURVE",
"520 40 OFFCURVE",
"456 40 CURVE SMOOTH",
"201 40 LINE",
"201 659 LINE",
"441 659 LINE SMOOTH",
"516 659 OFFCURVE",
"525 567 OFFCURVE",
"528 527 CURVE",
"555 527 LINE",
"555 700 LINE",
"16 700 LINE",
"16 673 LINE",
"44 673 LINE SMOOTH",
"83 673 OFFCURVE",
"103 662 OFFCURVE",
"103 637 CURVE SMOOTH",
"103 62 LINE SMOOTH",
"103 37 OFFCURVE",
"83 26 OFFCURVE",
"44 26 CURVE SMOOTH",
"16 26 LINE",
"16 0 LINE"
);
},
{
closed = 1;
nodes = (
"455 251 LINE",
"455 485 LINE",
"431 485 LINE",
"427 436 OFFCURVE",
"424 388 OFFCURVE",
"379 388 CURVE SMOOTH",
"162 388 LINE",
"162 348 LINE",
"379 348 LINE SMOOTH",
"424 348 OFFCURVE",
"427 300 OFFCURVE",
"431 251 CURVE"
);
},
{
closed = 1;
nodes = (
"398 865 LINE SMOOTH",
"420 877 OFFCURVE",
"432 890 OFFCURVE",
"432 907 CURVE SMOOTH",
"432 922 OFFCURVE",
"420 937 OFFCURVE",
"398 937 CURVE SMOOTH",
"377 937 OFFCURVE",
"362 921 OFFCURVE",
"354 914 CURVE SMOOTH",
"239 807 LINE",
"256 782 LINE"
);
}
);
};
components = (
{
name = E;
},
{
name = acutecomb;
transform = "{1, 0, 0, 1, 294, 200}";
}
);
layerId = "ECFE7DEB-F40D-44C7-B7CF-D3B40F3B51F8";
width = 573;
}
);
note = Eacute;
unicode = 00C9;
},
{
color = 4;
glyphname = Ebreve;
lastChange = "2018-05-16 09:43:09 +0000";
layers = (
{
background = {
paths = (
{
closed = 1;
nodes = (
"554 0 LINE",
"571 179 LINE",
"544 179 LINE",
"538 124 OFFCURVE",
"520 40 OFFCURVE",
"456 40 CURVE SMOOTH",
"201 40 LINE",
"201 659 LINE",
"441 659 LINE SMOOTH",
"516 659 OFFCURVE",
"525 567 OFFCURVE",
"528 527 CURVE",
"555 527 LINE",
"555 700 LINE",
"16 700 LINE",
"16 673 LINE",
"44 673 LINE SMOOTH",
"83 673 OFFCURVE",
"103 662 OFFCURVE",
"103 637 CURVE SMOOTH",
"103 62 LINE SMOOTH",
"103 37 OFFCURVE",
"83 26 OFFCURVE",
"44 26 CURVE SMOOTH",
"16 26 LINE",
"16 0 LINE"
);
},
{
closed = 1;
nodes = (
"455 251 LINE",
"455 485 LINE",
"431 485 LINE",
"427 436 OFFCURVE",
"424 388 OFFCURVE",
"379 388 CURVE SMOOTH",
"162 388 LINE",
"162 348 LINE",
"379 348 LINE SMOOTH",
"424 348 OFFCURVE",
"427 300 OFFCURVE",
"431 251 CURVE"
);
},
{
closed = 1;
nodes = (
"432 776 OFFCURVE",
"474 832 OFFCURVE",
"478 907 CURVE",
"445 907 LINE",
"439 848 OFFCURVE",
"397 822 OFFCURVE",
"333 822 CURVE SMOOTH",
"269 822 OFFCURVE",
"226 848 OFFCURVE",
"219 907 CURVE",
"186 907 LINE",
"190 829 OFFCURVE",
"232 776 OFFCURVE",
"333 776 CURVE SMOOTH"
);
}
);
};
components = (
{
name = E;
},
{
name = brevecomb;
transform = "{1, 0, 0, 1, 291, 200}";
}
);
layerId = "0B1DFD06-3317-40CA-B510-4969A0718C16";
width = 541;
},
{
background = {
paths = (
{
closed = 1;
nodes = (
"554 0 LINE",
"571 179 LINE",
"544 179 LINE",
"538 124 OFFCURVE",
"520 40 OFFCURVE",
"456 40 CURVE SMOOTH",
"201 40 LINE",
"201 659 LINE",
"441 659 LINE SMOOTH",
"516 659 OFFCURVE",
"525 567 OFFCURVE",
"528 527 CURVE",
"555 527 LINE",
"555 700 LINE",
"16 700 LINE",
"16 673 LINE",
"44 673 LINE SMOOTH",
"83 673 OFFCURVE",
"103 662 OFFCURVE",
"103 637 CURVE SMOOTH",
"103 62 LINE SMOOTH",
"103 37 OFFCURVE",
"83 26 OFFCURVE",
"44 26 CURVE SMOOTH",
"16 26 LINE",
"16 0 LINE"
);
},
{
closed = 1;
nodes = (
"455 251 LINE",
"455 485 LINE",
"431 485 LINE",
"427 436 OFFCURVE",
"424 388 OFFCURVE",
"379 388 CURVE SMOOTH",
"162 388 LINE",
"162 348 LINE",
"379 348 LINE SMOOTH",
"424 348 OFFCURVE",
"427 300 OFFCURVE",
"431 251 CURVE"
);
},
{
closed = 1;
nodes = (
"432 776 OFFCURVE",
"474 832 OFFCURVE",
"478 907 CURVE",
"445 907 LINE",
"439 848 OFFCURVE",
"397 822 OFFCURVE",
"333 822 CURVE SMOOTH",
"269 822 OFFCURVE",
"226 848 OFFCURVE",
"219 907 CURVE",
"186 907 LINE",
"190 829 OFFCURVE",
"232 776 OFFCURVE",
"333 776 CURVE SMOOTH"
);
}
);
};
components = (
{
name = E;
},
{
name = brevecomb;
transform = "{1, 0, 0, 1, 294, 200}";
}
);
layerId = "ECFE7DEB-F40D-44C7-B7CF-D3B40F3B51F8";
width = 573;
}
);
note = Ebreve;
unicode = 0114;
},
{
color = 4;
glyphname = Ecaron;
lastChange = "2018-05-16 09:43:09 +0000";
layers = (
{
background = {
paths = (
{
closed = 1;
nodes = (
"554 0 LINE",
"571 179 LINE",
"544 179 LINE",
"538 124 OFFCURVE",
"520 40 OFFCURVE",
"456 40 CURVE SMOOTH",
"201 40 LINE",
"201 659 LINE",
"441 659 LINE SMOOTH",
"516 659 OFFCURVE",
"525 567 OFFCURVE",
"528 527 CURVE",
"555 527 LINE",
"555 700 LINE",
"16 700 LINE",
"16 673 LINE",
"44 673 LINE SMOOTH",
"83 673 OFFCURVE",
"103 662 OFFCURVE",
"103 637 CURVE SMOOTH",
"103 62 LINE SMOOTH",
"103 37 OFFCURVE",
"83 26 OFFCURVE",
"44 26 CURVE SMOOTH",
"16 26 LINE",
"16 0 LINE"
);
},
{
closed = 1;
nodes = (
"455 251 LINE",
"455 485 LINE",
"431 485 LINE",
"427 436 OFFCURVE",
"424 388 OFFCURVE",
"379 388 CURVE SMOOTH",
"162 388 LINE",
"162 348 LINE",
"379 348 LINE SMOOTH",
"424 348 OFFCURVE",
"427 300 OFFCURVE",
"431 251 CURVE"
);
},
{
closed = 1;
nodes = (
"357 782 LINE",
"481 911 LINE",
"462 932 LINE",
"354 847 LINE",
"346 840 OFFCURVE",
"337 836 OFFCURVE",
"331 836 CURVE SMOOTH",
"325 836 OFFCURVE",
"317 840 OFFCURVE",
"307 847 CURVE",
"199 932 LINE",
"180 911 LINE",
"304 782 LINE"
);
}
);
};
components = (
{
name = E;
},
{
name = caroncomb;
transform = "{1, 0, 0, 1, 291, 200}";
}
);
layerId = "0B1DFD06-3317-40CA-B510-4969A0718C16";
width = 541;
},
{
background = {
paths = (
{
closed = 1;
nodes = (
"554 0 LINE",
"571 179 LINE",
"544 179 LINE",
"538 124 OFFCURVE",
"520 40 OFFCURVE",
"456 40 CURVE SMOOTH",
"201 40 LINE",
"201 659 LINE",
"441 659 LINE SMOOTH",
"516 659 OFFCURVE",
"525 567 OFFCURVE",
"528 527 CURVE",
"555 527 LINE",
"555 700 LINE",
"16 700 LINE",
"16 673 LINE",
"44 673 LINE SMOOTH",
"83 673 OFFCURVE",
"103 662 OFFCURVE",
"103 637 CURVE SMOOTH",
"103 62 LINE SMOOTH",
"103 37 OFFCURVE",
"83 26 OFFCURVE",
"44 26 CURVE SMOOTH",
"16 26 LINE",
"16 0 LINE"
);
},
{
closed = 1;
nodes = (
"455 251 LINE",
"455 485 LINE",
"431 485 LINE",
"427 436 OFFCURVE",
"424 388 OFFCURVE",
"379 388 CURVE SMOOTH",
"162 388 LINE",
"162 348 LINE",
"379 348 LINE SMOOTH",
"424 348 OFFCURVE",
"427 300 OFFCURVE",
"431 251 CURVE"
);
},
{
closed = 1;
nodes = (
"357 782 LINE",
"481 911 LINE",
"462 932 LINE",
"354 847 LINE",
"346 840 OFFCURVE",
"337 836 OFFCURVE",
"331 836 CURVE SMOOTH",
"325 836 OFFCURVE",
"317 840 OFFCURVE",
"307 847 CURVE",
"199 932 LINE",
"180 911 LINE",
"304 782 LINE"
);
}
);
};
components = (
{
name = E;
},
{
name = caroncomb;
transform = "{1, 0, 0, 1, 294, 200}";
}
);
layerId = "ECFE7DEB-F40D-44C7-B7CF-D3B40F3B51F8";
width = 573;
}
);
note = Ecaron;
unicode = 011A;
},
{
color = 4;
glyphname = Ecircumflex;
lastChange = "2018-05-16 09:43:09 +0000";
layers = (
{
background = {
paths = (
{
closed = 1;
nodes = (
"554 0 LINE",
"571 179 LINE",
"544 179 LINE",
"538 124 OFFCURVE",
"520 40 OFFCURVE",
"456 40 CURVE SMOOTH",
"201 40 LINE",
"201 659 LINE",
"441 659 LINE SMOOTH",
"516 659 OFFCURVE",
"525 567 OFFCURVE",
"528 527 CURVE",
"555 527 LINE",
"555 700 LINE",
"16 700 LINE",
"16 673 LINE",
"44 673 LINE SMOOTH",
"83 673 OFFCURVE",
"103 662 OFFCURVE",
"103 637 CURVE SMOOTH",
"103 62 LINE SMOOTH",
"103 37 OFFCURVE",
"83 26 OFFCURVE",
"44 26 CURVE SMOOTH",
"16 26 LINE",
"16 0 LINE"
);
},
{
closed = 1;
nodes = (
"455 251 LINE",
"455 485 LINE",
"431 485 LINE",
"427 436 OFFCURVE",
"424 388 OFFCURVE",
"379 388 CURVE SMOOTH",
"162 388 LINE",
"162 348 LINE",
"379 348 LINE SMOOTH",
"424 348 OFFCURVE",
"427 300 OFFCURVE",
"431 251 CURVE"
);
},
{
closed = 1;
nodes = (
"304 868 LINE SMOOTH",
"312 874 OFFCURVE",
"322 879 OFFCURVE",
"328 879 CURVE SMOOTH",
"334 879 OFFCURVE",
"342 874 OFFCURVE",
"351 868 CURVE",
"459 782 LINE",
"478 803 LINE",
"354 932 LINE",
"301 932 LINE",
"177 803 LINE",
"196 782 LINE"
);
}
);
};
components = (
{
name = E;
},
{
name = circumflexcomb;
transform = "{1, 0, 0, 1, 291, 200}";
}
);
layerId = "0B1DFD06-3317-40CA-B510-4969A0718C16";
width = 541;
},
{
background = {
paths = (
{
closed = 1;
nodes = (
"554 0 LINE",
"571 179 LINE",
"544 179 LINE",
"538 124 OFFCURVE",
"520 40 OFFCURVE",
"456 40 CURVE SMOOTH",
"201 40 LINE",
"201 659 LINE",
"441 659 LINE SMOOTH",
"516 659 OFFCURVE",
"525 567 OFFCURVE",
"528 527 CURVE",
"555 527 LINE",
"555 700 LINE",
"16 700 LINE",
"16 673 LINE",
"44 673 LINE SMOOTH",
"83 673 OFFCURVE",
"103 662 OFFCURVE",
"103 637 CURVE SMOOTH",
"103 62 LINE SMOOTH",
"103 37 OFFCURVE",
"83 26 OFFCURVE",
"44 26 CURVE SMOOTH",
"16 26 LINE",
"16 0 LINE"
);
},
{
closed = 1;
nodes = (
"455 251 LINE",
"455 485 LINE",
"431 485 LINE",
"427 436 OFFCURVE",
"424 388 OFFCURVE",
"379 388 CURVE SMOOTH",
"162 388 LINE",
"162 348 LINE",
"379 348 LINE SMOOTH",
"424 348 OFFCURVE",
"427 300 OFFCURVE",
"431 251 CURVE"
);
},
{
closed = 1;
nodes = (
"304 868 LINE SMOOTH",
"312 874 OFFCURVE",
"322 879 OFFCURVE",
"328 879 CURVE SMOOTH",
"334 879 OFFCURVE",
"342 874 OFFCURVE",
"351 868 CURVE",
"459 782 LINE",
"478 803 LINE",
"354 932 LINE",
"301 932 LINE",
"177 803 LINE",
"196 782 LINE"
);
}
);
};
components = (
{
name = E;
},
{
name = circumflexcomb;
transform = "{1, 0, 0, 1, 294, 200}";
}
);
layerId = "ECFE7DEB-F40D-44C7-B7CF-D3B40F3B51F8";
width = 573;
}
);
note = Ecircumflex;
unicode = 00CA;
},
{
color = 4;
glyphname = Ecircumflexacute;
lastChange = "2018-05-16 09:43:09 +0000";
layers = (
{
background = {
paths = (
{
closed = 1;
nodes = (
"554 0 LINE",
"571 179 LINE",
"544 179 LINE",
"538 124 OFFCURVE",
"520 40 OFFCURVE",
"456 40 CURVE SMOOTH",
"201 40 LINE",
"201 659 LINE",
"441 659 LINE SMOOTH",
"516 659 OFFCURVE",
"525 567 OFFCURVE",
"528 527 CURVE",
"555 527 LINE",
"555 700 LINE",
"16 700 LINE",
"16 673 LINE",
"44 673 LINE SMOOTH",
"83 673 OFFCURVE",
"103 662 OFFCURVE",
"103 637 CURVE SMOOTH",
"103 62 LINE SMOOTH",
"103 37 OFFCURVE",
"83 26 OFFCURVE",
"44 26 CURVE SMOOTH",
"16 26 LINE",
"16 0 LINE"
);
},
{
closed = 1;
nodes = (
"455 251 LINE",
"455 485 LINE",
"431 485 LINE",
"427 436 OFFCURVE",
"424 388 OFFCURVE",
"379 388 CURVE SMOOTH",
"162 388 LINE",
"162 348 LINE",
"379 348 LINE SMOOTH",
"424 348 OFFCURVE",
"427 300 OFFCURVE",
"431 251 CURVE"
);
},
{
closed = 1;
nodes = (
"290 862 LINE SMOOTH",
"300 870 OFFCURVE",
"310 878 OFFCURVE",
"318 878 CURVE SMOOTH",
"324 878 OFFCURVE",
"332 873 OFFCURVE",
"341 867 CURVE",
"447 781 LINE",
"466 803 LINE",
"344 932 LINE",
"293 932 LINE",
"171 803 LINE",
"189 781 LINE"
);
},
{
closed = 1;
nodes = (
"555 960 LINE SMOOTH",
"578 972 OFFCURVE",
"591 988 OFFCURVE",
"591 1003 CURVE SMOOTH",
"591 1017 OFFCURVE",
"580 1034 OFFCURVE",
"557 1034 CURVE SMOOTH",
"538 1034 OFFCURVE",
"521 1018 OFFCURVE",
"511 1008 CURVE SMOOTH",
"415 915 LINE",
"433 893 LINE"
);
}
);
};
components = (
{
name = E;
},
{
name = circumflex_acute;
transform = "{1, 0, 0, 1, 542, 200}";
}
);
layerId = "0B1DFD06-3317-40CA-B510-4969A0718C16";
width = 541;
},
{
background = {
paths = (
{
closed = 1;
nodes = (
"554 0 LINE",
"571 179 LINE",
"544 179 LINE",
"538 124 OFFCURVE",
"520 40 OFFCURVE",
"456 40 CURVE SMOOTH",
"201 40 LINE",
"201 659 LINE",
"441 659 LINE SMOOTH",
"516 659 OFFCURVE",
"525 567 OFFCURVE",
"528 527 CURVE",
"555 527 LINE",
"555 700 LINE",
"16 700 LINE",
"16 673 LINE",
"44 673 LINE SMOOTH",
"83 673 OFFCURVE",
"103 662 OFFCURVE",
"103 637 CURVE SMOOTH",
"103 62 LINE SMOOTH",
"103 37 OFFCURVE",
"83 26 OFFCURVE",
"44 26 CURVE SMOOTH",
"16 26 LINE",
"16 0 LINE"
);
},
{
closed = 1;
nodes = (
"455 251 LINE",
"455 485 LINE",
"431 485 LINE",
"427 436 OFFCURVE",
"424 388 OFFCURVE",
"379 388 CURVE SMOOTH",
"162 388 LINE",
"162 348 LINE",
"379 348 LINE SMOOTH",
"424 348 OFFCURVE",
"427 300 OFFCURVE",
"431 251 CURVE"
);
},
{
closed = 1;
nodes = (
"290 862 LINE SMOOTH",
"300 870 OFFCURVE",
"310 878 OFFCURVE",
"318 878 CURVE SMOOTH",
"324 878 OFFCURVE",
"332 873 OFFCURVE",
"341 867 CURVE",
"447 781 LINE",
"466 803 LINE",
"344 932 LINE",
"293 932 LINE",
"171 803 LINE",
"189 781 LINE"
);
},
{
closed = 1;
nodes = (
"555 960 LINE SMOOTH",
"578 972 OFFCURVE",
"591 988 OFFCURVE",
"591 1003 CURVE SMOOTH",
"591 1017 OFFCURVE",
"580 1034 OFFCURVE",
"557 1034 CURVE SMOOTH",
"538 1034 OFFCURVE",
"521 1018 OFFCURVE",
"511 1008 CURVE SMOOTH",
"415 915 LINE",
"433 893 LINE"
);
}
);
};
components = (
{
name = E;
},
{
name = circumflex_acute;
transform = "{1, 0, 0, 1, 545, 200}";
}
);
layerId = "ECFE7DEB-F40D-44C7-B7CF-D3B40F3B51F8";
width = 573;
}
);
note = Ecircumflexacute;
unicode = 1EBE;
},
{
color = 4;
glyphname = Ecircumflexdotbelow;
lastChange = "2018-05-16 09:43:10 +0000";
layers = (
{
background = {
paths = (
{
closed = 1;
nodes = (
"554 0 LINE",
"571 179 LINE",
"544 179 LINE",
"538 124 OFFCURVE",
"520 40 OFFCURVE",
"456 40 CURVE SMOOTH",
"201 40 LINE",
"201 659 LINE",
"441 659 LINE SMOOTH",
"516 659 OFFCURVE",
"525 567 OFFCURVE",
"528 527 CURVE",
"555 527 LINE",
"555 700 LINE",
"16 700 LINE",
"16 673 LINE",
"44 673 LINE SMOOTH",
"83 673 OFFCURVE",
"103 662 OFFCURVE",
"103 637 CURVE SMOOTH",
"103 62 LINE SMOOTH",
"103 37 OFFCURVE",
"83 26 OFFCURVE",
"44 26 CURVE SMOOTH",
"16 26 LINE",
"16 0 LINE"
);
},
{
closed = 1;
nodes = (
"350 -159 OFFCURVE",
"368 -140 OFFCURVE",
"368 -112 CURVE SMOOTH",
"368 -84 OFFCURVE",
"350 -64 OFFCURVE",
"322 -64 CURVE SMOOTH",
"294 -64 OFFCURVE",
"275 -84 OFFCURVE",
"275 -112 CURVE SMOOTH",
"275 -140 OFFCURVE",
"294 -159 OFFCURVE",
"322 -159 CURVE SMOOTH"
);
},
{
closed = 1;
nodes = (
"455 251 LINE",
"455 485 LINE",
"431 485 LINE",
"427 436 OFFCURVE",
"424 388 OFFCURVE",
"379 388 CURVE SMOOTH",
"162 388 LINE",
"162 348 LINE",
"379 348 LINE SMOOTH",
"424 348 OFFCURVE",
"427 300 OFFCURVE",
"431 251 CURVE"
);
},
{
closed = 1;
nodes = (
"294 868 LINE SMOOTH",
"302 874 OFFCURVE",
"312 879 OFFCURVE",
"318 879 CURVE SMOOTH",
"324 879 OFFCURVE",
"332 874 OFFCURVE",
"341 868 CURVE",
"449 782 LINE",
"468 803 LINE",
"344 932 LINE",
"291 932 LINE",
"167 803 LINE",
"186 782 LINE"
);
}
);
};
components = (
{
name = E;
},
{
name = dotbelowcomb;
transform = "{1, 0, 0, 1, 291, 0}";
},
{
name = circumflexcomb;
transform = "{1, 0, 0, 1, 291, 200}";
}
);
layerId = "0B1DFD06-3317-40CA-B510-4969A0718C16";
width = 541;
},
{
background = {
paths = (
{
closed = 1;
nodes = (
"554 0 LINE",
"571 179 LINE",
"544 179 LINE",
"538 124 OFFCURVE",
"520 40 OFFCURVE",
"456 40 CURVE SMOOTH",
"201 40 LINE",
"201 659 LINE",
"441 659 LINE SMOOTH",
"516 659 OFFCURVE",
"525 567 OFFCURVE",
"528 527 CURVE",
"555 527 LINE",
"555 700 LINE",
"16 700 LINE",
"16 673 LINE",
"44 673 LINE SMOOTH",
"83 673 OFFCURVE",
"103 662 OFFCURVE",
"103 637 CURVE SMOOTH",
"103 62 LINE SMOOTH",
"103 37 OFFCURVE",
"83 26 OFFCURVE",
"44 26 CURVE SMOOTH",
"16 26 LINE",
"16 0 LINE"
);
},
{
closed = 1;
nodes = (
"350 -159 OFFCURVE",
"368 -140 OFFCURVE",
"368 -112 CURVE SMOOTH",
"368 -84 OFFCURVE",
"350 -64 OFFCURVE",
"322 -64 CURVE SMOOTH",
"294 -64 OFFCURVE",
"275 -84 OFFCURVE",
"275 -112 CURVE SMOOTH",
"275 -140 OFFCURVE",
"294 -159 OFFCURVE",
"322 -159 CURVE SMOOTH"
);
},
{
closed = 1;
nodes = (
"455 251 LINE",
"455 485 LINE",
"431 485 LINE",
"427 436 OFFCURVE",
"424 388 OFFCURVE",
"379 388 CURVE SMOOTH",
"162 388 LINE",
"162 348 LINE",
"379 348 LINE SMOOTH",
"424 348 OFFCURVE",
"427 300 OFFCURVE",
"431 251 CURVE"
);
},
{
closed = 1;
nodes = (
"294 868 LINE SMOOTH",
"302 874 OFFCURVE",
"312 879 OFFCURVE",
"318 879 CURVE SMOOTH",
"324 879 OFFCURVE",
"332 874 OFFCURVE",
"341 868 CURVE",
"449 782 LINE",
"468 803 LINE",
"344 932 LINE",
"291 932 LINE",
"167 803 LINE",
"186 782 LINE"
);
}
);
};
components = (
{
name = E;
},
{
name = dotbelowcomb;
transform = "{1, 0, 0, 1, 294, 0}";
},
{
name = circumflexcomb;
transform = "{1, 0, 0, 1, 294, 200}";
}
);
layerId = "ECFE7DEB-F40D-44C7-B7CF-D3B40F3B51F8";
width = 573;
}
);
note = Ecircumflexdotbelow;
unicode = 1EC6;
},
{
color = 4;
glyphname = Ecircumflexgrave;
lastChange = "2018-05-16 09:43:10 +0000";
layers = (
{
background = {
paths = (
{
closed = 1;
nodes = (
"554 0 LINE",
"571 179 LINE",
"544 179 LINE",
"538 124 OFFCURVE",
"520 40 OFFCURVE",
"456 40 CURVE SMOOTH",
"201 40 LINE",
"201 659 LINE",
"441 659 LINE SMOOTH",
"516 659 OFFCURVE",
"525 567 OFFCURVE",
"528 527 CURVE",
"555 527 LINE",
"555 700 LINE",
"16 700 LINE",
"16 673 LINE",
"44 673 LINE SMOOTH",
"83 673 OFFCURVE",
"103 662 OFFCURVE",
"103 637 CURVE SMOOTH",
"103 62 LINE SMOOTH",
"103 37 OFFCURVE",
"83 26 OFFCURVE",
"44 26 CURVE SMOOTH",
"16 26 LINE",
"16 0 LINE"
);
},
{
closed = 1;
nodes = (
"455 251 LINE",
"455 485 LINE",
"431 485 LINE",
"427 436 OFFCURVE",
"424 388 OFFCURVE",
"379 388 CURVE SMOOTH",
"162 388 LINE",
"162 348 LINE",
"379 348 LINE SMOOTH",
"424 348 OFFCURVE",
"427 300 OFFCURVE",
"431 251 CURVE"
);
},
{
closed = 1;
nodes = (
"227 915 LINE",
"132 1008 LINE SMOOTH",
"122 1018 OFFCURVE",
"105 1034 OFFCURVE",
"85 1034 CURVE SMOOTH",
"63 1034 OFFCURVE",
"52 1017 OFFCURVE",
"52 1003 CURVE SMOOTH",
"52 988 OFFCURVE",
"65 972 OFFCURVE",
"88 960 CURVE SMOOTH",
"210 893 LINE"
);
},
{
closed = 1;
nodes = (
"290 862 LINE SMOOTH",
"300 870 OFFCURVE",
"310 878 OFFCURVE",
"318 878 CURVE SMOOTH",
"324 878 OFFCURVE",
"332 873 OFFCURVE",
"341 867 CURVE",
"447 781 LINE",
"466 803 LINE",
"344 932 LINE",
"293 932 LINE",
"171 803 LINE",
"189 781 LINE"
);
}
);
};
components = (
{
name = E;
},
{
name = circumflex_grave;
transform = "{1, 0, 0, 1, 542, 200}";
}
);
layerId = "0B1DFD06-3317-40CA-B510-4969A0718C16";
width = 541;
},
{
background = {
paths = (
{
closed = 1;
nodes = (
"554 0 LINE",
"571 179 LINE",
"544 179 LINE",
"538 124 OFFCURVE",
"520 40 OFFCURVE",
"456 40 CURVE SMOOTH",
"201 40 LINE",
"201 659 LINE",
"441 659 LINE SMOOTH",
"516 659 OFFCURVE",
"525 567 OFFCURVE",
"528 527 CURVE",
"555 527 LINE",
"555 700 LINE",
"16 700 LINE",
"16 673 LINE",
"44 673 LINE SMOOTH",
"83 673 OFFCURVE",
"103 662 OFFCURVE",
"103 637 CURVE SMOOTH",
"103 62 LINE SMOOTH",
"103 37 OFFCURVE",
"83 26 OFFCURVE",
"44 26 CURVE SMOOTH",
"16 26 LINE",
"16 0 LINE"
);
},
{
closed = 1;
nodes = (
"455 251 LINE",
"455 485 LINE",
"431 485 LINE",
"427 436 OFFCURVE",
"424 388 OFFCURVE",
"379 388 CURVE SMOOTH",
"162 388 LINE",
"162 348 LINE",
"379 348 LINE SMOOTH",
"424 348 OFFCURVE",
"427 300 OFFCURVE",
"431 251 CURVE"
);
},
{
closed = 1;
nodes = (
"227 915 LINE",
"132 1008 LINE SMOOTH",
"122 1018 OFFCURVE",
"105 1034 OFFCURVE",
"85 1034 CURVE SMOOTH",
"63 1034 OFFCURVE",
"52 1017 OFFCURVE",
"52 1003 CURVE SMOOTH",
"52 988 OFFCURVE",
"65 972 OFFCURVE",
"88 960 CURVE SMOOTH",
"210 893 LINE"
);
},
{
closed = 1;
nodes = (
"290 862 LINE SMOOTH",
"300 870 OFFCURVE",
"310 878 OFFCURVE",
"318 878 CURVE SMOOTH",
"324 878 OFFCURVE",
"332 873 OFFCURVE",
"341 867 CURVE",
"447 781 LINE",
"466 803 LINE",
"344 932 LINE",
"293 932 LINE",
"171 803 LINE",
"189 781 LINE"
);
}
);
};
components = (
{
name = E;
},
{
name = circumflex_grave;
transform = "{1, 0, 0, 1, 545, 200}";
}
);
layerId = "ECFE7DEB-F40D-44C7-B7CF-D3B40F3B51F8";
width = 573;
}
);
note = Ecircumflexgrave;
unicode = 1EC0;
},
{
color = 4;
glyphname = Ecircumflexhookabove;
lastChange = "2018-05-16 09:43:10 +0000";
layers = (
{
background = {
paths = (
{
closed = 1;
nodes = (
"554 0 LINE",
"571 179 LINE",
"544 179 LINE",
"538 124 OFFCURVE",
"520 40 OFFCURVE",
"456 40 CURVE SMOOTH",
"201 40 LINE",
"201 659 LINE",
"441 659 LINE SMOOTH",
"516 659 OFFCURVE",
"525 567 OFFCURVE",
"528 527 CURVE",
"555 527 LINE",
"555 700 LINE",
"16 700 LINE",
"16 673 LINE",
"44 673 LINE SMOOTH",
"83 673 OFFCURVE",
"103 662 OFFCURVE",
"103 637 CURVE SMOOTH",
"103 62 LINE SMOOTH",
"103 37 OFFCURVE",
"83 26 OFFCURVE",
"44 26 CURVE SMOOTH",
"16 26 LINE",
"16 0 LINE"
);
},
{
closed = 1;
nodes = (
"455 251 LINE",
"455 485 LINE",
"431 485 LINE",
"427 436 OFFCURVE",
"424 388 OFFCURVE",
"379 388 CURVE SMOOTH",
"162 388 LINE",
"162 348 LINE",
"379 348 LINE SMOOTH",
"424 348 OFFCURVE",
"427 300 OFFCURVE",
"431 251 CURVE"
);
},
{
closed = 1;
nodes = (
"286 858 LINE",
"297 868 OFFCURVE",
"309 878 OFFCURVE",
"318 878 CURVE SMOOTH",
"324 878 OFFCURVE",
"332 873 OFFCURVE",
"341 867 CURVE",
"447 781 LINE",
"466 803 LINE",
"344 932 LINE",
"293 932 LINE",
"171 803 LINE",
"189 781 LINE"
);
},
{
closed = 1;
nodes = (
"493 898 LINE",
"474 905 OFFCURVE",
"464 912 OFFCURVE",
"464 926 CURVE SMOOTH",
"464 954 OFFCURVE",
"544 965 OFFCURVE",
"544 1010 CURVE SMOOTH",
"544 1047 OFFCURVE",
"502 1063 OFFCURVE",
"460 1063 CURVE SMOOTH",
"429 1063 OFFCURVE",
"384 1053 OFFCURVE",
"384 1022 CURVE SMOOTH",
"384 1010 OFFCURVE",
"395 1001 OFFCURVE",
"405 1001 CURVE SMOOTH",
"434 1001 OFFCURVE",
"421 1040 OFFCURVE",
"464 1040 CURVE SMOOTH",
"483 1040 OFFCURVE",
"494 1028 OFFCURVE",
"494 1013 CURVE SMOOTH",
"494 973 OFFCURVE",
"421 965 OFFCURVE",
"421 925 CURVE SMOOTH",
"421 901 OFFCURVE",
"437 880 OFFCURVE",
"484 880 CURVE"
);
}
);
};
components = (
{
name = E;
},
{
name = circumflex_hookabove;
transform = "{1, 0, 0, 1, 542, 200}";
}
);
layerId = "0B1DFD06-3317-40CA-B510-4969A0718C16";
width = 541;
},
{
background = {
paths = (
{
closed = 1;
nodes = (
"554 0 LINE",
"571 179 LINE",
"544 179 LINE",
"538 124 OFFCURVE",
"520 40 OFFCURVE",
"456 40 CURVE SMOOTH",
"201 40 LINE",
"201 659 LINE",
"441 659 LINE SMOOTH",
"516 659 OFFCURVE",
"525 567 OFFCURVE",
"528 527 CURVE",
"555 527 LINE",
"555 700 LINE",
"16 700 LINE",
"16 673 LINE",
"44 673 LINE SMOOTH",
"83 673 OFFCURVE",
"103 662 OFFCURVE",
"103 637 CURVE SMOOTH",
"103 62 LINE SMOOTH",
"103 37 OFFCURVE",
"83 26 OFFCURVE",
"44 26 CURVE SMOOTH",
"16 26 LINE",
"16 0 LINE"
);
},
{
closed = 1;
nodes = (
"455 251 LINE",
"455 485 LINE",
"431 485 LINE",
"427 436 OFFCURVE",
"424 388 OFFCURVE",
"379 388 CURVE SMOOTH",
"162 388 LINE",
"162 348 LINE",
"379 348 LINE SMOOTH",
"424 348 OFFCURVE",
"427 300 OFFCURVE",
"431 251 CURVE"
);
},
{
closed = 1;
nodes = (
"286 858 LINE",
"297 868 OFFCURVE",
"309 878 OFFCURVE",
"318 878 CURVE SMOOTH",
"324 878 OFFCURVE",
"332 873 OFFCURVE",
"341 867 CURVE",
"447 781 LINE",
"466 803 LINE",
"344 932 LINE",
"293 932 LINE",
"171 803 LINE",
"189 781 LINE"
);
},
{
closed = 1;
nodes = (
"493 898 LINE",
"474 905 OFFCURVE",
"464 912 OFFCURVE",
"464 926 CURVE SMOOTH",
"464 954 OFFCURVE",
"544 965 OFFCURVE",
"544 1010 CURVE SMOOTH",
"544 1047 OFFCURVE",
"502 1063 OFFCURVE",
"460 1063 CURVE SMOOTH",
"429 1063 OFFCURVE",
"384 1053 OFFCURVE",
"384 1022 CURVE SMOOTH",
"384 1010 OFFCURVE",
"395 1001 OFFCURVE",
"405 1001 CURVE SMOOTH",
"434 1001 OFFCURVE",
"421 1040 OFFCURVE",
"464 1040 CURVE SMOOTH",
"483 1040 OFFCURVE",
"494 1028 OFFCURVE",
"494 1013 CURVE SMOOTH",
"494 973 OFFCURVE",
"421 965 OFFCURVE",
"421 925 CURVE SMOOTH",
"421 901 OFFCURVE",
"437 880 OFFCURVE",
"484 880 CURVE"
);
}
);
};
components = (
{
name = E;
},
{
name = circumflex_hookabove;
transform = "{1, 0, 0, 1, 545, 200}";
}
);
layerId = "ECFE7DEB-F40D-44C7-B7CF-D3B40F3B51F8";
width = 573;
}
);
note = Ecircumflexhookabove;
unicode = 1EC2;
},
{
color = 4;
glyphname = Ecircumflextilde;
lastChange = "2018-05-16 09:43:10 +0000";
layers = (
{
background = {
paths = (
{
closed = 1;
nodes = (
"554 0 LINE",
"571 179 LINE",
"544 179 LINE",
"538 124 OFFCURVE",
"520 40 OFFCURVE",
"456 40 CURVE SMOOTH",
"201 40 LINE",
"201 659 LINE",
"441 659 LINE SMOOTH",
"516 659 OFFCURVE",
"525 567 OFFCURVE",
"528 527 CURVE",
"555 527 LINE",
"555 700 LINE",
"16 700 LINE",
"16 673 LINE",
"44 673 LINE SMOOTH",
"83 673 OFFCURVE",
"103 662 OFFCURVE",
"103 637 CURVE SMOOTH",
"103 62 LINE SMOOTH",
"103 37 OFFCURVE",
"83 26 OFFCURVE",
"44 26 CURVE SMOOTH",
"16 26 LINE",
"16 0 LINE"
);
},
{
closed = 1;
nodes = (
"455 251 LINE",
"455 485 LINE",
"431 485 LINE",
"427 436 OFFCURVE",
"424 388 OFFCURVE",
"379 388 CURVE SMOOTH",
"162 388 LINE",
"162 348 LINE",
"379 348 LINE SMOOTH",
"424 348 OFFCURVE",
"427 300 OFFCURVE",
"431 251 CURVE"
);
},
{
closed = 1;
nodes = (
"290 862 LINE SMOOTH",
"300 870 OFFCURVE",
"310 878 OFFCURVE",
"318 878 CURVE SMOOTH",
"324 878 OFFCURVE",
"332 873 OFFCURVE",
"341 867 CURVE",
"447 781 LINE",
"466 803 LINE",
"344 932 LINE",
"293 932 LINE",
"171 803 LINE",
"189 781 LINE"
);
},
{
closed = 1;
nodes = (
"193 997 OFFCURVE",
"211 1018 OFFCURVE",
"242 1018 CURVE SMOOTH",
"291 1018 OFFCURVE",
"338 964 OFFCURVE",
"387 964 CURVE SMOOTH",
"440 964 OFFCURVE",
"469 1012 OFFCURVE",
"481 1063 CURVE",
"460 1075 LINE",
"447 1035 OFFCURVE",
"431 1012 OFFCURVE",
"398 1012 CURVE SMOOTH",
"351 1012 OFFCURVE",
"302 1065 OFFCURVE",
"253 1065 CURVE SMOOTH",
"202 1065 OFFCURVE",
"170 1021 OFFCURVE",
"160 970 CURVE",
"180 958 LINE"
);
}
);
};
components = (
{
name = E;
},
{
name = circumflex_tilde;
transform = "{1, 0, 0, 1, 542, 200}";
}
);
layerId = "0B1DFD06-3317-40CA-B510-4969A0718C16";
width = 541;
},
{
background = {
paths = (
{
closed = 1;
nodes = (
"554 0 LINE",
"571 179 LINE",
"544 179 LINE",
"538 124 OFFCURVE",
"520 40 OFFCURVE",
"456 40 CURVE SMOOTH",
"201 40 LINE",
"201 659 LINE",
"441 659 LINE SMOOTH",
"516 659 OFFCURVE",
"525 567 OFFCURVE",
"528 527 CURVE",
"555 527 LINE",
"555 700 LINE",
"16 700 LINE",
"16 673 LINE",
"44 673 LINE SMOOTH",
"83 673 OFFCURVE",
"103 662 OFFCURVE",
"103 637 CURVE SMOOTH",
"103 62 LINE SMOOTH",
"103 37 OFFCURVE",
"83 26 OFFCURVE",
"44 26 CURVE SMOOTH",
"16 26 LINE",
"16 0 LINE"
);
},
{
closed = 1;
nodes = (
"455 251 LINE",
"455 485 LINE",
"431 485 LINE",
"427 436 OFFCURVE",
"424 388 OFFCURVE",
"379 388 CURVE SMOOTH",
"162 388 LINE",
"162 348 LINE",
"379 348 LINE SMOOTH",
"424 348 OFFCURVE",
"427 300 OFFCURVE",
"431 251 CURVE"
);
},
{
closed = 1;
nodes = (
"290 862 LINE SMOOTH",
"300 870 OFFCURVE",
"310 878 OFFCURVE",
"318 878 CURVE SMOOTH",
"324 878 OFFCURVE",
"332 873 OFFCURVE",
"341 867 CURVE",
"447 781 LINE",
"466 803 LINE",
"344 932 LINE",
"293 932 LINE",
"171 803 LINE",
"189 781 LINE"
);
},
{
closed = 1;
nodes = (
"193 997 OFFCURVE",
"211 1018 OFFCURVE",
"242 1018 CURVE SMOOTH",
"291 1018 OFFCURVE",
"338 964 OFFCURVE",
"387 964 CURVE SMOOTH",
"440 964 OFFCURVE",
"469 1012 OFFCURVE",
"481 1063 CURVE",
"460 1075 LINE",
"447 1035 OFFCURVE",
"431 1012 OFFCURVE",
"398 1012 CURVE SMOOTH",
"351 1012 OFFCURVE",
"302 1065 OFFCURVE",
"253 1065 CURVE SMOOTH",
"202 1065 OFFCURVE",
"170 1021 OFFCURVE",
"160 970 CURVE",
"180 958 LINE"
);
}
);
};
components = (
{
name = E;
},
{
name = circumflex_tilde;
transform = "{1, 0, 0, 1, 545, 200}";
}
);
layerId = "ECFE7DEB-F40D-44C7-B7CF-D3B40F3B51F8";
width = 573;
}
);
note = Ecircumflextilde;
unicode = 1EC4;
},
{
color = 4;
glyphname = Edieresis;
lastChange = "2018-05-16 09:43:09 +0000";
layers = (
{
background = {
paths = (
{
closed = 1;
nodes = (
"554 0 LINE",
"571 179 LINE",
"544 179 LINE",
"538 124 OFFCURVE",
"520 40 OFFCURVE",
"456 40 CURVE SMOOTH",
"201 40 LINE",
"201 659 LINE",
"441 659 LINE SMOOTH",
"516 659 OFFCURVE",
"525 567 OFFCURVE",
"528 527 CURVE",
"555 527 LINE",
"555 700 LINE",
"16 700 LINE",
"16 673 LINE",
"44 673 LINE SMOOTH",
"83 673 OFFCURVE",
"103 662 OFFCURVE",
"103 637 CURVE SMOOTH",
"103 62 LINE SMOOTH",
"103 37 OFFCURVE",
"83 26 OFFCURVE",
"44 26 CURVE SMOOTH",
"16 26 LINE",
"16 0 LINE"
);
},
{
closed = 1;
nodes = (
"455 251 LINE",
"455 485 LINE",
"431 485 LINE",
"427 436 OFFCURVE",
"424 388 OFFCURVE",
"379 388 CURVE SMOOTH",
"162 388 LINE",
"162 348 LINE",
"379 348 LINE SMOOTH",
"424 348 OFFCURVE",
"427 300 OFFCURVE",
"431 251 CURVE"
);
},
{
closed = 1;
nodes = (
"254 781 OFFCURVE",
"272 800 OFFCURVE",
"272 827 CURVE SMOOTH",
"272 855 OFFCURVE",
"254 875 OFFCURVE",
"225 875 CURVE SMOOTH",
"197 875 OFFCURVE",
"179 855 OFFCURVE",
"179 827 CURVE SMOOTH",
"179 800 OFFCURVE",
"197 781 OFFCURVE",
"225 781 CURVE SMOOTH"
);
},
{
closed = 1;
nodes = (
"470 781 OFFCURVE",
"488 800 OFFCURVE",
"488 827 CURVE SMOOTH",
"488 855 OFFCURVE",
"470 875 OFFCURVE",
"441 875 CURVE SMOOTH",
"412 875 OFFCURVE",
"394 855 OFFCURVE",
"394 827 CURVE SMOOTH",
"394 800 OFFCURVE",
"412 781 OFFCURVE",
"441 781 CURVE SMOOTH"
);
}
);
};
components = (
{
name = E;
},
{
name = dieresiscomb;
transform = "{1, 0, 0, 1, 291, 200}";
}
);
layerId = "0B1DFD06-3317-40CA-B510-4969A0718C16";
width = 541;
},
{
background = {
paths = (
{
closed = 1;
nodes = (
"554 0 LINE",
"571 179 LINE",
"544 179 LINE",
"538 124 OFFCURVE",
"520 40 OFFCURVE",
"456 40 CURVE SMOOTH",
"201 40 LINE",
"201 659 LINE",
"441 659 LINE SMOOTH",
"516 659 OFFCURVE",
"525 567 OFFCURVE",
"528 527 CURVE",
"555 527 LINE",
"555 700 LINE",
"16 700 LINE",
"16 673 LINE",
"44 673 LINE SMOOTH",
"83 673 OFFCURVE",
"103 662 OFFCURVE",
"103 637 CURVE SMOOTH",
"103 62 LINE SMOOTH",
"103 37 OFFCURVE",
"83 26 OFFCURVE",
"44 26 CURVE SMOOTH",
"16 26 LINE",
"16 0 LINE"
);
},
{
closed = 1;
nodes = (
"455 251 LINE",
"455 485 LINE",
"431 485 LINE",
"427 436 OFFCURVE",
"424 388 OFFCURVE",
"379 388 CURVE SMOOTH",
"162 388 LINE",
"162 348 LINE",
"379 348 LINE SMOOTH",
"424 348 OFFCURVE",
"427 300 OFFCURVE",
"431 251 CURVE"
);
},
{
closed = 1;
nodes = (
"254 781 OFFCURVE",
"272 800 OFFCURVE",
"272 827 CURVE SMOOTH",
"272 855 OFFCURVE",
"254 875 OFFCURVE",
"225 875 CURVE SMOOTH",
"197 875 OFFCURVE",
"179 855 OFFCURVE",
"179 827 CURVE SMOOTH",
"179 800 OFFCURVE",
"197 781 OFFCURVE",
"225 781 CURVE SMOOTH"
);
},
{
closed = 1;
nodes = (
"470 781 OFFCURVE",
"488 800 OFFCURVE",
"488 827 CURVE SMOOTH",
"488 855 OFFCURVE",
"470 875 OFFCURVE",
"441 875 CURVE SMOOTH",
"412 875 OFFCURVE",
"394 855 OFFCURVE",
"394 827 CURVE SMOOTH",
"394 800 OFFCURVE",
"412 781 OFFCURVE",
"441 781 CURVE SMOOTH"
);
}
);
};
components = (
{
name = E;
},
{
name = dieresiscomb;
transform = "{1, 0, 0, 1, 294, 200}";
}
);
layerId = "ECFE7DEB-F40D-44C7-B7CF-D3B40F3B51F8";
width = 573;
}
);
note = Edieresis;
unicode = 00CB;
},
{
color = 4;
glyphname = Edotaccent;
lastChange = "2018-05-16 09:43:09 +0000";
layers = (
{
background = {
paths = (
{
closed = 1;
nodes = (
"554 0 LINE",
"571 179 LINE",
"544 179 LINE",
"538 124 OFFCURVE",
"520 40 OFFCURVE",
"456 40 CURVE SMOOTH",
"201 40 LINE",
"201 659 LINE",
"441 659 LINE SMOOTH",
"516 659 OFFCURVE",
"525 567 OFFCURVE",
"528 527 CURVE",
"555 527 LINE",
"555 700 LINE",
"16 700 LINE",
"16 673 LINE",
"44 673 LINE SMOOTH",
"83 673 OFFCURVE",
"103 662 OFFCURVE",
"103 637 CURVE SMOOTH",
"103 62 LINE SMOOTH",
"103 37 OFFCURVE",
"83 26 OFFCURVE",
"44 26 CURVE SMOOTH",
"16 26 LINE",
"16 0 LINE"
);
},
{
closed = 1;
nodes = (
"455 251 LINE",
"455 485 LINE",
"431 485 LINE",
"427 436 OFFCURVE",
"424 388 OFFCURVE",
"379 388 CURVE SMOOTH",
"162 388 LINE",
"162 348 LINE",
"379 348 LINE SMOOTH",
"424 348 OFFCURVE",
"427 300 OFFCURVE",
"431 251 CURVE"
);
},
{
closed = 1;
nodes = (
"362 765 OFFCURVE",
"380 784 OFFCURVE",
"380 811 CURVE SMOOTH",
"380 839 OFFCURVE",
"362 858 OFFCURVE",
"334 858 CURVE SMOOTH",
"305 858 OFFCURVE",
"287 839 OFFCURVE",
"287 811 CURVE SMOOTH",
"287 784 OFFCURVE",
"305 765 OFFCURVE",
"334 765 CURVE SMOOTH"
);
}
);
};
components = (
{
name = E;
},
{
name = dotaccentcomb;
transform = "{1, 0, 0, 1, 291, 200}";
}
);
layerId = "0B1DFD06-3317-40CA-B510-4969A0718C16";
width = 541;
},
{
background = {
paths = (
{
closed = 1;
nodes = (
"554 0 LINE",
"571 179 LINE",
"544 179 LINE",
"538 124 OFFCURVE",
"520 40 OFFCURVE",
"456 40 CURVE SMOOTH",
"201 40 LINE",
"201 659 LINE",
"441 659 LINE SMOOTH",
"516 659 OFFCURVE",
"525 567 OFFCURVE",
"528 527 CURVE",
"555 527 LINE",
"555 700 LINE",
"16 700 LINE",
"16 673 LINE",
"44 673 LINE SMOOTH",
"83 673 OFFCURVE",
"103 662 OFFCURVE",
"103 637 CURVE SMOOTH",
"103 62 LINE SMOOTH",
"103 37 OFFCURVE",
"83 26 OFFCURVE",
"44 26 CURVE SMOOTH",
"16 26 LINE",
"16 0 LINE"
);
},
{
closed = 1;
nodes = (
"455 251 LINE",
"455 485 LINE",
"431 485 LINE",
"427 436 OFFCURVE",
"424 388 OFFCURVE",
"379 388 CURVE SMOOTH",
"162 388 LINE",
"162 348 LINE",
"379 348 LINE SMOOTH",
"424 348 OFFCURVE",
"427 300 OFFCURVE",
"431 251 CURVE"
);
},
{
closed = 1;
nodes = (
"362 765 OFFCURVE",
"380 784 OFFCURVE",
"380 811 CURVE SMOOTH",
"380 839 OFFCURVE",
"362 858 OFFCURVE",
"334 858 CURVE SMOOTH",
"305 858 OFFCURVE",
"287 839 OFFCURVE",
"287 811 CURVE SMOOTH",
"287 784 OFFCURVE",
"305 765 OFFCURVE",
"334 765 CURVE SMOOTH"
);
}
);
};
components = (
{
name = E;
},
{
name = dotaccentcomb;
transform = "{1, 0, 0, 1, 294, 200}";
}
);
layerId = "ECFE7DEB-F40D-44C7-B7CF-D3B40F3B51F8";
width = 573;
}
);
note = Edotaccent;
unicode = 0116;
},
{
color = 4;
glyphname = Edotbelow;
lastChange = "2018-05-16 09:43:09 +0000";
layers = (
{
background = {
paths = (
{
closed = 1;
nodes = (
"554 0 LINE",
"571 179 LINE",
"544 179 LINE",
"538 124 OFFCURVE",
"520 40 OFFCURVE",
"456 40 CURVE SMOOTH",
"201 40 LINE",
"201 659 LINE",
"441 659 LINE SMOOTH",
"516 659 OFFCURVE",
"525 567 OFFCURVE",
"528 527 CURVE",
"555 527 LINE",
"555 700 LINE",
"16 700 LINE",
"16 673 LINE",
"44 673 LINE SMOOTH",
"83 673 OFFCURVE",
"103 662 OFFCURVE",
"103 637 CURVE SMOOTH",
"103 62 LINE SMOOTH",
"103 37 OFFCURVE",
"83 26 OFFCURVE",
"44 26 CURVE SMOOTH",
"16 26 LINE",
"16 0 LINE"
);
},
{
closed = 1;
nodes = (
"343 -159 OFFCURVE",
"361 -140 OFFCURVE",
"361 -112 CURVE SMOOTH",
"361 -84 OFFCURVE",
"343 -64 OFFCURVE",
"315 -64 CURVE SMOOTH",
"287 -64 OFFCURVE",
"268 -84 OFFCURVE",
"268 -112 CURVE SMOOTH",
"268 -140 OFFCURVE",
"287 -159 OFFCURVE",
"315 -159 CURVE SMOOTH"
);
},
{
closed = 1;
nodes = (
"455 251 LINE",
"455 485 LINE",
"431 485 LINE",
"427 436 OFFCURVE",
"424 388 OFFCURVE",
"379 388 CURVE SMOOTH",
"162 388 LINE",
"162 348 LINE",
"379 348 LINE SMOOTH",
"424 348 OFFCURVE",
"427 300 OFFCURVE",
"431 251 CURVE"
);
}
);
};
components = (
{
name = E;
},
{
name = dotbelowcomb;
transform = "{1, 0, 0, 1, 291, 0}";
}
);
layerId = "0B1DFD06-3317-40CA-B510-4969A0718C16";
width = 541;
},
{
background = {
paths = (
{
closed = 1;
nodes = (
"554 0 LINE",
"571 179 LINE",
"544 179 LINE",
"538 124 OFFCURVE",
"520 40 OFFCURVE",
"456 40 CURVE SMOOTH",
"201 40 LINE",
"201 659 LINE",
"441 659 LINE SMOOTH",
"516 659 OFFCURVE",
"525 567 OFFCURVE",
"528 527 CURVE",
"555 527 LINE",
"555 700 LINE",
"16 700 LINE",
"16 673 LINE",
"44 673 LINE SMOOTH",
"83 673 OFFCURVE",
"103 662 OFFCURVE",
"103 637 CURVE SMOOTH",
"103 62 LINE SMOOTH",
"103 37 OFFCURVE",
"83 26 OFFCURVE",
"44 26 CURVE SMOOTH",
"16 26 LINE",
"16 0 LINE"
);
},
{
closed = 1;
nodes = (
"343 -159 OFFCURVE",
"361 -140 OFFCURVE",
"361 -112 CURVE SMOOTH",
"361 -84 OFFCURVE",
"343 -64 OFFCURVE",
"315 -64 CURVE SMOOTH",
"287 -64 OFFCURVE",
"268 -84 OFFCURVE",
"268 -112 CURVE SMOOTH",
"268 -140 OFFCURVE",
"287 -159 OFFCURVE",
"315 -159 CURVE SMOOTH"
);
},
{
closed = 1;
nodes = (
"455 251 LINE",
"455 485 LINE",
"431 485 LINE",
"427 436 OFFCURVE",
"424 388 OFFCURVE",
"379 388 CURVE SMOOTH",
"162 388 LINE",
"162 348 LINE",
"379 348 LINE SMOOTH",
"424 348 OFFCURVE",
"427 300 OFFCURVE",
"431 251 CURVE"
);
}
);
};
components = (
{
name = E;
},
{
name = dotbelowcomb;
transform = "{1, 0, 0, 1, 294, 0}";
}
);
layerId = "ECFE7DEB-F40D-44C7-B7CF-D3B40F3B51F8";
width = 573;
}
);
note = Edotbelow;
unicode = 1EB8;
},
{
color = 4;
glyphname = Egrave;
lastChange = "2018-05-16 09:43:09 +0000";
layers = (
{
background = {
paths = (
{
closed = 1;
nodes = (
"554 0 LINE",
"571 179 LINE",
"544 179 LINE",
"538 124 OFFCURVE",
"520 40 OFFCURVE",
"456 40 CURVE SMOOTH",
"201 40 LINE",
"201 659 LINE",
"441 659 LINE SMOOTH",
"516 659 OFFCURVE",
"525 567 OFFCURVE",
"528 527 CURVE",
"555 527 LINE",
"555 700 LINE",
"16 700 LINE",
"16 673 LINE",
"44 673 LINE SMOOTH",
"83 673 OFFCURVE",
"103 662 OFFCURVE",
"103 637 CURVE SMOOTH",
"103 62 LINE SMOOTH",
"103 37 OFFCURVE",
"83 26 OFFCURVE",
"44 26 CURVE SMOOTH",
"16 26 LINE",
"16 0 LINE"
);
},
{
closed = 1;
nodes = (
"455 251 LINE",
"455 485 LINE",
"431 485 LINE",
"427 436 OFFCURVE",
"424 388 OFFCURVE",
"379 388 CURVE SMOOTH",
"162 388 LINE",
"162 348 LINE",
"379 348 LINE SMOOTH",
"424 348 OFFCURVE",
"427 300 OFFCURVE",
"431 251 CURVE"
);
},
{
closed = 1;
nodes = (
"425 807 LINE",
"310 913 LINE",
"301 922 OFFCURVE",
"285 937 OFFCURVE",
"265 937 CURVE SMOOTH",
"245 937 OFFCURVE",
"233 924 OFFCURVE",
"233 908 CURVE SMOOTH",
"233 890 OFFCURVE",
"245 876 OFFCURVE",
"264 865 CURVE SMOOTH",
"407 782 LINE"
);
}
);
};
components = (
{
name = E;
},
{
name = gravecomb;
transform = "{1, 0, 0, 1, 291, 200}";
}
);
layerId = "0B1DFD06-3317-40CA-B510-4969A0718C16";
width = 541;
},
{
background = {
paths = (
{
closed = 1;
nodes = (
"554 0 LINE",
"571 179 LINE",
"544 179 LINE",
"538 124 OFFCURVE",
"520 40 OFFCURVE",
"456 40 CURVE SMOOTH",
"201 40 LINE",
"201 659 LINE",
"441 659 LINE SMOOTH",
"516 659 OFFCURVE",
"525 567 OFFCURVE",
"528 527 CURVE",
"555 527 LINE",
"555 700 LINE",
"16 700 LINE",
"16 673 LINE",
"44 673 LINE SMOOTH",
"83 673 OFFCURVE",
"103 662 OFFCURVE",
"103 637 CURVE SMOOTH",
"103 62 LINE SMOOTH",
"103 37 OFFCURVE",
"83 26 OFFCURVE",
"44 26 CURVE SMOOTH",
"16 26 LINE",
"16 0 LINE"
);
},
{
closed = 1;
nodes = (
"455 251 LINE",
"455 485 LINE",
"431 485 LINE",
"427 436 OFFCURVE",
"424 388 OFFCURVE",
"379 388 CURVE SMOOTH",
"162 388 LINE",
"162 348 LINE",
"379 348 LINE SMOOTH",
"424 348 OFFCURVE",
"427 300 OFFCURVE",
"431 251 CURVE"
);
},
{
closed = 1;
nodes = (
"425 807 LINE",
"310 913 LINE",
"301 922 OFFCURVE",
"285 937 OFFCURVE",
"265 937 CURVE SMOOTH",
"245 937 OFFCURVE",
"233 924 OFFCURVE",
"233 908 CURVE SMOOTH",
"233 890 OFFCURVE",
"245 876 OFFCURVE",
"264 865 CURVE SMOOTH",
"407 782 LINE"
);
}
);
};
components = (
{
name = E;
},
{
name = gravecomb;
transform = "{1, 0, 0, 1, 294, 200}";
}
);
layerId = "ECFE7DEB-F40D-44C7-B7CF-D3B40F3B51F8";
width = 573;
}
);
note = Egrave;
unicode = 00C8;
},
{
color = 4;
glyphname = Ehookabove;
lastChange = "2018-05-16 09:43:10 +0000";
layers = (
{
background = {
paths = (
{
closed = 1;
nodes = (
"554 0 LINE",
"571 179 LINE",
"544 179 LINE",
"538 124 OFFCURVE",
"520 40 OFFCURVE",
"456 40 CURVE SMOOTH",
"201 40 LINE",
"201 659 LINE",
"441 659 LINE SMOOTH",
"516 659 OFFCURVE",
"525 567 OFFCURVE",
"528 527 CURVE",
"555 527 LINE",
"555 700 LINE",
"16 700 LINE",
"16 673 LINE",
"44 673 LINE SMOOTH",
"83 673 OFFCURVE",
"103 662 OFFCURVE",
"103 637 CURVE SMOOTH",
"103 62 LINE SMOOTH",
"103 37 OFFCURVE",
"83 26 OFFCURVE",
"44 26 CURVE SMOOTH",
"16 26 LINE",
"16 0 LINE"
);
},
{
closed = 1;
nodes = (
"455 251 LINE",
"455 485 LINE",
"431 485 LINE",
"427 436 OFFCURVE",
"424 388 OFFCURVE",
"379 388 CURVE SMOOTH",
"162 388 LINE",
"162 348 LINE",
"379 348 LINE SMOOTH",
"424 348 OFFCURVE",
"427 300 OFFCURVE",
"431 251 CURVE"
);
},
{
closed = 1;
nodes = (
"367 798 LINE",
"348 805 OFFCURVE",
"336 811 OFFCURVE",
"336 828 CURVE SMOOTH",
"336 861 OFFCURVE",
"425 876 OFFCURVE",
"425 927 CURVE SMOOTH",
"425 969 OFFCURVE",
"389 991 OFFCURVE",
"336 991 CURVE SMOOTH",
"289 991 OFFCURVE",
"248 974 OFFCURVE",
"248 940 CURVE SMOOTH",
"248 923 OFFCURVE",
"256 915 OFFCURVE",
"271 915 CURVE SMOOTH",
"294 915 OFFCURVE",
"296 934 OFFCURVE",
"299 942 CURVE SMOOTH",
"304 956 OFFCURVE",
"321 962 OFFCURVE",
"337 962 CURVE SMOOTH",
"358 962 OFFCURVE",
"371 947 OFFCURVE",
"371 930 CURVE SMOOTH",
"371 885 OFFCURVE",
"289 874 OFFCURVE",
"289 828 CURVE SMOOTH",
"289 801 OFFCURVE",
"307 778 OFFCURVE",
"358 778 CURVE"
);
}
);
};
components = (
{
name = E;
},
{
name = hookabovecomb;
transform = "{1, 0, 0, 1, 291, 200}";
}
);
layerId = "0B1DFD06-3317-40CA-B510-4969A0718C16";
width = 541;
},
{
background = {
paths = (
{
closed = 1;
nodes = (
"554 0 LINE",
"571 179 LINE",
"544 179 LINE",
"538 124 OFFCURVE",
"520 40 OFFCURVE",
"456 40 CURVE SMOOTH",
"201 40 LINE",
"201 659 LINE",
"441 659 LINE SMOOTH",
"516 659 OFFCURVE",
"525 567 OFFCURVE",
"528 527 CURVE",
"555 527 LINE",
"555 700 LINE",
"16 700 LINE",
"16 673 LINE",
"44 673 LINE SMOOTH",
"83 673 OFFCURVE",
"103 662 OFFCURVE",
"103 637 CURVE SMOOTH",
"103 62 LINE SMOOTH",
"103 37 OFFCURVE",
"83 26 OFFCURVE",
"44 26 CURVE SMOOTH",
"16 26 LINE",
"16 0 LINE"
);
},
{
closed = 1;
nodes = (
"455 251 LINE",
"455 485 LINE",
"431 485 LINE",
"427 436 OFFCURVE",
"424 388 OFFCURVE",
"379 388 CURVE SMOOTH",
"162 388 LINE",
"162 348 LINE",
"379 348 LINE SMOOTH",
"424 348 OFFCURVE",
"427 300 OFFCURVE",
"431 251 CURVE"
);
},
{
closed = 1;
nodes = (
"367 798 LINE",
"348 805 OFFCURVE",
"336 811 OFFCURVE",
"336 828 CURVE SMOOTH",
"336 861 OFFCURVE",
"425 876 OFFCURVE",
"425 927 CURVE SMOOTH",
"425 969 OFFCURVE",
"389 991 OFFCURVE",
"336 991 CURVE SMOOTH",
"289 991 OFFCURVE",
"248 974 OFFCURVE",
"248 940 CURVE SMOOTH",
"248 923 OFFCURVE",
"256 915 OFFCURVE",
"271 915 CURVE SMOOTH",
"294 915 OFFCURVE",
"296 934 OFFCURVE",
"299 942 CURVE SMOOTH",
"304 956 OFFCURVE",
"321 962 OFFCURVE",
"337 962 CURVE SMOOTH",
"358 962 OFFCURVE",
"371 947 OFFCURVE",
"371 930 CURVE SMOOTH",
"371 885 OFFCURVE",
"289 874 OFFCURVE",
"289 828 CURVE SMOOTH",
"289 801 OFFCURVE",
"307 778 OFFCURVE",
"358 778 CURVE"
);
}
);
};
components = (
{
name = E;
},
{
name = hookabovecomb;
transform = "{1, 0, 0, 1, 294, 200}";
}
);
layerId = "ECFE7DEB-F40D-44C7-B7CF-D3B40F3B51F8";
width = 573;
}
);
note = Ehookabove;
unicode = 1EBA;
},
{
color = 4;
glyphname = Emacron;
lastChange = "2018-05-16 09:43:10 +0000";
layers = (
{
background = {
paths = (
{
closed = 1;
nodes = (
"554 0 LINE",
"571 179 LINE",
"544 179 LINE",
"538 124 OFFCURVE",
"520 40 OFFCURVE",
"456 40 CURVE SMOOTH",
"201 40 LINE",
"201 659 LINE",
"441 659 LINE SMOOTH",
"516 659 OFFCURVE",
"525 567 OFFCURVE",
"528 527 CURVE",
"555 527 LINE",
"555 700 LINE",
"16 700 LINE",
"16 673 LINE",
"44 673 LINE SMOOTH",
"83 673 OFFCURVE",
"103 662 OFFCURVE",
"103 637 CURVE SMOOTH",
"103 62 LINE SMOOTH",
"103 37 OFFCURVE",
"83 26 OFFCURVE",
"44 26 CURVE SMOOTH",
"16 26 LINE",
"16 0 LINE"
);
},
{
closed = 1;
nodes = (
"455 251 LINE",
"455 485 LINE",
"431 485 LINE",
"427 436 OFFCURVE",
"424 388 OFFCURVE",
"379 388 CURVE SMOOTH",
"162 388 LINE",
"162 348 LINE",
"379 348 LINE SMOOTH",
"424 348 OFFCURVE",
"427 300 OFFCURVE",
"431 251 CURVE"
);
},
{
closed = 1;
nodes = (
"495 782 LINE",
"495 824 LINE",
"162 824 LINE",
"162 782 LINE"
);
}
);
};
components = (
{
name = E;
},
{
name = macroncomb;
transform = "{1, 0, 0, 1, 291, 200}";
}
);
layerId = "0B1DFD06-3317-40CA-B510-4969A0718C16";
width = 541;
},
{
background = {
paths = (
{
closed = 1;
nodes = (
"554 0 LINE",
"571 179 LINE",
"544 179 LINE",
"538 124 OFFCURVE",
"520 40 OFFCURVE",
"456 40 CURVE SMOOTH",
"201 40 LINE",
"201 659 LINE",
"441 659 LINE SMOOTH",
"516 659 OFFCURVE",
"525 567 OFFCURVE",
"528 527 CURVE",
"555 527 LINE",
"555 700 LINE",
"16 700 LINE",
"16 673 LINE",
"44 673 LINE SMOOTH",
"83 673 OFFCURVE",
"103 662 OFFCURVE",
"103 637 CURVE SMOOTH",
"103 62 LINE SMOOTH",
"103 37 OFFCURVE",
"83 26 OFFCURVE",
"44 26 CURVE SMOOTH",
"16 26 LINE",
"16 0 LINE"
);
},
{
closed = 1;
nodes = (
"455 251 LINE",
"455 485 LINE",
"431 485 LINE",
"427 436 OFFCURVE",
"424 388 OFFCURVE",
"379 388 CURVE SMOOTH",
"162 388 LINE",
"162 348 LINE",
"379 348 LINE SMOOTH",
"424 348 OFFCURVE",
"427 300 OFFCURVE",
"431 251 CURVE"
);
},
{
closed = 1;
nodes = (
"495 782 LINE",
"495 824 LINE",
"162 824 LINE",
"162 782 LINE"
);
}
);
};
components = (
{
name = E;
},
{
name = macroncomb;
transform = "{1, 0, 0, 1, 294, 200}";
}
);
layerId = "ECFE7DEB-F40D-44C7-B7CF-D3B40F3B51F8";
width = 573;
}
);
note = Emacron;
unicode = 0112;
},
{
color = 4;
glyphname = Eogonek;
lastChange = "2018-05-16 09:43:10 +0000";
layers = (
{
background = {
paths = (
{
closed = 1;
nodes = (
"554 0 LINE",
"571 179 LINE",
"544 179 LINE",
"538 124 OFFCURVE",
"520 40 OFFCURVE",
"456 40 CURVE SMOOTH",
"201 40 LINE",
"201 659 LINE",
"441 659 LINE SMOOTH",
"516 659 OFFCURVE",
"525 567 OFFCURVE",
"528 527 CURVE",
"555 527 LINE",
"555 700 LINE",
"16 700 LINE",
"16 673 LINE",
"44 673 LINE SMOOTH",
"83 673 OFFCURVE",
"103 662 OFFCURVE",
"103 637 CURVE SMOOTH",
"103 62 LINE SMOOTH",
"103 37 OFFCURVE",
"83 26 OFFCURVE",
"44 26 CURVE SMOOTH",
"16 26 LINE",
"16 0 LINE"
);
},
{
closed = 1;
nodes = (
"496 -196 OFFCURVE",
"524 -189 OFFCURVE",
"549 -172 CURVE",
"543 -152 LINE",
"527 -158 OFFCURVE",
"510 -162 OFFCURVE",
"497 -162 CURVE SMOOTH",
"464 -162 OFFCURVE",
"437 -146 OFFCURVE",
"437 -106 CURVE SMOOTH",
"437 -66 OFFCURVE",
"464 -26 OFFCURVE",
"510 4 CURVE",
"469 4 LINE",
"416 -22 OFFCURVE",
"376 -64 OFFCURVE",
"376 -114 CURVE SMOOTH",
"376 -147 OFFCURVE",
"395 -196 OFFCURVE",
"470 -196 CURVE SMOOTH"
);
},
{
closed = 1;
nodes = (
"455 251 LINE",
"455 485 LINE",
"431 485 LINE",
"427 436 OFFCURVE",
"424 388 OFFCURVE",
"379 388 CURVE SMOOTH",
"162 388 LINE",
"162 348 LINE",
"379 348 LINE SMOOTH",
"424 348 OFFCURVE",
"427 300 OFFCURVE",
"431 251 CURVE"
);
}
);
};
components = (
{
name = E;
},
{
name = ogonekcomb;
transform = "{1, 0, 0, 1, 450, 0}";
}
);
layerId = "0B1DFD06-3317-40CA-B510-4969A0718C16";
width = 541;
},
{
background = {
paths = (
{
closed = 1;
nodes = (
"554 0 LINE",
"571 179 LINE",
"544 179 LINE",
"538 124 OFFCURVE",
"520 40 OFFCURVE",
"456 40 CURVE SMOOTH",
"201 40 LINE",
"201 659 LINE",
"441 659 LINE SMOOTH",
"516 659 OFFCURVE",
"525 567 OFFCURVE",
"528 527 CURVE",
"555 527 LINE",
"555 700 LINE",
"16 700 LINE",
"16 673 LINE",
"44 673 LINE SMOOTH",
"83 673 OFFCURVE",
"103 662 OFFCURVE",
"103 637 CURVE SMOOTH",
"103 62 LINE SMOOTH",
"103 37 OFFCURVE",
"83 26 OFFCURVE",
"44 26 CURVE SMOOTH",
"16 26 LINE",
"16 0 LINE"
);
},
{
closed = 1;
nodes = (
"496 -196 OFFCURVE",
"524 -189 OFFCURVE",
"549 -172 CURVE",
"543 -152 LINE",
"527 -158 OFFCURVE",
"510 -162 OFFCURVE",
"497 -162 CURVE SMOOTH",
"464 -162 OFFCURVE",
"437 -146 OFFCURVE",
"437 -106 CURVE SMOOTH",
"437 -66 OFFCURVE",
"464 -26 OFFCURVE",
"510 4 CURVE",
"469 4 LINE",
"416 -22 OFFCURVE",
"376 -64 OFFCURVE",
"376 -114 CURVE SMOOTH",
"376 -147 OFFCURVE",
"395 -196 OFFCURVE",
"470 -196 CURVE SMOOTH"
);
},
{
closed = 1;
nodes = (
"455 251 LINE",
"455 485 LINE",
"431 485 LINE",
"427 436 OFFCURVE",
"424 388 OFFCURVE",
"379 388 CURVE SMOOTH",
"162 388 LINE",
"162 348 LINE",
"379 348 LINE SMOOTH",
"424 348 OFFCURVE",
"427 300 OFFCURVE",
"431 251 CURVE"
);
}
);
};
components = (
{
name = E;
},
{
name = ogonekcomb;
transform = "{1, 0, 0, 1, 517, 0}";
}
);
layerId = "ECFE7DEB-F40D-44C7-B7CF-D3B40F3B51F8";
width = 573;
}
);
note = Eogonek;
unicode = 0118;
},
{
color = 4;
glyphname = Etilde;
lastChange = "2018-05-16 09:43:10 +0000";
layers = (
{
background = {
paths = (
{
closed = 1;
nodes = (
"554 0 LINE",
"571 179 LINE",
"544 179 LINE",
"538 124 OFFCURVE",
"520 40 OFFCURVE",
"456 40 CURVE SMOOTH",
"201 40 LINE",
"201 659 LINE",
"441 659 LINE SMOOTH",
"516 659 OFFCURVE",
"525 567 OFFCURVE",
"528 527 CURVE",
"555 527 LINE",
"555 700 LINE",
"16 700 LINE",
"16 673 LINE",
"44 673 LINE SMOOTH",
"83 673 OFFCURVE",
"103 662 OFFCURVE",
"103 637 CURVE SMOOTH",
"103 62 LINE SMOOTH",
"103 37 OFFCURVE",
"83 26 OFFCURVE",
"44 26 CURVE SMOOTH",
"16 26 LINE",
"16 0 LINE"
);
},
{
closed = 1;
nodes = (
"455 251 LINE",
"455 485 LINE",
"431 485 LINE",
"427 436 OFFCURVE",
"424 388 OFFCURVE",
"379 388 CURVE SMOOTH",
"162 388 LINE",
"162 348 LINE",
"379 348 LINE SMOOTH",
"424 348 OFFCURVE",
"427 300 OFFCURVE",
"431 251 CURVE"
);
},
{
closed = 1;
nodes = (
"190 817 OFFCURVE",
"208 838 OFFCURVE",
"241 838 CURVE SMOOTH",
"292 838 OFFCURVE",
"341 784 OFFCURVE",
"392 784 CURVE SMOOTH",
"450 784 OFFCURVE",
"480 832 OFFCURVE",
"492 884 CURVE",
"471 895 LINE",
"455 855 OFFCURVE",
"439 833 OFFCURVE",
"405 833 CURVE SMOOTH",
"356 833 OFFCURVE",
"304 886 OFFCURVE",
"253 886 CURVE SMOOTH",
"199 886 OFFCURVE",
"166 842 OFFCURVE",
"154 790 CURVE",
"176 779 LINE"
);
}
);
};
components = (
{
name = E;
},
{
name = tildecomb;
transform = "{1, 0, 0, 1, 291, 200}";
}
);
layerId = "0B1DFD06-3317-40CA-B510-4969A0718C16";
width = 541;
},
{
background = {
paths = (
{
closed = 1;
nodes = (
"554 0 LINE",
"571 179 LINE",
"544 179 LINE",
"538 124 OFFCURVE",
"520 40 OFFCURVE",
"456 40 CURVE SMOOTH",
"201 40 LINE",
"201 659 LINE",
"441 659 LINE SMOOTH",
"516 659 OFFCURVE",
"525 567 OFFCURVE",
"528 527 CURVE",
"555 527 LINE",
"555 700 LINE",
"16 700 LINE",
"16 673 LINE",
"44 673 LINE SMOOTH",
"83 673 OFFCURVE",
"103 662 OFFCURVE",
"103 637 CURVE SMOOTH",
"103 62 LINE SMOOTH",
"103 37 OFFCURVE",
"83 26 OFFCURVE",
"44 26 CURVE SMOOTH",
"16 26 LINE",
"16 0 LINE"
);
},
{
closed = 1;
nodes = (
"455 251 LINE",
"455 485 LINE",
"431 485 LINE",
"427 436 OFFCURVE",
"424 388 OFFCURVE",
"379 388 CURVE SMOOTH",
"162 388 LINE",
"162 348 LINE",
"379 348 LINE SMOOTH",
"424 348 OFFCURVE",
"427 300 OFFCURVE",
"431 251 CURVE"
);
},
{
closed = 1;
nodes = (
"190 817 OFFCURVE",
"208 838 OFFCURVE",
"241 838 CURVE SMOOTH",
"292 838 OFFCURVE",
"341 784 OFFCURVE",
"392 784 CURVE SMOOTH",
"450 784 OFFCURVE",
"480 832 OFFCURVE",
"492 884 CURVE",
"471 895 LINE",
"455 855 OFFCURVE",
"439 833 OFFCURVE",
"405 833 CURVE SMOOTH",
"356 833 OFFCURVE",
"304 886 OFFCURVE",
"253 886 CURVE SMOOTH",
"199 886 OFFCURVE",
"166 842 OFFCURVE",
"154 790 CURVE",
"176 779 LINE"
);
}
);
};
components = (
{
name = E;
},
{
name = tildecomb;
transform = "{1, 0, 0, 1, 294, 200}";
}
);
layerId = "ECFE7DEB-F40D-44C7-B7CF-D3B40F3B51F8";
width = 573;
}
);
note = Etilde;
unicode = 1EBC;
},
{
color = 4;
glyphname = Hbar;
lastChange = "2018-05-15 12:02:42 +0000";
layers = (
{
components = (
{
name = H;
transform = "{1, 0, 0, 1, 10, 0}";
}
);
layerId = "0B1DFD06-3317-40CA-B510-4969A0718C16";
paths = (
{
closed = 1;
nodes = (
"630 504 LINE",
"630 544 LINE",
"40 544 LINE",
"40 504 LINE"
);
}
);
width = 670;
},
{
components = (
{
name = H;
transform = "{1, 0, 0, 1, 9, 0}";
}
);
layerId = "ECFE7DEB-F40D-44C7-B7CF-D3B40F3B51F8";
paths = (
{
closed = 1;
nodes = (
"679 494 LINE",
"679 594 LINE",
"10 594 LINE",
"10 494 LINE"
);
}
);
width = 689;
}
);
note = Hbar;
unicode = 0126;
},
{
color = 4;
glyphname = Lslash;
lastChange = "2018-05-15 13:09:10 +0000";
layers = (
{
components = (
{
name = L;
}
);
layerId = "0B1DFD06-3317-40CA-B510-4969A0718C16";
paths = (
{
closed = 1;
nodes = (
"335 397 LINE",
"335 447 LINE",
"26 313 LINE",
"26 266 LINE"
);
}
);
width = 540;
},
{
components = (
{
name = L;
}
);
layerId = "ECFE7DEB-F40D-44C7-B7CF-D3B40F3B51F8";
paths = (
{
closed = 1;
nodes = (
"373 374 LINE",
"373 503 LINE",
"-2 346 LINE",
"-2 221 LINE"
);
}
);
width = 548;
}
);
note = Lslash;
rightMetricsKey = L;
unicode = 0141;
},
{
color = 4;
glyphname = Nacute;
lastChange = "2018-05-16 09:42:50 +0000";
layers = (
{
background = {
paths = (
{
closed = 1;
nodes = (
"247 0 LINE",
"247 26 LINE",
"217 26 LINE SMOOTH",
"179 26 OFFCURVE",
"159 37 OFFCURVE",
"159 62 CURVE SMOOTH",
"159 642 LINE",
"587 0 LINE",
"645 0 LINE",
"645 637 LINE SMOOTH",
"645 662 OFFCURVE",
"665 673 OFFCURVE",
"703 673 CURVE SMOOTH",
"733 673 LINE",
"733 700 LINE",
"508 700 LINE",
"508 673 LINE",
"537 673 LINE SMOOTH",
"576 673 OFFCURVE",
"595 662 OFFCURVE",
"595 637 CURVE SMOOTH",
"595 126 LINE",
"217 700 LINE",
"22 700 LINE",
"22 673 LINE",
"51 673 LINE SMOOTH",
"90 673 OFFCURVE",
"109 662 OFFCURVE",
"109 637 CURVE SMOOTH",
"109 62 LINE SMOOTH",
"109 37 OFFCURVE",
"90 26 OFFCURVE",
"51 26 CURVE SMOOTH",
"22 26 LINE",
"22 0 LINE"
);
},
{
closed = 1;
nodes = (
"458 865 LINE SMOOTH",
"480 877 OFFCURVE",
"492 890 OFFCURVE",
"492 907 CURVE SMOOTH",
"492 922 OFFCURVE",
"480 937 OFFCURVE",
"458 937 CURVE SMOOTH",
"437 937 OFFCURVE",
"422 921 OFFCURVE",
"414 914 CURVE SMOOTH",
"299 807 LINE",
"316 782 LINE"
);
}
);
};
components = (
{
name = N;
},
{
name = acutecomb;
transform = "{1, 0, 0, 1, 335, 200}";
}
);
layerId = "0B1DFD06-3317-40CA-B510-4969A0718C16";
width = 670;
},
{
background = {
paths = (
{
closed = 1;
nodes = (
"247 0 LINE",
"247 26 LINE",
"217 26 LINE SMOOTH",
"179 26 OFFCURVE",
"159 37 OFFCURVE",
"159 62 CURVE SMOOTH",
"159 642 LINE",
"587 0 LINE",
"645 0 LINE",
"645 637 LINE SMOOTH",
"645 662 OFFCURVE",
"665 673 OFFCURVE",
"703 673 CURVE SMOOTH",
"733 673 LINE",
"733 700 LINE",
"508 700 LINE",
"508 673 LINE",
"537 673 LINE SMOOTH",
"576 673 OFFCURVE",
"595 662 OFFCURVE",
"595 637 CURVE SMOOTH",
"595 126 LINE",
"217 700 LINE",
"22 700 LINE",
"22 673 LINE",
"51 673 LINE SMOOTH",
"90 673 OFFCURVE",
"109 662 OFFCURVE",
"109 637 CURVE SMOOTH",
"109 62 LINE SMOOTH",
"109 37 OFFCURVE",
"90 26 OFFCURVE",
"51 26 CURVE SMOOTH",
"22 26 LINE",
"22 0 LINE"
);
},
{
closed = 1;
nodes = (
"458 865 LINE SMOOTH",
"480 877 OFFCURVE",
"492 890 OFFCURVE",
"492 907 CURVE SMOOTH",
"492 922 OFFCURVE",
"480 937 OFFCURVE",
"458 937 CURVE SMOOTH",
"437 937 OFFCURVE",
"422 921 OFFCURVE",
"414 914 CURVE SMOOTH",
"299 807 LINE",
"316 782 LINE"
);
}
);
};
components = (
{
name = N;
},
{
name = acutecomb;
transform = "{1, 0, 0, 1, 349, 200}";
}
);
layerId = "ECFE7DEB-F40D-44C7-B7CF-D3B40F3B51F8";
width = 698;
}
);
note = Nacute;
unicode = 0143;
},
{
color = 4;
glyphname = Ncaron;
lastChange = "2018-05-16 09:42:50 +0000";
layers = (
{
background = {
paths = (
{
closed = 1;
nodes = (
"247 0 LINE",
"247 26 LINE",
"217 26 LINE SMOOTH",
"179 26 OFFCURVE",
"159 37 OFFCURVE",
"159 62 CURVE SMOOTH",
"159 642 LINE",
"587 0 LINE",
"645 0 LINE",
"645 637 LINE SMOOTH",
"645 662 OFFCURVE",
"665 673 OFFCURVE",
"703 673 CURVE SMOOTH",
"733 673 LINE",
"733 700 LINE",
"508 700 LINE",
"508 673 LINE",
"537 673 LINE SMOOTH",
"576 673 OFFCURVE",
"595 662 OFFCURVE",
"595 637 CURVE SMOOTH",
"595 126 LINE",
"217 700 LINE",
"22 700 LINE",
"22 673 LINE",
"51 673 LINE SMOOTH",
"90 673 OFFCURVE",
"109 662 OFFCURVE",
"109 637 CURVE SMOOTH",
"109 62 LINE SMOOTH",
"109 37 OFFCURVE",
"90 26 OFFCURVE",
"51 26 CURVE SMOOTH",
"22 26 LINE",
"22 0 LINE"
);
},
{
closed = 1;
nodes = (
"403 782 LINE",
"527 911 LINE",
"508 932 LINE",
"400 847 LINE",
"392 840 OFFCURVE",
"383 836 OFFCURVE",
"377 836 CURVE SMOOTH",
"371 836 OFFCURVE",
"363 840 OFFCURVE",
"353 847 CURVE",
"245 932 LINE",
"226 911 LINE",
"350 782 LINE"
);
}
);
};
components = (
{
name = N;
},
{
name = caroncomb;
transform = "{1, 0, 0, 1, 335, 200}";
}
);
layerId = "0B1DFD06-3317-40CA-B510-4969A0718C16";
width = 670;
},
{
background = {
paths = (
{
closed = 1;
nodes = (
"247 0 LINE",
"247 26 LINE",
"217 26 LINE SMOOTH",
"179 26 OFFCURVE",
"159 37 OFFCURVE",
"159 62 CURVE SMOOTH",
"159 642 LINE",
"587 0 LINE",
"645 0 LINE",
"645 637 LINE SMOOTH",
"645 662 OFFCURVE",
"665 673 OFFCURVE",
"703 673 CURVE SMOOTH",
"733 673 LINE",
"733 700 LINE",
"508 700 LINE",
"508 673 LINE",
"537 673 LINE SMOOTH",
"576 673 OFFCURVE",
"595 662 OFFCURVE",
"595 637 CURVE SMOOTH",
"595 126 LINE",
"217 700 LINE",
"22 700 LINE",
"22 673 LINE",
"51 673 LINE SMOOTH",
"90 673 OFFCURVE",
"109 662 OFFCURVE",
"109 637 CURVE SMOOTH",
"109 62 LINE SMOOTH",
"109 37 OFFCURVE",
"90 26 OFFCURVE",
"51 26 CURVE SMOOTH",
"22 26 LINE",
"22 0 LINE"
);
},
{
closed = 1;
nodes = (
"403 782 LINE",
"527 911 LINE",
"508 932 LINE",
"400 847 LINE",
"392 840 OFFCURVE",
"383 836 OFFCURVE",
"377 836 CURVE SMOOTH",
"371 836 OFFCURVE",
"363 840 OFFCURVE",
"353 847 CURVE",
"245 932 LINE",
"226 911 LINE",
"350 782 LINE"
);
}
);
};
components = (
{
name = N;
},
{
name = caroncomb;
transform = "{1, 0, 0, 1, 349, 200}";
}
);
layerId = "ECFE7DEB-F40D-44C7-B7CF-D3B40F3B51F8";
width = 698;
}
);
note = Ncaron;
unicode = 0147;
},
{
color = 4;
glyphname = Ncommaaccent;
lastChange = "2018-05-16 09:42:50 +0000";
layers = (
{
background = {
paths = (
{
closed = 1;
nodes = (
"247 0 LINE",
"247 26 LINE",
"217 26 LINE SMOOTH",
"179 26 OFFCURVE",
"159 37 OFFCURVE",
"159 62 CURVE SMOOTH",
"159 642 LINE",
"587 0 LINE",
"645 0 LINE",
"645 637 LINE SMOOTH",
"645 662 OFFCURVE",
"665 673 OFFCURVE",
"703 673 CURVE SMOOTH",
"733 673 LINE",
"733 700 LINE",
"508 700 LINE",
"508 673 LINE",
"537 673 LINE SMOOTH",
"576 673 OFFCURVE",
"595 662 OFFCURVE",
"595 637 CURVE SMOOTH",
"595 126 LINE",
"217 700 LINE",
"22 700 LINE",
"22 673 LINE",
"51 673 LINE SMOOTH",
"90 673 OFFCURVE",
"109 662 OFFCURVE",
"109 637 CURVE SMOOTH",
"109 62 LINE SMOOTH",
"109 37 OFFCURVE",
"90 26 OFFCURVE",
"51 26 CURVE SMOOTH",
"22 26 LINE",
"22 0 LINE"
);
},
{
closed = 1;
nodes = (
"369 -258 OFFCURVE",
"413 -198 OFFCURVE",
"413 -135 CURVE SMOOTH",
"413 -87 OFFCURVE",
"389 -67 OFFCURVE",
"360 -67 CURVE SMOOTH",
"331 -67 OFFCURVE",
"314 -87 OFFCURVE",
"314 -111 CURVE SMOOTH",
"314 -145 OFFCURVE",
"349 -152 OFFCURVE",
"349 -187 CURVE SMOOTH",
"349 -223 OFFCURVE",
"323 -256 OFFCURVE",
"296 -282 CURVE",
"313 -299 LINE"
);
}
);
};
components = (
{
name = N;
},
{
name = commaaccentcomb;
transform = "{1, 0, 0, 1, 335, 0}";
}
);
layerId = "0B1DFD06-3317-40CA-B510-4969A0718C16";
width = 670;
},
{
background = {
paths = (
{
closed = 1;
nodes = (
"247 0 LINE",
"247 26 LINE",
"217 26 LINE SMOOTH",
"179 26 OFFCURVE",
"159 37 OFFCURVE",
"159 62 CURVE SMOOTH",
"159 642 LINE",
"587 0 LINE",
"645 0 LINE",
"645 637 LINE SMOOTH",
"645 662 OFFCURVE",
"665 673 OFFCURVE",
"703 673 CURVE SMOOTH",
"733 673 LINE",
"733 700 LINE",
"508 700 LINE",
"508 673 LINE",
"537 673 LINE SMOOTH",
"576 673 OFFCURVE",
"595 662 OFFCURVE",
"595 637 CURVE SMOOTH",
"595 126 LINE",
"217 700 LINE",
"22 700 LINE",
"22 673 LINE",
"51 673 LINE SMOOTH",
"90 673 OFFCURVE",
"109 662 OFFCURVE",
"109 637 CURVE SMOOTH",
"109 62 LINE SMOOTH",
"109 37 OFFCURVE",
"90 26 OFFCURVE",
"51 26 CURVE SMOOTH",
"22 26 LINE",
"22 0 LINE"
);
},
{
closed = 1;
nodes = (
"369 -258 OFFCURVE",
"413 -198 OFFCURVE",
"413 -135 CURVE SMOOTH",
"413 -87 OFFCURVE",
"389 -67 OFFCURVE",
"360 -67 CURVE SMOOTH",
"331 -67 OFFCURVE",
"314 -87 OFFCURVE",
"314 -111 CURVE SMOOTH",
"314 -145 OFFCURVE",
"349 -152 OFFCURVE",
"349 -187 CURVE SMOOTH",
"349 -223 OFFCURVE",
"323 -256 OFFCURVE",
"296 -282 CURVE",
"313 -299 LINE"
);
}
);
};
components = (
{
name = N;
},
{
name = commaaccentcomb;
transform = "{1, 0, 0, 1, 349, 0}";
}
);
layerId = "ECFE7DEB-F40D-44C7-B7CF-D3B40F3B51F8";
width = 698;
}
);
note = Ncommaaccent;
unicode = 0145;
},
{
color = 4;
glyphname = Ndotaccent;
lastChange = "2018-05-16 09:42:50 +0000";
layers = (
{
background = {
paths = (
{
closed = 1;
nodes = (
"247 0 LINE",
"247 26 LINE",
"217 26 LINE SMOOTH",
"179 26 OFFCURVE",
"159 37 OFFCURVE",
"159 62 CURVE SMOOTH",
"159 642 LINE",
"587 0 LINE",
"645 0 LINE",
"645 637 LINE SMOOTH",
"645 662 OFFCURVE",
"665 673 OFFCURVE",
"703 673 CURVE SMOOTH",
"733 673 LINE",
"733 700 LINE",
"508 700 LINE",
"508 673 LINE",
"537 673 LINE SMOOTH",
"576 673 OFFCURVE",
"595 662 OFFCURVE",
"595 637 CURVE SMOOTH",
"595 126 LINE",
"217 700 LINE",
"22 700 LINE",
"22 673 LINE",
"51 673 LINE SMOOTH",
"90 673 OFFCURVE",
"109 662 OFFCURVE",
"109 637 CURVE SMOOTH",
"109 62 LINE SMOOTH",
"109 37 OFFCURVE",
"90 26 OFFCURVE",
"51 26 CURVE SMOOTH",
"22 26 LINE",
"22 0 LINE"
);
},
{
closed = 1;
nodes = (
"405 765 OFFCURVE",
"423 784 OFFCURVE",
"423 811 CURVE SMOOTH",
"423 839 OFFCURVE",
"405 858 OFFCURVE",
"377 858 CURVE SMOOTH",
"348 858 OFFCURVE",
"330 839 OFFCURVE",
"330 811 CURVE SMOOTH",
"330 784 OFFCURVE",
"348 765 OFFCURVE",
"377 765 CURVE SMOOTH"
);
}
);
};
components = (
{
name = N;
},
{
name = dotaccentcomb;
transform = "{1, 0, 0, 1, 335, 200}";
}
);
layerId = "0B1DFD06-3317-40CA-B510-4969A0718C16";
width = 670;
},
{
background = {
paths = (
{
closed = 1;
nodes = (
"247 0 LINE",
"247 26 LINE",
"217 26 LINE SMOOTH",
"179 26 OFFCURVE",
"159 37 OFFCURVE",
"159 62 CURVE SMOOTH",
"159 642 LINE",
"587 0 LINE",
"645 0 LINE",
"645 637 LINE SMOOTH",
"645 662 OFFCURVE",
"665 673 OFFCURVE",
"703 673 CURVE SMOOTH",
"733 673 LINE",
"733 700 LINE",
"508 700 LINE",
"508 673 LINE",
"537 673 LINE SMOOTH",
"576 673 OFFCURVE",
"595 662 OFFCURVE",
"595 637 CURVE SMOOTH",
"595 126 LINE",
"217 700 LINE",
"22 700 LINE",
"22 673 LINE",
"51 673 LINE SMOOTH",
"90 673 OFFCURVE",
"109 662 OFFCURVE",
"109 637 CURVE SMOOTH",
"109 62 LINE SMOOTH",
"109 37 OFFCURVE",
"90 26 OFFCURVE",
"51 26 CURVE SMOOTH",
"22 26 LINE",
"22 0 LINE"
);
},
{
closed = 1;
nodes = (
"405 765 OFFCURVE",
"423 784 OFFCURVE",
"423 811 CURVE SMOOTH",
"423 839 OFFCURVE",
"405 858 OFFCURVE",
"377 858 CURVE SMOOTH",
"348 858 OFFCURVE",
"330 839 OFFCURVE",
"330 811 CURVE SMOOTH",
"330 784 OFFCURVE",
"348 765 OFFCURVE",
"377 765 CURVE SMOOTH"
);
}
);
};
components = (
{
name = N;
},
{
name = dotaccentcomb;
transform = "{1, 0, 0, 1, 349, 200}";
}
);
layerId = "ECFE7DEB-F40D-44C7-B7CF-D3B40F3B51F8";
width = 698;
}
);
note = Ndotaccent;
unicode = 1E44;
},
{
color = 4;
glyphname = Ndotbelow;
lastChange = "2018-05-16 09:42:50 +0000";
layers = (
{
background = {
paths = (
{
closed = 1;
nodes = (
"247 0 LINE",
"247 26 LINE",
"217 26 LINE SMOOTH",
"179 26 OFFCURVE",
"159 37 OFFCURVE",
"159 62 CURVE SMOOTH",
"159 642 LINE",
"587 0 LINE",
"645 0 LINE",
"645 637 LINE SMOOTH",
"645 662 OFFCURVE",
"665 673 OFFCURVE",
"703 673 CURVE SMOOTH",
"733 673 LINE",
"733 700 LINE",
"508 700 LINE",
"508 673 LINE",
"537 673 LINE SMOOTH",
"576 673 OFFCURVE",
"595 662 OFFCURVE",
"595 637 CURVE SMOOTH",
"595 126 LINE",
"217 700 LINE",
"22 700 LINE",
"22 673 LINE",
"51 673 LINE SMOOTH",
"90 673 OFFCURVE",
"109 662 OFFCURVE",
"109 637 CURVE SMOOTH",
"109 62 LINE SMOOTH",
"109 37 OFFCURVE",
"90 26 OFFCURVE",
"51 26 CURVE SMOOTH",
"22 26 LINE",
"22 0 LINE"
);
},
{
closed = 1;
nodes = (
"415 -159 OFFCURVE",
"433 -140 OFFCURVE",
"433 -112 CURVE SMOOTH",
"433 -84 OFFCURVE",
"415 -64 OFFCURVE",
"387 -64 CURVE SMOOTH",
"359 -64 OFFCURVE",
"340 -84 OFFCURVE",
"340 -112 CURVE SMOOTH",
"340 -140 OFFCURVE",
"359 -159 OFFCURVE",
"387 -159 CURVE SMOOTH"
);
}
);
};
components = (
{
name = N;
},
{
name = dotbelowcomb;
transform = "{1, 0, 0, 1, 335, 0}";
}
);
layerId = "0B1DFD06-3317-40CA-B510-4969A0718C16";
width = 670;
},
{
background = {
paths = (
{
closed = 1;
nodes = (
"247 0 LINE",
"247 26 LINE",
"217 26 LINE SMOOTH",
"179 26 OFFCURVE",
"159 37 OFFCURVE",
"159 62 CURVE SMOOTH",
"159 642 LINE",
"587 0 LINE",
"645 0 LINE",
"645 637 LINE SMOOTH",
"645 662 OFFCURVE",
"665 673 OFFCURVE",
"703 673 CURVE SMOOTH",
"733 673 LINE",
"733 700 LINE",
"508 700 LINE",
"508 673 LINE",
"537 673 LINE SMOOTH",
"576 673 OFFCURVE",
"595 662 OFFCURVE",
"595 637 CURVE SMOOTH",
"595 126 LINE",
"217 700 LINE",
"22 700 LINE",
"22 673 LINE",
"51 673 LINE SMOOTH",
"90 673 OFFCURVE",
"109 662 OFFCURVE",
"109 637 CURVE SMOOTH",
"109 62 LINE SMOOTH",
"109 37 OFFCURVE",
"90 26 OFFCURVE",
"51 26 CURVE SMOOTH",
"22 26 LINE",
"22 0 LINE"
);
},
{
closed = 1;
nodes = (
"415 -159 OFFCURVE",
"433 -140 OFFCURVE",
"433 -112 CURVE SMOOTH",
"433 -84 OFFCURVE",
"415 -64 OFFCURVE",
"387 -64 CURVE SMOOTH",
"359 -64 OFFCURVE",
"340 -84 OFFCURVE",
"340 -112 CURVE SMOOTH",
"340 -140 OFFCURVE",
"359 -159 OFFCURVE",
"387 -159 CURVE SMOOTH"
);
}
);
};
components = (
{
name = N;
},
{
name = dotbelowcomb;
transform = "{1, 0, 0, 1, 349, 0}";
}
);
layerId = "ECFE7DEB-F40D-44C7-B7CF-D3B40F3B51F8";
width = 698;
}
);
note = uni1E46;
unicode = 1E46;
},
{
color = 4;
glyphname = Eng;
lastChange = "2018-05-15 13:09:10 +0000";
layers = (
{
background = {
paths = (
{
closed = 1;
nodes = (
"592 -259 OFFCURVE",
"645 -182 OFFCURVE",
"645 -36 CURVE SMOOTH",
"645 637 LINE SMOOTH",
"645 662 OFFCURVE",
"665 673 OFFCURVE",
"703 673 CURVE SMOOTH",
"733 673 LINE",
"733 700 LINE",
"508 700 LINE",
"508 673 LINE",
"537 673 LINE SMOOTH",
"576 673 OFFCURVE",
"595 662 OFFCURVE",
"595 637 CURVE SMOOTH",
"595 125 LINE",
"219 700 LINE",
"22 700 LINE",
"22 673 LINE",
"51 673 LINE SMOOTH",
"90 673 OFFCURVE",
"109 662 OFFCURVE",
"109 637 CURVE SMOOTH",
"109 62 LINE SMOOTH",
"109 37 OFFCURVE",
"93 26 OFFCURVE",
"51 26 CURVE SMOOTH",
"22 26 LINE",
"22 0 LINE",
"247 0 LINE",
"247 26 LINE",
"217 26 LINE SMOOTH",
"179 26 OFFCURVE",
"159 37 OFFCURVE",
"159 62 CURVE SMOOTH",
"159 647 LINE",
"586 0 LINE",
"586 -76 LINE SMOOTH",
"586 -173 OFFCURVE",
"510 -238 OFFCURVE",
"423 -243 CURVE",
"427 -268 LINE"
);
}
);
};
components = (
{
name = N;
}
);
layerId = "0B1DFD06-3317-40CA-B510-4969A0718C16";
paths = (
{
closed = 1;
nodes = (
"527 -256 OFFCURVE",
"580 -187 OFFCURVE",
"580 -24 CURVE SMOOTH",
"580 79 LINE",
"524 79 LINE",
"524 -17 LINE SMOOTH",
"524 -155 OFFCURVE",
"486 -209 OFFCURVE",
"395 -209 CURVE SMOOTH",
"358 -209 OFFCURVE",
"313 -195 OFFCURVE",
"291 -175 CURVE",
"270 -217 LINE",
"300 -242 OFFCURVE",
"357 -256 OFFCURVE",
"395 -256 CURVE SMOOTH"
);
}
);
width = 670;
},
{
background = {
paths = (
{
closed = 1;
nodes = (
"592 -259 OFFCURVE",
"645 -182 OFFCURVE",
"645 -36 CURVE SMOOTH",
"645 637 LINE SMOOTH",
"645 662 OFFCURVE",
"665 673 OFFCURVE",
"703 673 CURVE SMOOTH",
"733 673 LINE",
"733 700 LINE",
"508 700 LINE",
"508 673 LINE",
"537 673 LINE SMOOTH",
"576 673 OFFCURVE",
"595 662 OFFCURVE",
"595 637 CURVE SMOOTH",
"595 125 LINE",
"219 700 LINE",
"22 700 LINE",
"22 673 LINE",
"51 673 LINE SMOOTH",
"90 673 OFFCURVE",
"109 662 OFFCURVE",
"109 637 CURVE SMOOTH",
"109 62 LINE SMOOTH",
"109 37 OFFCURVE",
"93 26 OFFCURVE",
"51 26 CURVE SMOOTH",
"22 26 LINE",
"22 0 LINE",
"247 0 LINE",
"247 26 LINE",
"217 26 LINE SMOOTH",
"179 26 OFFCURVE",
"159 37 OFFCURVE",
"159 62 CURVE SMOOTH",
"159 647 LINE",
"586 0 LINE",
"586 -76 LINE SMOOTH",
"586 -173 OFFCURVE",
"510 -238 OFFCURVE",
"423 -243 CURVE",
"427 -268 LINE"
);
}
);
};
components = (
{
name = N;
}
);
layerId = "ECFE7DEB-F40D-44C7-B7CF-D3B40F3B51F8";
paths = (
{
closed = 1;
nodes = (
"516 -275 OFFCURVE",
"604 -215 OFFCURVE",
"604 -73 CURVE SMOOTH",
"604 98 LINE",
"446 98 LINE",
"446 -73 LINE SMOOTH",
"446 -116 OFFCURVE",
"436 -161 OFFCURVE",
"384 -161 CURVE SMOOTH",
"358 -161 OFFCURVE",
"329 -150 OFFCURVE",
"291 -125 CURVE",
"240 -223 LINE",
"273 -251 OFFCURVE",
"321 -275 OFFCURVE",
"397 -275 CURVE SMOOTH"
);
}
);
width = 662;
}
);
leftMetricsKey = N;
note = Eng;
rightMetricsKey = N;
unicode = 014A;
},
{
color = 4;
glyphname = Nlinebelow;
lastChange = "2018-05-16 09:42:50 +0000";
layers = (
{
background = {
paths = (
{
closed = 1;
nodes = (
"247 0 LINE",
"247 26 LINE",
"217 26 LINE SMOOTH",
"179 26 OFFCURVE",
"159 37 OFFCURVE",
"159 62 CURVE SMOOTH",
"159 642 LINE",
"587 0 LINE",
"645 0 LINE",
"645 637 LINE SMOOTH",
"645 662 OFFCURVE",
"665 673 OFFCURVE",
"703 673 CURVE SMOOTH",
"733 673 LINE",
"733 700 LINE",
"508 700 LINE",
"508 673 LINE",
"537 673 LINE SMOOTH",
"576 673 OFFCURVE",
"595 662 OFFCURVE",
"595 637 CURVE SMOOTH",
"595 126 LINE",
"217 700 LINE",
"22 700 LINE",
"22 673 LINE",
"51 673 LINE SMOOTH",
"90 673 OFFCURVE",
"109 662 OFFCURVE",
"109 637 CURVE SMOOTH",
"109 62 LINE SMOOTH",
"109 37 OFFCURVE",
"90 26 OFFCURVE",
"51 26 CURVE SMOOTH",
"22 26 LINE",
"22 0 LINE"
);
},
{
closed = 1;
nodes = (
"542 -110 LINE",
"542 -72 LINE",
"210 -72 LINE",
"210 -110 LINE"
);
}
);
};
components = (
{
name = N;
},
{
name = macronbelowcomb;
transform = "{1, 0, 0, 1, 335, 0}";
}
);
layerId = "0B1DFD06-3317-40CA-B510-4969A0718C16";
width = 670;
},
{
background = {
paths = (
{
closed = 1;
nodes = (
"247 0 LINE",
"247 26 LINE",
"217 26 LINE SMOOTH",
"179 26 OFFCURVE",
"159 37 OFFCURVE",
"159 62 CURVE SMOOTH",
"159 642 LINE",
"587 0 LINE",
"645 0 LINE",
"645 637 LINE SMOOTH",
"645 662 OFFCURVE",
"665 673 OFFCURVE",
"703 673 CURVE SMOOTH",
"733 673 LINE",
"733 700 LINE",
"508 700 LINE",
"508 673 LINE",
"537 673 LINE SMOOTH",
"576 673 OFFCURVE",
"595 662 OFFCURVE",
"595 637 CURVE SMOOTH",
"595 126 LINE",
"217 700 LINE",
"22 700 LINE",
"22 673 LINE",
"51 673 LINE SMOOTH",
"90 673 OFFCURVE",
"109 662 OFFCURVE",
"109 637 CURVE SMOOTH",
"109 62 LINE SMOOTH",
"109 37 OFFCURVE",
"90 26 OFFCURVE",
"51 26 CURVE SMOOTH",
"22 26 LINE",
"22 0 LINE"
);
},
{
closed = 1;
nodes = (
"542 -110 LINE",
"542 -72 LINE",
"210 -72 LINE",
"210 -110 LINE"
);
}
);
};
components = (
{
name = N;
},
{
name = macronbelowcomb;
transform = "{1, 0, 0, 1, 349, 0}";
}
);
layerId = "ECFE7DEB-F40D-44C7-B7CF-D3B40F3B51F8";
width = 698;
}
);
note = Nlinebelow;
unicode = 1E48;
},
